<svg xmlns="http://www.w3.org/2000/svg" xmlns:xlink="http://www.w3.org/1999/xlink" width="336.297" height="178.438" viewBox="0 0 336.297 178.438">
  <defs>
    <linearGradient id="linear-gradient" x1="0.5" y1="1" x2="0.5" gradientUnits="objectBoundingBox">
      <stop offset="0" stop-color="gray" stop-opacity="0.251"/>
      <stop offset="0.54" stop-color="gray" stop-opacity="0.122"/>
      <stop offset="1" stop-color="gray" stop-opacity="0.102"/>
    </linearGradient>
  </defs>
  <g id="comite-gestor-header-mobile" transform="translate(-0.001 -0.051)" opacity="0.1">
    <path id="Caminho_641" data-name="Caminho 641" d="M58.75,179.675c.545,3.457,1.937,6.8,1.949,10.292.045,11.424-13.815,18.44-15.937,29.664-1.259,6.659,2,13.464,6.6,18.431s10.467,8.548,15.87,12.635a101.625,101.625,0,0,1,33.294,44.043,42.264,42.264,0,0,1,2.927,10.879c.282,2.724.148,5.512.787,8.173,2.528,10.561,15.344,14.66,26.18,15.344a114.814,114.814,0,0,0,51.077-8.53c3.632-1.513,7.383-3.233,11.282-2.806,3.118.342,5.9,2.028,8.636,3.563a114.549,114.549,0,0,0,25.542,10.516c4.934,1.362,10.113,2.4,15.153,1.513,15.135-2.67,23.178-21.025,38.028-25.039,10.274-2.776,20.965,2.074,30.179,7.4s18.725,11.457,29.362,11.472c14.19.018,25.856-10.722,35.482-21.146,2.019-2.189,4.071-4.477,5.034-7.3,1.952-5.721-1.211-12.147-5.887-15.992s-10.573-5.751-16.206-7.949a140.531,140.531,0,0,1-27.173-14.19c-5.509-3.693-10.846-7.87-14.614-13.319-3.242-4.7-5.188-10.143-7.362-15.422-4.764-11.56-11.5-23.308-22.754-28.732-9.187-4.431-19.857-3.935-30.055-4.053-15.026-.166-30.433-1.974-43.755-8.924-11.251-5.869-20.493-15.135-31.91-20.683-18.162-8.818-38.924-7.089-58.493-6.756-9.4.16-20.583,1.1-29.616-1.983-6.681-2.279-10.119-6.938-17.793-5.061A21.539,21.539,0,0,0,58.75,179.675Z" transform="translate(-44.49 -155.23)" fill="#4dba80" opacity="0.1"/>
    <path id="Caminho_642" data-name="Caminho 642" d="M371.6,310.157a7.567,7.567,0,0,1,.142-4.8c.908-2.349,3.121-4.044,3.9-6.444,1.447-4.459-2.452-8.633-4.843-12.674a21.286,21.286,0,0,1-2.848-12.411c.372-4.649,2.276-9.1,2.422-13.758.13-4.344-1.277-8.569-2.667-12.686a43.923,43.923,0,0,0-4.256-9.865,22.579,22.579,0,0,0-16.888-9.9c-3.163-.282-6.257.748-9.365.345-4.316-.557-8.4-1.677-12.8-1.816-4.18-.124-8.8.406-11.651,3.469-2.176,2.346-2.873,5.733-4.864,8.239-2.827,3.557-7.77,4.777-10.9,8.07a11.433,11.433,0,0,0-2.582,11.027c.433,1.4,1.141,2.709,1.6,4.1,1.934,5.83-.605,12.066-2.14,18.011a2.725,2.725,0,0,0-.091,1.513c.242.727,1,1.108,1.638,1.538a8.567,8.567,0,0,1,3.33,6.463,24.3,24.3,0,0,1-.944,7.425c-1.45,6.2-3.263,12.846-8.043,16.972A43.663,43.663,0,0,0,286.68,307c-2.924-4.74-5.088-10.594-5.125-16.2a.209.209,0,0,1,0-.051c0-.3.015-.605.033-.908.378-6.611,3.236-12.989,3.172-19.569q0-.8-.045-1.6c-.372-5.633-3.078-10.843-6.181-15.559a37.892,37.892,0,0,0-8.267-9.484c-5.167-3.932-11.733-5.639-18.183-6.541s-12.32-1.75-18.822-2.185c-6.992-.469-14.687-.733-20.214,3.572-7.207,5.612-7.607,16.452-13.1,23.747-3.269,4.341-8.476,7.695-10.2,12.626a30.488,30.488,0,0,1-1.162-3.708c-.018-.085-.036-.166-.054-.251a36.094,36.094,0,0,0,1.4-18.534,22.8,22.8,0,0,0,.209-3.027,11.92,11.92,0,0,0-.354-3.272c-.778-2.948-2.924-5.306-5-7.543a22.134,22.134,0,0,0-2.452-2.376,35.936,35.936,0,0,0-61.278,35.718,9.408,9.408,0,0,1-2.534,5.527c-.669.663-1.535,1.492-1.389,2.34a1.141,1.141,0,0,0,.1.711,1.992,1.992,0,0,0,.605.663,10.9,10.9,0,0,0,7.413,2.21,31,31,0,0,0,12.483,16.025q0,.3-.021.587c0,.336-.027.669-.042,1.008v.139c0-.03-10.54,13.739-20.281,14.251-5.2.272-9.738,3.781-13.176,7.791-4.129,4.813-6.678,10.346-6.9,11.878-.4,2.809-3.212,16.461-3.212,16.461h80.923c-.957,4.916-2.246,11.179-2.246,11.179h131c-.3-4.211-.639-8.1-.95-11.4h16.47l-.018.1H395.27l4.819-7.231C398.894,323.025,386.465,311.441,371.6,310.157ZM182.44,286.619a19.627,19.627,0,0,0,5.449,1.961,3.276,3.276,0,0,0,2.455-.188,2.821,2.821,0,0,0,.99-1.4l.036.091c2.043,5.146,3.935,10.455,4.3,15.982.033.521.054,1.041.058,1.565a22.636,22.636,0,0,1-1.91,9.16,176.564,176.564,0,0,1-19.757-12.108l-.427-.182c0,.033.148.412.324,1.05.042.154.088.324.133.506-.433-1.4-.826-2.827-1.171-4.283l-.118-.518A31.035,31.035,0,0,0,182.44,286.619Z" transform="translate(-79.09 -202.503)" fill="url(#linear-gradient)"/>
    <path id="Caminho_643" data-name="Caminho 643" d="M238,480.257v0Z" transform="translate(-179.425 -381.699)" fill="#fff"/>
    <path id="Caminho_644" data-name="Caminho 644" d="M237.93,479.586v0Z" transform="translate(-179.376 -381.225)" fill="#fff"/>
    <path id="Caminho_645" data-name="Caminho 645" d="M237.88,479.07Z" transform="translate(-179.341 -381.008)" fill="#fff"/>
    <path id="Caminho_646" data-name="Caminho 646" d="M237.89,479.38Z" transform="translate(-179.348 -381.225)" fill="#fff"/>
    <path id="Caminho_647" data-name="Caminho 647" d="M237.88,479.22Z" transform="translate(-179.341 -381.113)" fill="#fff"/>
    <path id="Caminho_648" data-name="Caminho 648" d="M757.6,236.742c-4.114-.124-8.666.4-11.466,3.414-2.143,2.307-2.827,5.642-4.789,8.109-2.782,3.5-7.646,4.7-10.728,7.943a11.254,11.254,0,0,0-2.543,10.855c.427,1.38,1.123,2.667,1.577,4.038,1.9,5.751-.581,11.875-2.119,17.726a2.667,2.667,0,0,0-.088,1.5c.236.714.99,1.09,1.61,1.513a8.372,8.372,0,0,1,3.263,6.357,24.4,24.4,0,0,1-.929,7.307c-1.486,6.357-3.363,13.2-8.524,17.205-2.179,1.71-5.091,3.1-5.66,5.821-.666,3.19,2.379,5.9,5.3,7.346,8.575,4.238,18.531,4.3,27.912,6.187,8.261,1.665,16.5,4.819,24.861,3.741a50.143,50.143,0,0,0,10.815-3.088l21.958-8.091a5.711,5.711,0,0,0,1.725-.869c1.323-1.1,1.368-3.2.648-4.761a17.337,17.337,0,0,0-3.178-4.047c-2.506-2.806-4.413-6.768-3.045-10.274.908-2.313,3.072-3.98,3.838-6.357,1.423-4.389-2.422-8.5-4.752-12.477a20.95,20.95,0,0,1-2.8-12.2c.366-4.577,2.24-8.954,2.376-13.543.127-4.274-1.256-8.433-2.624-12.486a43.282,43.282,0,0,0-4.189-9.711,22.238,22.238,0,0,0-16.624-9.741c-3.115-.275-6.157.736-9.217.342C765.953,237.974,761.933,236.872,757.6,236.742Z" transform="translate(-513.512 -212.021)" fill="#f7d6c8"/>
    <path id="Caminho_649" data-name="Caminho 649" d="M827.007,469.756s-24.894-15.607-15.214-33.6a27.763,27.763,0,0,0,3.433-11.687,25.29,25.29,0,0,0,0-2.842v-.136q-.049-.733-.13-1.441a29.335,29.335,0,0,0-7.256-15.689s41.291-12.05,34.377-1.187c-3.209,5.043-2.249,9.989-.1,15.108.227.539.469,1.084.72,1.625,2.482,5.4,5.927,10.988,6.889,17.051C851.7,449.405,827.007,469.756,827.007,469.756Z" transform="translate(-576.775 -324.921)" fill="#efb7b9"/>
    <path id="Caminho_650" data-name="Caminho 650" d="M842.217,403.171c-3.209,5.043-2.249,9.989-.1,15.108a27.9,27.9,0,0,1-27.031,1.78,29.293,29.293,0,0,0-7.247-15.7S849.134,392.3,842.217,403.171Z" transform="translate(-576.775 -324.918)" opacity="0.1"/>
    <circle id="Elipse_4318" data-name="Elipse 4318" cx="27.857" cy="27.857" r="27.857" transform="translate(222.371 41.505)" fill="#efb7b9"/>
    <path id="Caminho_651" data-name="Caminho 651" d="M832.24,474.191v-.136l.033-.054A.9.9,0,0,0,832.24,474.191Z" transform="translate(-593.789 -377.473)" opacity="0.1"/>
    <path id="Caminho_652" data-name="Caminho 652" d="M830.964,518.73s-24.894-15.607-15.214-33.6a27.762,27.762,0,0,0,3.433-11.687c.566,4.444,3.632,9.968,9.214,17.614,2.422,3.33,3.463,7.985,3.793,12.638l.554.4,2.724-1.647c.3-5.146,1.344-10.346,3.808-14.033,6.475-9.686,8.012-14.53,7.534-19.548,2.482,5.4,5.927,10.988,6.889,17.051C855.658,498.38,830.964,518.73,830.964,518.73Z" transform="translate(-580.732 -373.896)" opacity="0.1"/>
    <path id="Caminho_653" data-name="Caminho 653" d="M766.761,480.732c-14.832-1.078-24.216-12.592-24.216-12.592.79,5.394-.493,10.222-7.41,20.583-2.449,3.675-3.487,8.866-3.79,14.024l-2.724,1.647-.554-.4c-.33-4.649-1.368-9.311-3.793-12.638-6.914-9.484-9.989-15.707-9.187-20.647,0,0-7.607,12.347-22.424,13.337S665.4,495.5,664.21,514.668l4.74,6.52h46.758l-.018.1h74.766l4.758-7.122C794.025,493.243,781.593,481.81,766.761,480.732Z" transform="translate(-476.622 -373.387)" fill="#4dba80"/>
    <path id="Caminho_654" data-name="Caminho 654" d="M766.761,480.732c-14.832-1.078-24.216-12.592-24.216-12.592.79,5.394-.493,10.222-7.41,20.583-2.449,3.675-3.487,8.866-3.79,14.024l-2.724,1.647-.554-.4c-.33-4.649-1.368-9.311-3.793-12.638-6.914-9.484-9.989-15.707-9.187-20.647,0,0-7.607,12.347-22.424,13.337S665.4,495.5,664.21,514.668l4.74,6.52h46.758l-.018.1h74.766l4.758-7.122C794.025,493.243,781.593,481.81,766.761,480.732Z" transform="translate(-476.622 -373.387)" opacity="0.05"/>
    <path id="Caminho_655" data-name="Caminho 655" d="M820.806,294.386a22.7,22.7,0,0,1-5.709,7.749c-3.245,3.072-7.325,5.779-11.787,5.57a18.08,18.08,0,0,0,5.088-8.361c-2.815,1.641-4.943,4.238-7.631,6.087s-6.487,2.8-9.114.872a27.322,27.322,0,0,0,11.4-10.773c-6.381,1.656-9.656,8.842-15.4,12.069a17.476,17.476,0,0,1-8.933,2.016c-2.195-.045-4.64-.557-5.863-2.379a6.757,6.757,0,0,1-.908-3.672,25.093,25.093,0,0,1,5.872-16.022,41.967,41.967,0,0,1,13.646-10.622,18.865,18.865,0,0,1,5.809-2.119,21,21,0,0,1,7.646.748,43.6,43.6,0,0,1,9.514,3.027C820.824,281.739,823.615,287.472,820.806,294.386Z" transform="translate(-551.744 -238.487)" opacity="0.1"/>
    <path id="Caminho_656" data-name="Caminho 656" d="M820.806,293.076a22.7,22.7,0,0,1-5.709,7.749c-3.245,3.072-7.325,5.779-11.787,5.57a18.08,18.08,0,0,0,5.088-8.361c-2.815,1.641-4.943,4.238-7.631,6.087s-6.487,2.8-9.114.872a27.322,27.322,0,0,0,11.4-10.773c-6.381,1.656-9.656,8.842-15.4,12.069a17.476,17.476,0,0,1-8.933,2.016c-2.195-.045-4.64-.557-5.863-2.379a6.757,6.757,0,0,1-.908-3.672,25.093,25.093,0,0,1,5.872-16.022,41.967,41.967,0,0,1,13.646-10.622,18.865,18.865,0,0,1,5.809-2.119,21,21,0,0,1,7.646.748,43.6,43.6,0,0,1,9.514,3.027C820.824,280.423,823.615,286.162,820.806,293.076Z" transform="translate(-551.744 -237.574)" fill="#f7d6c8"/>
    <circle id="Elipse_4319" data-name="Elipse 4319" cx="35.364" cy="35.364" r="35.364" transform="translate(41.618 21.673)" fill="#c3705a"/>
    <path id="Caminho_657" data-name="Caminho 657" d="M278.816,434.911s-32.389,8.3-33.191,9.081-27.264,2.173-19.56-14.027c2.83-5.948,4.008-14.027,4.365-21.87.015-.333.03-.663.042-.993a161.544,161.544,0,0,0-1.244-25.345s37.535-14.832,34.771,7.707A47.091,47.091,0,0,0,265.134,406c.418,1.768.908,3.5,1.453,5.173A88.207,88.207,0,0,0,278.816,434.911Z" transform="translate(-170.123 -309.812)" fill="#ecb4b6"/>
    <path id="Caminho_658" data-name="Caminho 658" d="M275.646,406.02a30.433,30.433,0,0,1-34.662,1.1,161.546,161.546,0,0,0-1.244-25.345s37.535-14.832,34.771,7.707A47.226,47.226,0,0,0,275.646,406.02Z" transform="translate(-180.638 -309.826)" opacity="0.1"/>
    <circle id="Elipse_4320" data-name="Elipse 4320" cx="30.424" cy="30.424" r="30.424" transform="translate(46.458 40.737)" fill="#ecb4b6"/>
    <path id="Caminho_659" data-name="Caminho 659" d="M278.816,506.616s-32.389,8.3-33.191,9.081-27.264,2.173-19.56-14.027c2.83-5.948,4.008-14.027,4.365-21.87.3,4.1,2.646,14.024,2.945,17.326a2.878,2.878,0,0,0,.115.569c.439,1.468,2,3.16,3.89,4.764l.112.094a14.43,14.43,0,0,0,16.993,1.135,76.634,76.634,0,0,0,7.737-5.576,13.535,13.535,0,0,0,4.758-10.292,22.036,22.036,0,0,0-.393-4.958A88.155,88.155,0,0,0,278.816,506.616Z" transform="translate(-170.123 -381.517)" opacity="0.1"/>
    <path id="Caminho_660" data-name="Caminho 660" d="M234.182,529.871H102s2.767-13.434,3.16-16.2c.215-1.513,2.724-6.962,6.79-11.693,3.384-3.935,7.849-7.4,12.968-7.67,9.58-.5,19.954-14.027,19.954-14.027h0c.23,3.935,2.658,14.212,2.963,17.584a2.878,2.878,0,0,0,.115.569c.439,1.468,2,3.16,3.89,4.764l.112.094a14.427,14.427,0,0,0,16.993,1.138,76.962,76.962,0,0,0,7.737-5.576,13.535,13.535,0,0,0,4.758-10.292,22.8,22.8,0,0,0-.826-6.808,10.77,10.77,0,0,0-.321-1.032l.421.179s17.9,13.016,34.3,18.337a19.61,19.61,0,0,1,5.376,2.724,23.237,23.237,0,0,1,3.651,3.278,33.982,33.982,0,0,1,5.449,8.382A57.531,57.531,0,0,1,234.182,529.871Z" transform="translate(-84.591 -381.852)" fill="#4dba80"/>
    <path id="Caminho_661" data-name="Caminho 661" d="M234.182,529.871H102s2.767-13.434,3.16-16.2c.215-1.513,2.724-6.962,6.79-11.693,3.384-3.935,7.849-7.4,12.968-7.67,9.58-.5,19.954-14.027,19.954-14.027h0c.23,3.935,2.658,14.212,2.963,17.584a2.878,2.878,0,0,0,.115.569c.439,1.468,2,3.16,3.89,4.764l.112.094a14.427,14.427,0,0,0,16.993,1.138,76.962,76.962,0,0,0,7.737-5.576,13.535,13.535,0,0,0,4.758-10.292,22.8,22.8,0,0,0-.826-6.808,10.77,10.77,0,0,0-.321-1.032l.421.179s17.9,13.016,34.3,18.337a19.61,19.61,0,0,1,5.376,2.724,23.237,23.237,0,0,1,3.651,3.278,33.982,33.982,0,0,1,5.449,8.382A57.531,57.531,0,0,1,234.182,529.871Z" transform="translate(-84.591 -381.852)" opacity="0.05"/>
    <path id="Caminho_662" data-name="Caminho 662" d="M228.28,280.323c.787,3.027,1.816,6.39,4.519,7.967a3.97,3.97,0,0,1,.99.675c.666.723.463,1.853.363,2.833a11.713,11.713,0,0,0,3.475,9.19,17.271,17.271,0,0,0,8.9,4.565,3.237,3.237,0,0,0,2.422-.185,2.824,2.824,0,0,0,.993-1.426,12.06,12.06,0,0,0-.239-7.719c-.772-2.506-1.91-4.9-2.494-7.455-1.389-6.069.451-12.341,1.28-18.513a15.9,15.9,0,0,0-.094-6.169c-.766-2.9-2.879-5.225-4.919-7.425a15.172,15.172,0,0,0-3.632-3.163c-4.159-2.273-9.514-.254-13.954-1.91a52.35,52.35,0,0,1-4.979-2.724,18.046,18.046,0,0,0-11.79-1.09,53.743,53.743,0,0,0-11.282,4.207l-2.794,1.265c-3.935,1.816-8.152,3.868-10.271,7.667-2.255,4.044-1.629,9.22-3.884,13.264-.684,1.211-1.638,2.373-1.816,3.766a7.509,7.509,0,0,0,.475,2.982,23.871,23.871,0,0,1,1.259,7.265,9.761,9.761,0,0,1-2.591,6.738c-.739.733-1.725,1.671-1.271,2.606a1.962,1.962,0,0,0,.605.654,10.719,10.719,0,0,0,10.21,1.514,6.631,6.631,0,0,0,3.33-2.512,9.835,9.835,0,0,0,1.072-2.809c.957-3.563,1.919-7.186,1.843-10.876-.042-2.119-.43-4.256-.121-6.357s1.535-4.265,3.578-4.843c1.513-.433,3.133.091,4.713.076,2.276-.018,5.067-2.543,7.177-1.8,1.816.642,3.254,4.117,4.755,5.449A17.24,17.24,0,0,0,228.28,280.323Z" transform="translate(-136.771 -219.378)" opacity="0.1"/>
    <path id="Caminho_663" data-name="Caminho 663" d="M228.335,278.978c.787,3.027,1.816,6.39,4.519,7.967a3.968,3.968,0,0,1,.978.66c.666.723.463,1.853.363,2.833a11.713,11.713,0,0,0,3.475,9.19,17.271,17.271,0,0,0,8.9,4.565,3.237,3.237,0,0,0,2.422-.185,2.824,2.824,0,0,0,.993-1.426,12.06,12.06,0,0,0-.239-7.719c-.772-2.506-1.91-4.9-2.494-7.455-1.389-6.069.451-12.341,1.28-18.513a15.9,15.9,0,0,0-.094-6.169c-.766-2.9-2.879-5.225-4.919-7.425a15.172,15.172,0,0,0-3.632-3.163c-4.159-2.273-9.514-.254-13.954-1.91a52.35,52.35,0,0,1-4.979-2.724,18.046,18.046,0,0,0-11.79-1.09,53.741,53.741,0,0,0-11.282,4.207l-2.758,1.271c-3.935,1.816-8.152,3.868-10.271,7.667-2.255,4.044-1.629,9.22-3.884,13.264-.684,1.211-1.638,2.373-1.816,3.766a7.509,7.509,0,0,0,.475,2.982,23.87,23.87,0,0,1,1.259,7.265,9.761,9.761,0,0,1-2.591,6.738c-.739.733-1.725,1.671-1.271,2.606a1.962,1.962,0,0,0,.605.654,10.719,10.719,0,0,0,10.21,1.513,6.631,6.631,0,0,0,3.33-2.512,9.835,9.835,0,0,0,1.072-2.809c.957-3.563,1.919-7.186,1.843-10.876-.042-2.119-.43-4.256-.121-6.357s1.535-4.265,3.578-4.843c1.514-.433,3.133.091,4.713.076,2.276-.018,5.067-2.543,7.177-1.8,1.816.642,3.254,4.117,4.755,5.449A17.12,17.12,0,0,0,228.335,278.978Z" transform="translate(-136.826 -218.43)" fill="#c3705a"/>
    <rect id="Ret창ngulo_266" data-name="Ret창ngulo 266" width="69.348" height="59.468" transform="translate(123.51 73.47)" fill="#463a3e"/>
    <rect id="Ret창ngulo_267" data-name="Ret창ngulo 267" width="69.348" height="59.468" transform="translate(123.51 73.47)" opacity="0.05"/>
    <path id="Caminho_664" data-name="Caminho 664" d="M512.1,483.453H452.77c.766-4.32,3.006-9.054,7.371-14.157a52.368,52.368,0,0,0,8.361-13.379q.845-1.946,1.514-3.9a57.135,57.135,0,0,0,2.661-11.932,3.351,3.351,0,0,1,.039-.345,65.193,65.193,0,0,0,.369-8.451c0-.2,0-.4,0-.605a77.012,77.012,0,0,0-3.405-20.408l-.076-.236c-.645-2.031-1.117-3.172-1.117-3.172s1.177-.639,3.121-1.58l.163-.079c7.147-3.433,24.064-10.594,31.523-5.491l.121.082c2.609,1.859,4.014,5.27,3.354,10.952v.067a3,3,0,0,1-.033.3,109.957,109.957,0,0,0-.566,11.787c0,.2,0,.394,0,.605q0,1.383.03,2.8v.381c.061,3.057.2,6.214.387,9.417.263,4.441.639,8.963,1.072,13.4.185,1.9.384,3.784.605,5.639.024.218.048.442.073.657.254,2.261.518,4.477.787,6.626l.018.139C510.171,471.109,511.309,478.561,512.1,483.453Z" transform="translate(-329.184 -324.434)" fill="#c17174"/>
    <path id="Caminho_665" data-name="Caminho 665" d="M542.913,410.79v.067a108.871,108.871,0,0,0-.605,12.108v.605a28.88,28.88,0,0,1-33.07,7.773v-.605a76.859,76.859,0,0,0-3.481-20.644c-.645-2.031-1.117-3.172-1.117-3.172s1.177-.639,3.121-1.58c7.077-3.42,24.346-10.806,31.8-5.5C542.165,401.7,543.57,405.109,542.913,410.79Z" transform="translate(-365.353 -324.464)" opacity="0.1"/>
    <circle id="Elipse_4321" data-name="Elipse 4321" cx="28.853" cy="28.853" r="28.853" transform="translate(126.234 50.813)" fill="#c17174"/>
    <path id="Caminho_666" data-name="Caminho 666" d="M420.094,600.518H358.54s2.767-13.434,3.16-16.2c.215-1.513,2.724-6.962,6.789-11.693a29.864,29.864,0,0,1,18.368-6.517c11.772-.176,15.2,3.878,16.128,6.874a6.711,6.711,0,0,1,.242,3.115l2.228,3.227Z" transform="translate(-263.477 -441.696)" opacity="0.1"/>
    <path id="Caminho_667" data-name="Caminho 667" d="M419.444,601.168H357.89s2.767-13.434,3.16-16.2c.215-1.513,2.724-6.962,6.79-11.693a29.865,29.865,0,0,1,18.368-6.517c11.772-.176,15.2,3.878,16.128,6.874a6.711,6.711,0,0,1,.242,3.115l2.228,3.227Z" transform="translate(-263.024 -442.149)" fill="#4dba80"/>
    <path id="Caminho_668" data-name="Caminho 668" d="M634.653,598.176H570.16c3.075-6.544,11.136-23.992,11.584-28.027.173-1.562,1.837-3.027,4.041-4.271a22.964,22.964,0,0,1,2.146-1.084l.133-.061q.605-.266,1.226-.493a24.567,24.567,0,0,1,17.254.136c5.294,2.013,12.108,4.725,17.411,7.265l.042.021c1.362.654,2.63,1.292,3.747,1.907a14.71,14.71,0,0,1,4.492,3.242c.288.412.605,2.267.953,5.146C633.654,585.851,634.159,591.626,634.653,598.176Z" transform="translate(-411.04 -439.354)" opacity="0.1"/>
    <path id="Caminho_669" data-name="Caminho 669" d="M635.3,598.826H570.81c3.075-6.544,11.136-23.992,11.584-28.027.173-1.562,1.837-3.027,4.041-4.271a22.964,22.964,0,0,1,2.146-1.084l.133-.061q.605-.266,1.226-.493a24.567,24.567,0,0,1,17.254.136c5.294,2.013,12.108,4.725,17.411,7.265l.042.021c1.362.654,2.63,1.292,3.747,1.907a14.712,14.712,0,0,1,4.492,3.242c.288.412.605,2.267.953,5.146C634.307,586.5,634.809,592.279,635.3,598.826Z" transform="translate(-411.494 -439.808)" fill="#4dba80"/>
    <path id="Caminho_670" data-name="Caminho 670" d="M476.663,359.541q0,1.4-.076,2.794-.042.681-.1,1.362c-.027.327-.061.651-.094.975l-.042.375c-.493,4.4-1.4,8.778-1.513,13.2v.627a55.089,55.089,0,0,0,1.562,12.314H439.256c-.061-.754-.091-1.513-.082-2.261a19.855,19.855,0,0,1,.112-2.028c.572-5.573,3.421-10.788,3.85-16.324l.018-.254c.027-.415.042-.832.036-1.25v-.112a21.4,21.4,0,0,0-.838-5.406l-.073-.263a54.444,54.444,0,0,0-1.816-5.146l-.133-.336c-1.008-2.518-2.067-5.016-2.785-7.519a20.007,20.007,0,0,1-.875-5.751c0-.348.021-.7.048-1.044.024-.285.057-.569.1-.857a13.437,13.437,0,0,1,.266-1.335,29.333,29.333,0,0,1,3.136-6.838h0c1.377-2.467,2.691-4.907,2.927-7.5a8.667,8.667,0,0,0,.033-.987h0a8.7,8.7,0,0,0-.121-1.265,21.712,21.712,0,0,0-2.043-5.194c-.079-.173-.157-.345-.233-.521,0-.027-.024-.054-.033-.082a69.518,69.518,0,0,1-3.315-10.936c-.039-.16-.079-.321-.121-.478-.227-.908-.46-1.816-.708-2.724-1.356-4.952-3.287-9.956-6.962-13.531s-9.535-5.385-14.136-3.109c-3.98,1.983-6.136,6.42-7.107,10.755s-1.05,8.86-2.313,13.122q-.136.466-.3.929c-.054.157-.109.3-.163.475a47.572,47.572,0,0,1-1.931,4.592l-.076.16c-2.3,4.895-4.973,9.7-5.058,14.623v.46a12.686,12.686,0,0,0,.527,3.451,17.2,17.2,0,0,0,2.979,5.449q.378.493.775.978c1.271,1.562,2.652,3.075,3.859,4.686l.039.051a19.149,19.149,0,0,1,2.31,3.853,14.066,14.066,0,0,1,.061,10.867,20.417,20.417,0,0,1-1.177,2.319c-.778,1.344-1.635,2.652-2.31,4.05a15.118,15.118,0,0,0-.605,1.432c-1.514,3.9-1.84,8.212-3.075,12.235a27.779,27.779,0,0,1-4.4,8.563H358.19c.457-2.237,2.724-13.319,3.081-15.807.215-1.513,2.724-6.962,6.79-11.693-.342.269-.672.542-.99.814a33.673,33.673,0,0,0-6.59,7.586c.088-.272.179-.548.269-.82.554-1.653,1.153-3.29,1.762-4.907,1.762-4.656,3.723-9.4,7.234-12.934,1.983-1.992,4.4-3.526,6.284-5.606,3.33-3.66,4.707-8.73,4.668-13.7,0-.515-.021-1.026-.054-1.538-.36-5.449-2.222-10.664-4.238-15.74-1.084-2.724-2.234-5.588-2.182-8.476a9.437,9.437,0,0,1,.088-1.211c.832-5.984,6.886-9.568,10.522-14.4,5.406-7.183,5.8-17.859,12.892-23.374,5.449-4.238,13.016-3.977,19.9-3.517,6.4.43,12.175,1.262,18.525,2.152s12.795,2.561,17.889,6.475a37.281,37.281,0,0,1,8.137,9.335c3.051,4.643,5.718,9.771,6.084,15.313.027.4.042.79.042,1.181.064,6.478-2.749,12.756-3.121,19.261-.015.3-.027.605-.03.908a.2.2,0,0,0,0,.048c-.067,5.639,2.1,11.56,5.043,16.346A43.84,43.84,0,0,1,476.663,359.541Z" transform="translate(-263.233 -232.169)" opacity="0.1"/>
    <path id="Caminho_671" data-name="Caminho 671" d="M476.454,358.656c0,.8-.03,1.6-.076,2.4q-.042.681-.1,1.362t-.136,1.35c-.493,4.4-1.4,8.778-1.513,13.2v1.02a56.864,56.864,0,0,0,1.65,12.314h-37.2c-.07-.754-.112-1.514-.118-2.261a21.657,21.657,0,0,1,.112-2.422c.572-5.573,3.421-10.788,3.85-16.324.03-.406.051-.811.054-1.211V367.8a21.656,21.656,0,0,0-.905-5.782,54.467,54.467,0,0,0-1.816-5.146c-1.047-2.63-2.17-5.243-2.921-7.87a20.47,20.47,0,0,1-.875-5.367,14.067,14.067,0,0,1,.048-1.441c.024-.285.057-.569.1-.857a13.42,13.42,0,0,1,.266-1.335,29.332,29.332,0,0,1,3.136-6.838c1.38-2.47,2.7-4.916,2.933-7.513.018-.2.027-.4.033-.605h0a8.478,8.478,0,0,0-.121-1.662,21.713,21.713,0,0,0-2.043-5.194c-.079-.173-.157-.345-.233-.521a68.047,68.047,0,0,1-3.348-11.018c-.266-1.072-.539-2.143-.826-3.206-1.356-4.952-3.287-9.956-6.962-13.531s-9.526-5.349-14.124-3.06c-3.98,1.983-6.136,6.42-7.107,10.755s-1.05,8.86-2.313,13.122c-.139.469-.3.938-.457,1.4-.563,1.6-1.265,3.178-2,4.752-2.364,5.022-5.116,9.962-5.058,15.02v.064a12.685,12.685,0,0,0,.527,3.451,17.192,17.192,0,0,0,2.979,5.449q.378.493.775.978c1.286,1.58,2.682,3.109,3.9,4.737a19.15,19.15,0,0,1,2.31,3.853,14.066,14.066,0,0,1,.061,10.867,20.406,20.406,0,0,1-1.177,2.319c-.778,1.344-1.635,2.652-2.31,4.05a15.122,15.122,0,0,0-.605,1.432c-1.514,3.9-1.84,8.212-3.075,12.235a27.848,27.848,0,0,1-4.7,8.957H357.89s2.767-13.434,3.16-16.2c.2-1.383,2.319-6.054,5.8-10.482.3-.406.648-.811.99-1.211a33.916,33.916,0,0,0-7.307,7.973l-.269.424c.63-1.934,1.323-3.844,2.034-5.727,1.762-4.656,3.723-9.4,7.234-12.934,1.983-1.992,4.4-3.526,6.284-5.606,3.233-3.563,4.631-8.476,4.668-13.319,0-.648,0-1.293-.054-1.934-.36-5.449-2.222-10.664-4.238-15.74-1.032-2.609-2.119-5.327-2.182-8.094a9.836,9.836,0,0,1,.088-1.6c.835-5.951,6.889-9.52,10.525-14.363,5.406-7.183,5.8-17.859,12.892-23.374,5.449-4.238,13.016-3.977,19.9-3.517,6.4.43,12.174,1.262,18.525,2.152s12.8,2.558,17.892,6.46a37.508,37.508,0,0,1,8.137,9.338c3.051,4.643,5.718,9.771,6.084,15.313q.055.79.042,1.577c-.051,6.336-2.758,12.492-3.121,18.867-.024.43-.036.857-.03,1.289a.208.208,0,0,0,0,.048c.036,5.521,2.167,11.279,5.043,15.943a43.843,43.843,0,0,1,6.472,23.072Z" transform="translate(-263.024 -231.284)" fill="#463a3e"/>
  </g>
</svg>
