<svg xmlns="http://www.w3.org/2000/svg" xmlns:xlink="http://www.w3.org/1999/xlink" width="992" height="553" viewBox="0 0 992 553">
  <defs>
    <style>
      .cls-1 {
        clip-path: url(#clip-teste3);
      }

      .cls-2 {
        fill: #4fb793;
      }

      .cls-3 {
        fill: #58cca4;
      }

      .cls-4 {
        fill: #a7ffd0;
      }

      .cls-5 {
        fill: #dcffec;
      }

      .cls-6 {
        fill: #fff;
      }
    </style>
    <clipPath id="clip-teste3">
      <rect width="992" height="553"/>
    </clipPath>
  </defs>
  <g id="teste3" class="cls-1">
    <rect class="cls-6" width="992" height="553"/>
    <g id="Grupo_de_caminhos" data-name="Grupo de caminhos" transform="translate(0 -166.002)">
      <path id="Caminho_6" data-name="Caminho 6" class="cls-2" d="M-21011.764-20302c171.631-144.928,461.48,32.725,461.48,32.725s247.645,141.229,447.5-85.512,31.291-376.686,31.291-376.686h-993.523V-20302Z" transform="translate(20999 20943.596)"/>
      <path id="Caminho_7" data-name="Caminho 7" class="cls-3" d="M-21011.764-20302c171.631-144.928,461.48,32.725,461.48,32.725s247.645,141.229,447.5-85.512,31.291-376.686,31.291-376.686h-993.523V-20302Z" transform="translate(20999 20917.895)"/>
      <path id="Caminho_8" data-name="Caminho 8" class="cls-4" d="M-21011.764-20302c171.631-144.928,461.48,32.725,461.48,32.725s247.645,141.229,447.5-85.512,31.291-376.686,31.291-376.686h-993.523V-20302Z" transform="translate(21006.344 20894.945)"/>
      <path id="Caminho_9" data-name="Caminho 9" class="cls-5" d="M-21011.764-20302c171.631-144.928,461.48,32.725,461.48,32.725s247.645,141.229,447.5-85.512,69.588-383.678,69.588-383.678l-1031.82,6.992V-20302Z" transform="translate(21010.932 20872)"/>
    </g>
  </g>
</svg>
