<svg xmlns="http://www.w3.org/2000/svg" width="48" height="67.753" viewBox="0 0 48 67.753">
  <defs>
    <style>
      .cls-1, .cls-2 {
        fill: #fff;
      }

      .cls-2 {
        font-size: 22px;
        font-family: SegoeUI-Bold, Segoe UI;
        font-weight: 700;
      }
    </style>
  </defs>
  <g id="cms-logo" transform="translate(-390 -683.247)">
    <g id="Grupo_22" data-name="Grupo 22" transform="translate(61.934 -15)">
      <path id="União_2" data-name="União 2" class="cls-1" d="M24477.822,23354.084l2.863,1.527,4.359-7.859a2,2,0,0,1,2.719-.781l9.621,5.33a2,2,0,0,1,.781,2.719l-4.242,7.65,4.033,2.15-13.539,8.945Z" transform="translate(-24129.336 -22648.473)"/>
      <path id="União_3" data-name="União 3" class="cls-1" d="M24481.064,23376.023l-1.838-1.777a1.872,1.872,0,0,1,.037-2.455l3.639-6.8.039-.133-8.123-5.072a2.005,2.005,0,0,1-.633-2.762l5.828-9.324a2,2,0,0,1,2.754-.639l4.5,2.857c.291.8.469,1.35.572,1.754l5.992,17.566-10.26,6.623a2.449,2.449,0,0,1-.535.346l-.117.076-.014-.018a2.1,2.1,0,0,1-.785.16A1.508,1.508,0,0,1,24481.064,23376.023Z" transform="translate(-24141.813 -22641.965)"/>
      <path id="União_4" data-name="União 4" class="cls-1" d="M24479.17,23368.949h0l-.008,0-.055-.025-.023-.018-5.973-3.334,14.969-9.816,9.625-6.414.008.023s0,0,0,0l4.705,2.344a2,2,0,0,1,.842,2.711l-5.16,9.717a2.015,2.015,0,0,1-2.73.811l-7.965-4.234c-.2.328-.428.674-.607,1.014l-3.443,6.475c-.359.668-1.68.979-2.8.979A3.586,3.586,0,0,1,24479.17,23368.949Z" transform="translate(-24132.203 -22626.906)"/>
    </g>
    <text id="CMS" class="cls-2" transform="translate(414 745)"><tspan x="-23.558" y="0">CMS</tspan></text>
  </g>
</svg>
