<svg xmlns="http://www.w3.org/2000/svg" width="36" height="47.533" viewBox="0 0 36 47.533">
  <g id="cms-logo-mobile" transform="translate(-389 -683.456)">
    <g id="Grupo_22" data-name="Grupo 22" transform="translate(392.833 683.246)">
      <path id="União_2" data-name="União 2" d="M0,5.216,2.029,6.3l2.8-5.057A2,2,0,0,1,7.552.461l5.794,3.211a2,2,0,0,1,.779,2.719L11.4,11.3l2.856,1.524L4.671,19.156Z" transform="translate(11.631)" fill="#fff"/>
      <path id="União_3" data-name="União 3" d="M5.09,20.73l-1.3-1.258a1.327,1.327,0,0,1,.027-1.74l2.576-4.818.029-.094L.666,9.227A1.418,1.418,0,0,1,.217,7.271L4.346.666A1.417,1.417,0,0,1,6.295.215L9.482,2.238c.207.564.332.955.406,1.242l4.244,12.443L6.865,20.615a1.761,1.761,0,0,1-.379.244l-.082.055-.01-.014a1.454,1.454,0,0,1-.557.113A1.067,1.067,0,0,1,5.09,20.73Z" transform="translate(0 4.636)" fill="#fff"/>
      <path id="União_4" data-name="União 4" d="M4.291,13.891h0l-.006,0-.039-.018-.016-.012L0,11.5,10.6,4.541,17.42,0l.006.018s0,0,0,0l3.332,1.66a1.419,1.419,0,0,1,.6,1.922L17.7,10.477a1.426,1.426,0,0,1-1.934.572l-5.643-3c-.137.232-.3.477-.43.717L7.256,13.355c-.254.473-1.189.691-1.986.691A2.542,2.542,0,0,1,4.291,13.891Z" transform="translate(6.263 17.131)" fill="#fff"/>
    </g>
    <text id="CMS" transform="translate(407 726.988)" fill="#fff" font-size="16" font-family="SegoeUI-Bold, Segoe UI" font-weight="700"><tspan x="-17.133" y="0">CMS</tspan></text>
  </g>
</svg>
