<svg xmlns="http://www.w3.org/2000/svg" width="1020.287" height="584.242" viewBox="0 0 1020.287 584.242">
  <g id="Grupo_de_caminhos" data-name="Grupo de caminhos" transform="translate(0.832 -133.539)">
    <path id="Caminho_6" data-name="Caminho 6" d="M-20998.639-20302c171.631-144.928,448.355,32.725,448.355,32.725s247.645,141.229,447.5-85.512,31.291-376.686,31.291-376.686l-928.047,6.291.9,423.182Z" transform="translate(20999 20943.596)" fill="#4fb793"/>
    <path id="Caminho_7" data-name="Caminho 7" d="M-20999.346-20302c171.631-144.928,449.063,32.725,449.063,32.725s247.645,141.229,447.5-85.512,31.291-376.686,31.291-376.686l-927.854,9.744V-20302Z" transform="translate(20999 20917.895)" fill="#58cca4"/>
    <path id="Caminho_8" data-name="Caminho 8" d="M-21007.062-20302c171.631-144.928,456.779,32.725,456.779,32.725s247.645,141.229,447.5-85.512,31.291-376.686,31.291-376.686l-935.113,17.188-.457,412.285Z" transform="translate(21006.344 20894.945)" fill="#a7ffd0"/>
    <path id="Caminho_9" data-name="Caminho 9" d="M-21011.764-20302c171.631-144.928,461.48,32.725,461.48,32.725s247.645,141.229,447.5-85.512,69.588-383.678,69.588-383.678h-978.568V-20302Z" transform="translate(21010.932 20872)" fill="#dcffec"/>
  </g>
</svg>
