<svg xmlns="http://www.w3.org/2000/svg" width="29.713" height="24.133" viewBox="0 0 29.713 24.133">
  <defs>
    <style>
      .cls-1 {
        fill: #707070;
      }
    </style>
  </defs>
  <path id="Icon_awesome-twitter" data-name="Icon awesome-twitter" class="cls-1" d="M26.659,9.4c.019.264.019.528.019.792,0,8.05-6.127,17.327-17.327,17.327A17.209,17.209,0,0,1,0,24.78a12.6,12.6,0,0,0,1.471.075,12.2,12.2,0,0,0,7.56-2.6A6.1,6.1,0,0,1,3.337,18.03a7.68,7.68,0,0,0,1.15.094,6.441,6.441,0,0,0,1.6-.207A6.091,6.091,0,0,1,1.207,11.94v-.075a6.133,6.133,0,0,0,2.753.773A6.1,6.1,0,0,1,2.074,4.493,17.31,17.31,0,0,0,14.63,10.866a6.875,6.875,0,0,1-.151-1.4A6.1,6.1,0,0,1,25.019,5.3a11.99,11.99,0,0,0,3.865-1.471,6.073,6.073,0,0,1-2.677,3.356,12.208,12.208,0,0,0,3.507-.943A13.091,13.091,0,0,1,26.659,9.4Z" transform="translate(0 -3.381)"/>
</svg>
