<svg id="RegimentoIcone" xmlns="http://www.w3.org/2000/svg" xmlns:xlink="http://www.w3.org/1999/xlink" width="814" height="778.22" viewBox="0 0 814 778.22">
  <defs>
    <linearGradient id="linear-gradient" x1="0.5" y1="1" x2="0.5" gradientUnits="objectBoundingBox">
      <stop offset="0.01" stop-color="gray" stop-opacity="0.251"/>
      <stop offset="0.54" stop-color="gray" stop-opacity="0.122"/>
      <stop offset="1" stop-color="gray" stop-opacity="0.102"/>
    </linearGradient>
    <linearGradient id="linear-gradient-2" x1="0.5" y1="1" x2="0.5" gradientUnits="objectBoundingBox">
      <stop offset="0" stop-color="#b3b3b3" stop-opacity="0.251"/>
      <stop offset="0.54" stop-color="#b3b3b3" stop-opacity="0.102"/>
      <stop offset="1" stop-color="#b3b3b3" stop-opacity="0.051"/>
    </linearGradient>
    <linearGradient id="linear-gradient-4" y1="1" y2="0" xlink:href="#linear-gradient-2"/>
    <linearGradient id="linear-gradient-6" y1="1" y2="0" xlink:href="#linear-gradient-2"/>
  </defs>
  <path id="Caminho_14" data-name="Caminho 14" d="M506.51,778.22H0V189.97L76.53,105.1H506.51Z" fill="url(#linear-gradient)"/>
  <path id="Caminho_15" data-name="Caminho 15" d="M498.69,760.33H8.95V194.56l73.99-81.63H498.69Z" fill="#fafafa"/>
  <rect id="Retângulo_20" data-name="Retângulo 20" width="238.59" height="40.25" transform="translate(56.76 182.81)" fill="#e0e0e0"/>
  <rect id="Retângulo_21" data-name="Retângulo 21" width="174.84" height="40.25" transform="translate(57.24 292.95)" fill="#e0e0e0"/>
  <rect id="Retângulo_22" data-name="Retângulo 22" width="392.18" height="147.59" transform="translate(57.24 458.43)" fill="#6c63ff"/>
  <rect id="Retângulo_23" data-name="Retângulo 23" width="88.87" height="40.25" transform="translate(360.55 183.37)" fill="#f5f5f5"/>
  <rect id="Retângulo_24" data-name="Retângulo 24" width="88.87" height="40.25" transform="translate(360.55 245.99)" fill="#f5f5f5"/>
  <path id="Caminho_16" data-name="Caminho 16" d="M90.57,112.93v89.45H8.95v-7.82l73.79-81.63Z" fill="url(#linear-gradient-2)"/>
  <path id="Caminho_17" data-name="Caminho 17" d="M8.75,194.56l73.99-81.63v81.63Z" fill="#eee"/>
  <path id="Caminho_18" data-name="Caminho 18" d="M661.93,722.31H155.42V134.06L231.95,49.2H661.93Z" fill="url(#linear-gradient)"/>
  <path id="Caminho_19" data-name="Caminho 19" d="M654.11,704.42H164.37V138.65l73.99-81.63H654.11Z" fill="#fafafa"/>
  <rect id="Retângulo_25" data-name="Retângulo 25" width="238.59" height="40.25" transform="translate(212.18 126.91)" fill="#e0e0e0"/>
  <rect id="Retângulo_26" data-name="Retângulo 26" width="174.84" height="40.25" transform="translate(212.66 237.04)" fill="#e0e0e0"/>
  <rect id="Retângulo_27" data-name="Retângulo 27" width="392.18" height="147.59" transform="translate(212.66 402.53)" fill="#6c63ff"/>
  <rect id="Retângulo_28" data-name="Retângulo 28" width="88.87" height="40.25" transform="translate(515.97 127.47)" fill="#f5f5f5"/>
  <rect id="Retângulo_29" data-name="Retângulo 29" width="88.87" height="40.25" transform="translate(515.97 190.08)" fill="#f5f5f5"/>
  <path id="Caminho_20" data-name="Caminho 20" d="M245.99,57.02v89.45H164.37v-7.82l73.79-81.63Z" fill="url(#linear-gradient-4)"/>
  <path id="Caminho_21" data-name="Caminho 21" d="M164.17,138.65l73.99-81.63v81.63Z" fill="#eee"/>
  <path id="Caminho_22" data-name="Caminho 22" d="M814,673.12H307.49V84.87L384.01,0H814Z" fill="url(#linear-gradient)"/>
  <path id="Caminho_23" data-name="Caminho 23" d="M806.17,655.23H316.43V89.45l74-81.62H806.17Z" fill="#fff"/>
  <rect id="Retângulo_30" data-name="Retângulo 30" width="238.59" height="40.25" transform="translate(364.25 77.71)" fill="#e0e0e0"/>
  <rect id="Retângulo_31" data-name="Retângulo 31" width="174.84" height="40.25" transform="translate(364.73 187.85)" fill="#e0e0e0"/>
  <rect id="Retângulo_32" data-name="Retângulo 32" width="392.18" height="147.59" transform="translate(364.73 353.33)" fill="#6c63ff"/>
  <rect id="Retângulo_33" data-name="Retângulo 33" width="88.87" height="40.25" transform="translate(668.04 78.27)" fill="#e0e0e0"/>
  <rect id="Retângulo_34" data-name="Retângulo 34" width="88.87" height="40.25" transform="translate(668.04 140.88)" fill="#e0e0e0"/>
  <rect id="Retângulo_35" data-name="Retângulo 35" width="88.87" height="40.25" transform="translate(668.04 203.5)" fill="#e0e0e0"/>
  <path id="Caminho_24" data-name="Caminho 24" d="M398.06,7.83V97.28H316.43V89.45l73.8-81.62Z" fill="url(#linear-gradient-6)"/>
  <path id="Caminho_25" data-name="Caminho 25" d="M316.23,89.45l74-81.62V89.45Z" fill="#eee"/>
</svg>
