<svg xmlns="http://www.w3.org/2000/svg" xmlns:xlink="http://www.w3.org/1999/xlink" width="318.51" height="235.12" viewBox="0 0 318.51 235.12">
  <defs>
    <linearGradient id="linear-gradient" x1="0.5" y1="1" x2="0.5" gradientUnits="objectBoundingBox">
      <stop offset="0" stop-color="gray" stop-opacity="0.251"/>
      <stop offset="0.54" stop-color="gray" stop-opacity="0.122"/>
      <stop offset="1" stop-color="gray" stop-opacity="0.102"/>
    </linearGradient>
    <linearGradient id="linear-gradient-2" x1="0.5" y1="1" x2="0.5" y2="0" xlink:href="#linear-gradient"/>
  </defs>
  <g id="cenarios-de-pratica-header-mobile" transform="translate(-0.005 -0.003)" opacity="0.15">
    <path id="Caminho_709" data-name="Caminho 709" d="M90.842,356.76h27.652v37.693H92.864c-.065.39-.131.777-.2,1.166h25.834v30.393a.39.39,0,0,1-.128-.049q-1.09-.433-2.18-.918c-.155-.071-.308-.144-.466-.213q-1.09-.515-2.18-1.09c-.253-.134-.507-.272-.755-.414a45.351,45.351,0,0,1-10.872-8.463c-.1-.09-.183-.188-.272-.272-.441-.48-.875-.965-1.294-1.46-.158-.183-.311-.368-.466-.545-.5-.6-.976-1.232-1.439-1.861-.071-.1-.136-.188-.2-.272a40.252,40.252,0,0,1-4.687-8.474c-.038-.09-.074-.188-.109-.272-.376-.954-.717-1.921-1.011-2.908-.125-.411-.248-.817-.352-1.245-.038-.123-.068-.248-.1-.371-1.531-6.036-1.708-12.308-1.708-18.551v-2.18q.033-3.823.09-7.638.022-.981.041-1.97.057-2.5.163-5.019c.016-.463.038-.929.063-1.39q.016-.4.041-.8Q90.741,358.188,90.842,356.76Z" transform="translate(-69.662 -264.603)" fill="#4dba80" opacity="0.1"/>
    <path id="Caminho_710" data-name="Caminho 710" d="M153.349,151.567H138.18a115.461,115.461,0,0,1,8.068-11.1c2.256-2.768,4.632-5.466,7.1-8.066Z" transform="translate(-104.517 -101.378)" fill="#4dba80" opacity="0.1"/>
    <path id="Caminho_711" data-name="Caminho 711" d="M120.255,207v39.641H92.69c0-.114.016-.232.027-.346.025-.313.049-.624.076-.937.027-.365.063-.73.1-1.09s.071-.8.114-1.191.079-.8.123-1.191.087-.79.136-1.183.093-.79.147-1.183c.041-.324.082-.651.128-.978.063-.46.128-.921.2-1.379a1.311,1.311,0,0,1,.033-.207,95.076,95.076,0,0,1,2.027-9.951,73.684,73.684,0,0,1,3.42-10.082A75.712,75.712,0,0,1,104.361,207Z" transform="translate(-71.423 -155.65)" fill="#4dba80" opacity="0.1"/>
    <path id="Caminho_712" data-name="Caminho 712" d="M218.09,110.717V148.41h59.064V110.717Zm0,38.859v32.371c.338.068.67.136,1.005.193.45.087.9.166,1.362.234l.272.038c.18.03.362.055.545.076.455.065.91.114,1.362.158.213.022.433.038.649.057l.526.038h0c.286.022.57.038.853.049.174,0,.349.014.526.019s.272,0,.414,0h1.515c.234,0,.469,0,.7-.022h.014a4.167,4.167,0,0,0,.488-.019,1.193,1.193,0,0,0,.139,0,3.281,3.281,0,0,0,.4-.016.576.576,0,0,1,.093,0c.3-.019.608-.044.916-.071s.6-.06.907-.093l.619-.076a54.261,54.261,0,0,0,7.48-1.591c5.512-1.537,10.9-3.687,16.409-5.259,7.117-2.03,14.987-3.03,21.864-.559V149.577Zm59.064-80.828V18.568a75.9,75.9,0,0,0-19.188,2.248c-14.957,3.758-28.388,11.908-39.876,22.317V68.746h2.973V69.91H218.09v39.641h59.064V69.91h-43.93V68.743ZM353.036,51.8a24.451,24.451,0,0,1-10.709-3.112c-6.36-3.458-11.444-8.8-17.123-13.311a78.62,78.62,0,0,0-41.443-16.469V68.749h84.31l.21-.221Zm7.681-1.362,8.145,8.94V48.083a32.608,32.608,0,0,0-8.145,2.341Zm8.145,139.551v-40.41H351.494c-.044-.172-.093-.346-.147-.52.052.174.1.349.144.52H283.762V178.8c.643.477,1.278.981,1.907,1.488h0q1.019.834,2.025,1.687l.676.559c.324.272.654.545.981.8q.984.793,1.981,1.57.5.392,1,.771a136.8,136.8,0,0,0,16.8,10.984c1.313.733,2.64,1.439,3.976,2.128q1.332.687,2.684,1.346,2.027.989,4.087,1.907h0a150.03,150.03,0,0,0,39.783,11.586q4.572.673,9.186,1.063V189.981h.273ZM283.762,69.91v39.641h85.1V69.91Zm0,40.8v37.7h85.1V110.717Zm91.705-62.683V60.645L385.86,49.236Q380.694,48.383,375.467,48.029Zm0,62.688V148.41h82.768V110.717Zm82.476,82.258.292-43.4H375.467v65.552a149.135,149.135,0,0,0,15.995-.193h.093q3.815-.245,7.594-.7h.057a139.648,139.648,0,0,0,39.028-10.425m35.968-86.9q-.471-1.09-.967-2.18c-.616-1.362-1.264-2.687-1.935-4.008h-6.458v37.69h16.325C481.154,137.734,478.451,126.835,474.2,116.908Zm-9.36,32.668v37.331a53.418,53.418,0,0,0,11.281-15.216,52.371,52.371,0,0,0,5.033-22.118Zm0-49.843v9.81H470.7a106.582,106.582,0,0,0-5.853-9.81ZM408.711,55.427c-.43-.166-.864-.332-1.3-.49a117.755,117.755,0,0,0-13.979-4.2L377.527,68.19h0l-.311.335.2.221h56.617a120.957,120.957,0,0,0-25.328-13.319ZM435.7,69.91H376.628l-1.161,1.06v38.581h82.768V90.858A117.849,117.849,0,0,0,435.7,69.91Z" transform="translate(-162.653 -18.56)" fill="#4dba80" opacity="0.1"/>
    <path id="Caminho_713" data-name="Caminho 713" d="M120.255,280.39v19.644H92.69c0-.114.016-.232.027-.346.025-.313.049-.624.076-.937.027-.365.063-.73.1-1.09s.071-.8.114-1.191.079-.8.123-1.191.087-.79.136-1.183.093-.79.147-1.183c.041-.324.082-.651.128-.978.063-.46.128-.921.2-1.379a1.313,1.313,0,0,1,.033-.207A95.079,95.079,0,0,1,95.8,280.4Z" transform="translate(-71.423 -209.043)" fill="#4dba80" opacity="0.1"/>
    <path id="Caminho_714" data-name="Caminho 714" d="M90.842,356.76h27.652v37.693H92.864c-.065.39-.131.777-.2,1.166h25.834v30.393a.39.39,0,0,1-.128-.049q-1.09-.433-2.18-.918c-.155-.071-.308-.144-.466-.213q-1.09-.515-2.18-1.09c-.253-.134-.507-.272-.755-.414a45.351,45.351,0,0,1-10.872-8.463c-.1-.09-.183-.188-.272-.272-.441-.48-.875-.965-1.294-1.46-.158-.183-.311-.368-.466-.545-.5-.6-.976-1.232-1.439-1.861-.071-.1-.136-.188-.2-.272a40.252,40.252,0,0,1-4.687-8.474c-.038-.09-.074-.188-.109-.272-.376-.954-.717-1.921-1.011-2.908-.125-.411-.248-.817-.352-1.245-.038-.123-.068-.248-.1-.371-1.531-6.036-1.708-12.308-1.708-18.551v-2.18q.033-3.823.09-7.638.022-.981.041-1.97.057-2.5.163-5.019c.016-.463.038-.929.063-1.39q.016-.4.041-.8Q90.741,358.188,90.842,356.76Z" transform="translate(-69.662 -264.603)" fill="#4dba80" opacity="0.1"/>
    <path id="Caminho_715" data-name="Caminho 715" d="M222.923,178.579v33.963H202.13V178.579h2.965v-11.5h12.169v11.5Z" transform="translate(-146.696 -121.551)" fill="#4dba80" opacity="0.1"/>
    <rect id="Retângulo_307" data-name="Retângulo 307" width="20.791" height="37.693" transform="translate(55.434 92.155)" fill="#4dba80" opacity="0.1"/>
    <path id="Caminho_716" data-name="Caminho 716" d="M218.09,499.37h20.791v31.336a53.868,53.868,0,0,1-7.48,1.589c-.207.03-.411.054-.619.076-.305.036-.608.068-.91.1l-.913.073h-.093l-.4.022h-.139c-.163,0-.324.019-.488.022h-.014c-.234,0-.466.016-.7.022h-1.929a4.3,4.3,0,0,1-.529-.022q-.42-.016-.85-.049h0l-.526-.038c-.218-.016-.436-.038-.651-.06q-.687-.06-1.362-.155l-.545-.076-.272-.038c-.455-.068-.907-.144-1.362-.232-.338-.06-.67-.128-1.005-.2Z" transform="translate(-162.653 -368.353)" fill="#4dba80" opacity="0.1"/>
    <rect id="Retângulo_308" data-name="Retângulo 308" width="17.145" height="37.971" transform="translate(189.062 53.017)" fill="#4dba80" opacity="0.1"/>
    <path id="Caminho_717" data-name="Caminho 717" d="M528.25,338.19v37.7h-85.1V359.626h45.328v9.592H511.1V338.19Z" transform="translate(-322.041 -246.035)" fill="#4dba80" opacity="0.1"/>
    <path id="Caminho_718" data-name="Caminho 718" d="M544.47,538.4a1.534,1.534,0,0,1-.272-.016V563.11q-4.608-.379-9.183-1.06a150.234,150.234,0,0,1-39.8-11.581q-5.485-2.474-10.747-5.393a137.325,137.325,0,0,1-16.793-10.984q-2.011-1.537-3.962-3.142c-.9-.747-1.8-1.51-2.706-2.248-.627-.509-1.262-1.014-1.907-1.493V497.98h67.729c-.049-.174-.093-.346-.142-.521.052.174.1.346.144.521H544.2v40.4C544.29,538.382,544.38,538.39,544.47,538.4Z" transform="translate(-337.991 -366.964)" fill="#4dba80" opacity="0.1"/>
    <path id="Caminho_719" data-name="Caminho 719" d="M905.682,165.862H894.51v-3.471h5.006V152.05q.651.24,1.3.49v9.85h4.867Z" transform="translate(-654.758 -115.673)" fill="#4dba80" opacity="0.1"/>
    <path id="Caminho_720" data-name="Caminho 720" d="M860.679,246.641H805.827a.035.035,0,0,0,.016,0H795.65V208.67h2.883v28.066H811.7V220.115h10.886V207h11.172v13.123h10.88v16.622h16.038Z" transform="translate(-582.836 -155.65)" fill="#4dba80" opacity="0.1"/>
    <path id="Caminho_721" data-name="Caminho 721" d="M795.65,356.76v37.693h65.032V356.76Zm82.675,82.059.093-29.837H860.682V395.63H795.65v65.541a149.122,149.122,0,0,0,15.995-.193h.093q3.815-.245,7.594-.7h.057a139.648,139.648,0,0,0,39.028-10.425" transform="translate(-582.836 -264.603)" fill="#4dba80" opacity="0.1"/>
    <path id="Caminho_722" data-name="Caminho 722" d="M1124.794,499.37h15.169a52.4,52.4,0,0,1-5.033,22.115A53.394,53.394,0,0,1,1123.65,536.7V512.724h1.145Z" transform="translate(-821.46 -368.353)" fill="#4dba80" opacity="0.1"/>
    <path id="Caminho_723" data-name="Caminho 723" d="M1143.03,410.982h-15.18v-31.5h8.215C1140.313,389.407,1143.017,400.306,1143.03,410.982Z" transform="translate(-824.516 -281.132)" fill="#4dba80" opacity="0.1"/>
    <rect id="Retângulo_309" data-name="Retângulo 309" width="9.186" height="11.905" transform="translate(197.024 63.573)" fill="#4dba80" opacity="0.1"/>
    <rect id="Retângulo_310" data-name="Retângulo 310" width="9.186" height="2.741" transform="translate(197.024 88.25)" fill="#4dba80" opacity="0.1"/>
    <rect id="Retângulo_311" data-name="Retângulo 311" width="9.186" height="7.997" transform="translate(197.024 92.155)" fill="#4dba80" opacity="0.1"/>
    <rect id="Retângulo_312" data-name="Retângulo 312" width="9.186" height="11.905" transform="translate(197.024 112.926)" fill="#4dba80" opacity="0.1"/>
    <rect id="Retângulo_313" data-name="Retângulo 313" width="9.186" height="11.905" transform="translate(197.024 137.603)" fill="#4dba80" opacity="0.1"/>
    <path id="Caminho_724" data-name="Caminho 724" d="M746.885,623.236a1.322,1.322,0,0,1,.272.019,1.538,1.538,0,0,1-.272-.016V626H737.7V614.1h9.186Z" transform="translate(-540.676 -451.821)" fill="#4dba80" opacity="0.1"/>
    <path id="Caminho_725" data-name="Caminho 725" d="M746.885,704.65v9.194q-4.611-.379-9.186-1.06V704.65Z" transform="translate(-540.676 -517.697)" fill="#4dba80" opacity="0.1"/>
    <rect id="Retângulo_314" data-name="Retângulo 314" width="39.366" height="0.875" transform="translate(121.109 128.976)" fill="#4dba80" opacity="0.1"/>
    <rect id="Retângulo_315" data-name="Retângulo 315" width="39.366" height="3.352" transform="translate(121.109 131.014)" fill="#4dba80" opacity="0.1"/>
    <rect id="Retângulo_316" data-name="Retângulo 316" width="39.366" height="5.39" transform="translate(121.109 145.352)" fill="#4dba80" opacity="0.1"/>
    <path id="Caminho_726" data-name="Caminho 726" d="M503.559,612.08v5.39H472.768q-2.011-1.531-3.962-3.145c-.9-.744-1.8-1.507-2.706-2.245Z" transform="translate(-343.084 -450.352)" fill="#4dba80" opacity="0.1"/>
    <path id="Caminho_727" data-name="Caminho 727" d="M566.2,672.17v5.4h-3.251q-5.485-2.474-10.747-5.393Z" transform="translate(-405.723 -494.068)" fill="#4dba80" opacity="0.1"/>
    <rect id="Retângulo_317" data-name="Retângulo 317" width="7.75" height="7.75" transform="translate(228.809 95.809)" fill="#4dba80" opacity="0.1"/>
    <rect id="Retângulo_318" data-name="Retângulo 318" width="7.75" height="7.75" transform="translate(61.017 59.701)" fill="#4dba80" opacity="0.1"/>
    <rect id="Retângulo_319" data-name="Retângulo 319" width="7.75" height="7.75" transform="translate(61.017 77.702)" fill="#4dba80" opacity="0.1"/>
    <rect id="Retângulo_320" data-name="Retângulo 320" width="7.75" height="7.75" transform="translate(61.017 95.702)" fill="#4dba80" opacity="0.1"/>
    <rect id="Retângulo_321" data-name="Retângulo 321" width="7.75" height="7.75" transform="translate(61.017 113.7)" fill="#4dba80" opacity="0.1"/>
    <rect id="Retângulo_322" data-name="Retângulo 322" width="7.75" height="7.75" transform="translate(61.017 131.701)" fill="#4dba80" opacity="0.1"/>
    <rect id="Retângulo_323" data-name="Retângulo 323" width="7.75" height="7.75" transform="translate(61.017 149.701)" fill="#4dba80" opacity="0.1"/>
    <rect id="Retângulo_324" data-name="Retângulo 324" width="7.75" height="7.75" transform="translate(258.393 95.809)" fill="#4dba80" opacity="0.1"/>
    <rect id="Retângulo_325" data-name="Retângulo 325" width="7.75" height="7.75" transform="translate(228.809 114.924)" fill="#4dba80" opacity="0.1"/>
    <rect id="Retângulo_326" data-name="Retângulo 326" width="7.75" height="7.75" transform="translate(258.393 114.924)" fill="#4dba80" opacity="0.1"/>
    <rect id="Retângulo_327" data-name="Retângulo 327" width="7.75" height="7.75" transform="translate(228.809 134.036)" fill="#4dba80" opacity="0.1"/>
    <rect id="Retângulo_328" data-name="Retângulo 328" width="7.75" height="7.75" transform="translate(258.393 134.036)" fill="#4dba80" opacity="0.1"/>
    <rect id="Retângulo_329" data-name="Retângulo 329" width="7.75" height="7.75" transform="translate(228.809 153.151)" fill="#4dba80" opacity="0.1"/>
    <rect id="Retângulo_330" data-name="Retângulo 330" width="7.75" height="7.75" transform="translate(258.393 153.151)" fill="#4dba80" opacity="0.1"/>
    <rect id="Retângulo_331" data-name="Retângulo 331" width="7.75" height="7.75" transform="translate(228.809 172.266)" fill="#4dba80" opacity="0.1"/>
    <rect id="Retângulo_332" data-name="Retângulo 332" width="7.75" height="7.75" transform="translate(258.393 172.266)" fill="#4dba80" opacity="0.1"/>
    <path id="Caminho_728" data-name="Caminho 728" d="M838.4,707.327v-5h7.747v4.286Z" transform="translate(-609.591 -510.952)" fill="#4dba80" opacity="0.1"/>
    <path id="Caminho_729" data-name="Caminho 729" d="M96.53,316.91v4.433h26.518V316.91Zm2.64,4.155h-2.18v-3.875h2.18Zm2.64,0h-2.18v-3.875h2.18Zm2.635,0h-2.18v-3.875h2.18Zm2.64,0h-2.18v-3.875h2.18Zm2.638,0h-2.18v-3.875h2.18Zm2.64,0h-2.18v-3.875h2.18Zm2.64,0h-2.18v-3.875H115Zm2.638,0h-2.18v-3.875h2.18Zm2.638,0H118.1v-3.875h2.18Zm2.64,0h-2.18v-3.875h2.18Z" transform="translate(-74.217 -235.611)" fill="#4dba80" opacity="0.1"/>
    <path id="Caminho_730" data-name="Caminho 730" d="M96.53,364.27V368.7h26.518V364.27Zm2.64,4.155h-2.18v-3.875h2.18Zm2.64,0h-2.18v-3.875h2.18Zm2.635,0h-2.18v-3.875h2.18Zm2.64,0h-2.18v-3.875h2.18Zm2.638,0h-2.18v-3.875h2.18Zm2.64,0h-2.18v-3.875h2.18Zm2.64,0h-2.18v-3.875H115Zm2.638,0h-2.18v-3.875h2.18Zm2.638,0H118.1v-3.875h2.18Zm2.64,0h-2.18v-3.875h2.18Z" transform="translate(-74.217 -270.066)" fill="#4dba80" opacity="0.1"/>
    <path id="Caminho_731" data-name="Caminho 731" d="M96.53,411.64v4.431h26.518V411.64Zm2.64,4.15h-2.18v-3.875h2.18Zm2.64,0h-2.18v-3.875h2.18Zm2.635,0h-2.18v-3.875h2.18Zm2.64,0h-2.18v-3.875h2.18Zm2.638,0h-2.18v-3.875h2.18Zm2.64,0h-2.18v-3.875h2.18Zm2.64,0h-2.18v-3.875H115Zm2.638,0h-2.18v-3.875h2.18Zm2.638,0H118.1v-3.875h2.18Zm2.64,0h-2.18v-3.875h2.18Z" transform="translate(-74.217 -304.529)" fill="#4dba80" opacity="0.1"/>
    <path id="Caminho_732" data-name="Caminho 732" d="M96.53,459v4.431h26.518V459Zm2.64,4.153h-2.18v-3.88h2.18Zm2.64,0h-2.18v-3.88h2.18Zm2.635,0h-2.18v-3.88h2.18Zm2.64,0h-2.18v-3.88h2.18Zm2.638,0h-2.18v-3.88h2.18Zm2.64,0h-2.18v-3.88h2.18Zm2.64,0h-2.18v-3.88H115Zm2.638,0h-2.18v-3.88h2.18Zm2.638,0H118.1v-3.88h2.18Zm2.64,0h-2.18v-3.88h2.18Z" transform="translate(-74.217 -338.984)" fill="#4dba80" opacity="0.1"/>
    <path id="Caminho_733" data-name="Caminho 733" d="M97,506.34c.1.42.226.834.352,1.245v-.965h2.18v3.872H98.362c.033.093.068.188.106.272H123.4V506.34Zm5.177,4.153H100v-3.872h2.18Zm2.635,0h-2.18v-3.872h2.18Zm2.64,0h-2.18v-3.872h2.18Zm2.638,0h-2.18v-3.872h2.18Zm2.64,0h-2.18v-3.872h2.18Zm2.64,0h-2.18v-3.872h2.18Zm2.638,0h-2.18v-3.872h2.18Zm2.638,0h-2.18v-3.872h2.18Zm2.64,0h-2.18v-3.872h2.18Z" transform="translate(-74.558 -373.424)" fill="#4dba80" opacity="0.1"/>
    <path id="Caminho_734" data-name="Caminho 734" d="M119.54,553.7c.071.087.136.185.2.273h1.441v1.861l.466.545v-2.417h2.18v3.907h-.9c.087.09.172.185.272.272h16.575V553.7Zm6.938,4.169H124.3v-3.891h2.18Zm2.64,0h-2.18v-3.891h2.18Zm2.64,0h-2.18v-3.891h2.18Zm2.638,0h-2.18v-3.891h2.18Zm2.638,0h-2.18v-3.891h2.18Zm2.64,0h-2.18v-3.891h2.18Z" transform="translate(-90.957 -407.879)" fill="#4dba80" opacity="0.1"/>
    <path id="Caminho_735" data-name="Caminho 735" d="M172.93,601.06c.251.142.5.273.758.411v-.136h2.18v1.229c.158.068.308.142.463.213v-1.441h2.18v2.36a.889.889,0,0,0,.128.046V601.06Z" transform="translate(-129.799 -442.334)" fill="#4dba80" opacity="0.1"/>
    <path id="Caminho_736" data-name="Caminho 736" d="M393.582,243.528ZM376.8,323.952Zm-17.513-40.919c.052.174.1.349.144.521h0C359.388,283.381,359.339,283.207,359.284,283.033Zm34.3-39.505ZM229,202.725v1.161h12.172V202.72ZM376.8,323.952Zm-17.515-40.919c.052.174.1.349.144.521h0C359.388,283.381,359.339,283.207,359.284,283.033Zm34.3-39.505ZM376.8,323.952Zm-17.513-40.919c.052.174.1.349.144.521h0C359.388,283.381,359.339,283.207,359.284,283.033Z" transform="translate(-170.59 -152.537)" fill="#4dba80" opacity="0.1"/>
    <ellipse id="Elipse_4335" data-name="Elipse 4335" cx="26.551" cy="4.264" rx="26.551" ry="4.264" transform="translate(213.438 226.594)" fill="#4dba80" opacity="0.1"/>
    <ellipse id="Elipse_4336" data-name="Elipse 4336" cx="26.551" cy="4.264" rx="26.551" ry="4.264" transform="translate(93.691 222.33)" fill="#4dba80" opacity="0.1"/>
    <path id="Caminho_737" data-name="Caminho 737" d="M441.694,319.989a.145.145,0,0,0-.041-.071c-.406-.4-5.583-7.722-5.583-7.722s-.273-.817-.714-1.88a1.869,1.869,0,0,0,.313-.613,2.108,2.108,0,0,0,.052-.286c0-.03.022-.054.03-.084a2.069,2.069,0,0,0-.027-1.123,1.95,1.95,0,0,1-.112.273,4.559,4.559,0,0,0-.409-.91c-.687-1.183-1.668-2.18-2.39-3.332a9.016,9.016,0,0,1-1.229-5.984c0,.106,0,.215,0,.321a9.32,9.32,0,0,1,.163-1.226,8.507,8.507,0,0,1,.455-1.346c.648-1.485,1.7-2.779,2.335-4.27a8.1,8.1,0,0,0,.485-1.561,8.749,8.749,0,0,0,.242-2.738,4.36,4.36,0,0,1-.068.651,8.87,8.87,0,0,0-2.5-5.9c-2.226-2.237-5.422-3.106-8.48-3.564a7.768,7.768,0,0,1-3.57-1.362,6.205,6.205,0,0,0-4.065-.777,6.706,6.706,0,0,0-4.139,2.046c-1.452,1.6-2.082,3.858-3.777,5.2a16.767,16.767,0,0,1-3.526,1.755,4.72,4.72,0,0,0-2.711,2.556v.044l-.016.044c-.4,1.411.371,2.847.771,4.256a17.248,17.248,0,0,1,.466,4.5c.03,1.842.057,3.687.027,5.531-.014.725-.038,1.458-.093,2.18a11.427,11.427,0,0,0-1.872.752,37.07,37.07,0,0,0-2.894,2.864l-4.466,17.063.06.068-.06.232.226-.052a22.992,22.992,0,0,0,4.559,3.831l.191,3.346a5.948,5.948,0,0,0,3.316,4.744c.071,1.164.292,5.888-.73,7.76a8.72,8.72,0,0,0-.965,4.436,15.086,15.086,0,0,1-.049,4.333,7.084,7.084,0,0,0-.052,3.041h0v.9c0,3.022.035,12.706,0,13.8-.052,1.294,0,20.436,0,20.436s-.253,9.567-1.065,12.158-.608,11.172-.608,11.172-.51,10.221,1.292,12.237c0,.09-.016.183-.019.273v.128c-.022.777.128,1.6.8,1.856a11.4,11.4,0,0,1,3.5,2.542,6.358,6.358,0,0,0,4.9,1.27,36.938,36.938,0,0,1,4.875-.223h0s1.019-.185.689-1.452h0a11.344,11.344,0,0,0-1.575-2.8c.1.027.2.049.3.068l.1.019h.076a1.035,1.035,0,0,0,.125,0h.055a.937.937,0,0,0,.153,0h0a6.838,6.838,0,0,1,3.689,1.907c.455.785,2.06,1.382,3.27,1.531a23.23,23.23,0,0,0,4.057-.256,14.93,14.93,0,0,0,2.273-.414c.36-.136.436-.572.332-1.063h0a2.766,2.766,0,0,0-.943-1.591,7.653,7.653,0,0,1-1.455-1.815l-.114-.183c.76-.725,2.134-3.1,2.55-3.586.507-.6-.817-22.42-.817-22.42v-10.94l2.03-10.355,1.42-5.48,1.218-8.273s2.131-9.662,1.474-10.611h0c0-.019-.545-9.968-1.117-12.357a27.1,27.1,0,0,1-.038-5.8,1.144,1.144,0,0,0,.272-1.193,2.475,2.475,0,0,0-.158-.406v-.125a18.763,18.763,0,0,1,3.67-1.248c2.03-.4,1.523-1.444,1.523-1.444s.458-.9.76-1.444.052-5.382,0-5.779c-.019-.161-.144-1.049-.289-2.057.651-.463,1.5-1.038,2.422-1.583C442.234,321.374,441.839,320.276,441.694,319.989Zm-26.486,69.084s-1.523,3.886-.913,4.88-.1,4.687-.1,4.687l-.51,5.48s-1.42,10.164-.913,12.553a85.012,85.012,0,0,1,.591,9.81h0a.69.69,0,0,0-.1.049l-.068.035c.234-.918.136-2.777-1.027-6.515l-.1-15.442s-.18-17.837,1.229-19.832a15.012,15.012,0,0,0,1.907-5.382s-.305,4.886-.5,6.18A10.189,10.189,0,0,0,415.209,389.073Zm-2.837,38.382c-.014.033-.03.065-.041.1l-.076-.1a.8.8,0,0,0,.117,0Z" transform="translate(-290.885 -206.156)" fill="url(#linear-gradient)"/>
    <path id="Caminho_738" data-name="Caminho 738" d="M476.544,837.117a27.053,27.053,0,0,1-6.251.673c-1.194-.145-2.774-.749-3.224-1.54a6.622,6.622,0,0,0-3.646-1.907,2.454,2.454,0,0,1-.817-.114,10.088,10.088,0,0,1-1.362-.523,2.53,2.53,0,0,1,.03-1.035,1.671,1.671,0,0,1,.06-.2,1.8,1.8,0,0,1,.916-1.019l.1-.046a2.772,2.772,0,0,1,.589-.18c2.142-.411,10.979.414,10.979.414s.248.444.589.995a7.607,7.607,0,0,0,1.439,1.826,2.793,2.793,0,0,1,.929,1.6C476.975,836.542,476.9,836.984,476.544,837.117Z" transform="translate(-339.522 -609.697)" fill="#fff"/>
    <path id="Caminho_739" data-name="Caminho 739" d="M476.553,839.155a27.022,27.022,0,0,1-6.248.673c-1.193-.144-2.774-.752-3.226-1.539a6.641,6.641,0,0,0-3.643-1.907,6.313,6.313,0,0,1-2.18-.638,2.259,2.259,0,0,1,.447-1.834l1.362.967s3.646,1.131,4.322,2.18a4.39,4.39,0,0,0,3.687,1.741,34.5,34.5,0,0,0,5.815-.689C476.984,838.58,476.91,839.022,476.553,839.155Z" transform="translate(-339.531 -611.736)" opacity="0.1"/>
    <path id="Caminho_740" data-name="Caminho 740" d="M432.481,838.77a36.275,36.275,0,0,0-4.812.226,6.2,6.2,0,0,1-4.853-1.278,11.368,11.368,0,0,0-3.458-2.562c-.662-.256-.817-1.09-.787-1.869v-.128a7.626,7.626,0,0,1,.218-1.463l10.6-.226.918,1.245.142.191.559.76s.253.333.586.818a11.631,11.631,0,0,1,1.556,2.823h0C433.487,838.585,432.481,838.77,432.481,838.77Z" transform="translate(-308.503 -609.96)" fill="#fff"/>
    <path id="Caminho_741" data-name="Caminho 741" d="M432.481,843.637a36.275,36.275,0,0,0-4.812.226,6.187,6.187,0,0,1-4.85-1.278,11.051,11.051,0,0,0-3.461-2.556c-.662-.256-.817-1.09-.787-1.869a6.049,6.049,0,0,1,2.973,1.417c.817,1.052,2.281,2.82,4.36,2.932,1.679.09,5.766-.21,7.265-.33C433.489,843.452,432.481,843.637,432.481,843.637Z" transform="translate(-308.503 -614.828)" opacity="0.1"/>
    <path id="Caminho_742" data-name="Caminho 742" d="M431.192,831.687c-.123.91-.5,1.155-.774,1.21a.523.523,0,0,1-.2,0,.678.678,0,0,1-.106-.016s-9.521,2.1-11.444.4a1.328,1.328,0,0,1-.136-.142,7.632,7.632,0,0,1,.218-1.463l10.6-.226.918,1.245a1.8,1.8,0,0,1,.916-1.019Z" transform="translate(-308.476 -609.946)" opacity="0.1"/>
    <path id="Caminho_743" data-name="Caminho 743" d="M477.524,832.555c-.213.234-.39.368-.5.322-.5-.2-4.61-.9-5.916-.3s-5.722.1-5.722.1,0-.523-.025-1.362a2.772,2.772,0,0,1,.589-.18c2.142-.412,10.979.414,10.979.414S477.186,832.005,477.524,832.555Z" transform="translate(-342.545 -609.632)" opacity="0.1"/>
    <path id="Caminho_744" data-name="Caminho 744" d="M446.182,572.964l-1.2,8.322-1.4,5.515-2.006,10.425v11.036s1.3,21.957.8,22.556-2.406,4.014-2.907,3.815-4.611-.9-5.916-.3-5.722.1-5.722.1-.1-8.521-.6-10.927.9-12.632.9-12.632l.5-5.512s.7-3.711.1-4.714.9-4.9.9-4.9a10.264,10.264,0,0,1-.5-3.512c.2-1.3.5-6.215.5-6.215a15.324,15.324,0,0,1-1.891,5.414c-1.392,2-1.215,19.952-1.215,19.952l.1,15.532c2.51,8.224,0,7.42,0,7.42s-9.521,2.106-11.444.4-1.373-12.442-1.373-12.442-.2-8.621.6-11.226,1.055-12.232,1.055-12.232-.052-19.251,0-20.551c.038-1.09,0-10.848,0-13.9v-.9l1.15-2.856,13.624-1.706h6.518s9.81,2.305,10.823,3.3a.226.226,0,0,1,.054.06C448.288,563.242,446.182,572.964,446.182,572.964Z" transform="translate(-304.986 -411.677)" fill="#4dba80"/>
    <path id="Caminho_745" data-name="Caminho 745" d="M472.11,770.88s3,7.218,4.412,7.72S472.11,770.88,472.11,770.88Z" transform="translate(-347.456 -565.881)" opacity="0.1"/>
    <path id="Caminho_746" data-name="Caminho 746" d="M476.18,809.88s10.12.5,10.019,1.6S476.18,809.88,476.18,809.88Z" transform="translate(-350.417 -594.253)" opacity="0.1"/>
    <path id="Caminho_747" data-name="Caminho 747" d="M426.49,799.29c.4.379,7.72,1.09,7.117,1.782s-6.515,2.038-6.515,2.038Z" transform="translate(-314.267 -586.549)" opacity="0.1"/>
    <path id="Caminho_748" data-name="Caminho 748" d="M422.08,753.59c0,.3,1.5,9.624,1.907,10.025s3.709.8,3.709.8Z" transform="translate(-311.059 -553.302)" opacity="0.1"/>
    <path id="Caminho_749" data-name="Caminho 749" d="M434.106,280.181c-1.436,1.6-2.057,3.88-3.73,5.237a16.544,16.544,0,0,1-3.485,1.763,4.632,4.632,0,0,0-2.706,2.662c-.392,1.417.365,2.864.763,4.281a17.718,17.718,0,0,1,.461,4.531c.027,1.856.057,3.711.025,5.567-.049,2.891-.289,5.916-1.823,8.365,5.54,1.763,11.431,2,17.24,2.229a17.394,17.394,0,0,0,3.349-.084,28.711,28.711,0,0,0,2.853-.722,21.877,21.877,0,0,1,5.684-.728,9.544,9.544,0,0,0,2.5-.166,2.463,2.463,0,0,0,1.8-1.583,2.941,2.941,0,0,0-.461-2.147c-.676-1.188-1.635-2.18-2.36-3.352a9.21,9.21,0,0,1-.591-8.281c.643-1.5,1.679-2.8,2.311-4.3a9.063,9.063,0,0,0-1.826-9.613c-2.2-2.251-5.354-3.123-8.374-3.586a7.606,7.606,0,0,1-3.526-1.362,6.035,6.035,0,0,0-4.016-.779A6.556,6.556,0,0,0,434.106,280.181Z" transform="translate(-312.172 -207.346)" fill="#3f3d56"/>
    <g id="Grupo_109" data-name="Grupo 109" transform="translate(111.547 81.789)" opacity="0.1">
      <path id="Caminho_750" data-name="Caminho 750" d="M532.147,325.757a9.065,9.065,0,0,0-.695,4.161,8.91,8.91,0,0,1,.695-2.954c.64-1.5,1.676-2.8,2.308-4.3a8.7,8.7,0,0,0,.635-3.957,8.479,8.479,0,0,1-.635,2.752C533.823,322.961,532.787,324.261,532.147,325.757Z" transform="translate(-502.16 -318.71)"/>
      <path id="Caminho_751" data-name="Caminho 751" d="M426.963,329.453c.016,1.068.033,2.139.035,3.207q0-2.207-.035-4.409a17.686,17.686,0,0,0-.46-4.534,22.448,22.448,0,0,1-.818-2.818c-.243,1.335.447,2.689.818,4.022A17.6,17.6,0,0,1,426.963,329.453Z" transform="translate(-425.192 -320.303)"/>
      <path id="Caminho_752" data-name="Caminho 752" d="M455.616,396.94a9.212,9.212,0,0,1-2.493.166,21.859,21.859,0,0,0-5.681.714,28.931,28.931,0,0,1-2.853.719,17.217,17.217,0,0,1-3.352.087c-5.613-.221-11.305-.458-16.682-2.063a9.24,9.24,0,0,1-.545,1.035c5.54,1.76,11.431,2,17.237,2.229a17.209,17.209,0,0,0,3.352-.087,28.16,28.16,0,0,0,2.842-.717,21.858,21.858,0,0,1,5.67-.722,9.408,9.408,0,0,0,2.493-.169,2.465,2.465,0,0,0,1.8-1.58,2.164,2.164,0,0,0-.027-1.134A2.544,2.544,0,0,1,455.616,396.94Z" transform="translate(-424.01 -374.518)"/>
    </g>
    <path id="Caminho_753" data-name="Caminho 753" d="M460.587,346.343c-.2.452-1.052,4.36-1.253,4.76s-1.3,6.812-1.4,7.172-7.256-1.5-7.256-1.5l-4.308-3.61-4.428-4.406s-.131-3.976,3.131-5.251a4.977,4.977,0,0,1,.681-.213c3.956-.951,3.559-12.981,3.559-12.981l8.12,3.507a84.129,84.129,0,0,0-1.452,8.374c.014.455.371.738.837.91a6.614,6.614,0,0,0,2.218.24S460.789,345.893,460.587,346.343Z" transform="translate(-325.505 -245.36)" fill="#fbbebe"/>
    <path id="Caminho_754" data-name="Caminho 754" d="M535.088,435.929l1.153.3s.853,1.3-1.153,2.5a34.729,34.729,0,0,0-3.659,2.559l-5.927,1.8-1.142-3.583,5.515-4.185Z" transform="translate(-385.469 -321.763)" fill="#4dba80"/>
    <path id="Caminho_755" data-name="Caminho 755" d="M535.088,435.929l1.153.3s.853,1.3-1.153,2.5a34.729,34.729,0,0,0-3.659,2.559l-5.927,1.8-1.142-3.583,5.515-4.185Z" transform="translate(-385.469 -321.763)" opacity="0.1"/>
    <path id="Caminho_756" data-name="Caminho 756" d="M398.845,448.491l-2.305,2.256s4.158,4.812,7.357,5.112,5.262-3.659,5.262-3.659l-2.768-4.36Z" transform="translate(-292.478 -330.865)" fill="#4dba80"/>
    <path id="Caminho_757" data-name="Caminho 757" d="M398.845,448.491l-2.305,2.256s4.158,4.812,7.357,5.112,5.262-3.659,5.262-3.659l-2.768-4.36Z" transform="translate(-292.478 -330.865)" opacity="0.1"/>
    <circle id="Elipse_4337" data-name="Elipse 4337" cx="8.019" cy="8.019" r="8.019" transform="translate(120.245 76.773)" opacity="0.1"/>
    <circle id="Elipse_4338" data-name="Elipse 4338" cx="8.019" cy="8.019" r="8.019" transform="translate(120.245 76.17)" fill="#fbbebe"/>
    <path id="Caminho_758" data-name="Caminho 758" d="M452.248,563.212a25.891,25.891,0,0,0-5.365,1.2c-3,1-26.486.016-26.813,0v-.9l1.15-2.856,13.624-1.706h6.518s9.81,2.305,10.823,3.3C452.226,562.849,452.248,563.212,452.248,563.212Z" transform="translate(-309.596 -411.699)" opacity="0.1"/>
    <path id="Caminho_759" data-name="Caminho 759" d="M460.587,380.493c-.2.452-1.052,4.36-1.253,4.76s-1.3,6.812-1.4,7.172-7.256-1.5-7.256-1.5l-4.308-3.61-4.428-4.406s-.131-3.976,3.131-5.251l8.1,9.311,3.646-9.714a6.614,6.614,0,0,0,2.218.24S460.789,380.043,460.587,380.493Z" transform="translate(-325.505 -279.509)" opacity="0.1"/>
    <path id="Caminho_760" data-name="Caminho 760" d="M431.889,386.151l-8.289-9.537a3.474,3.474,0,0,0-3.289-.243c-1.856.8-4.161,1.455-4.763,1.856a37.164,37.164,0,0,0-2.858,2.88l6.72,17.578-2.959,11.578s.452,5.916-.7,8.071a8.859,8.859,0,0,0-.954,4.461,15.494,15.494,0,0,1-.049,4.36,7.261,7.261,0,0,0-.052,3.057s23.813,1,26.818,0a25.655,25.655,0,0,1,5.365-1.2s-.545-10.028-1.09-12.434.452-11.578.452-11.578l-.651-9.826,3.908-10.082s-2.117-6.463-4.324-7.115a42.856,42.856,0,0,1-4.861-1.4,17.046,17.046,0,0,0-3.36-.853l-1.316.441Z" transform="translate(-304.227 -278.396)" fill="#4dba80"/>
    <rect id="Retângulo_333" data-name="Retângulo 333" width="19.085" height="29.205" rx="2.94" transform="translate(120.986 115.205) rotate(3.89)" opacity="0.1"/>
    <rect id="Retângulo_334" data-name="Retângulo 334" width="19.085" height="29.205" rx="2.94" transform="translate(121.587 114.606) rotate(3.89)" fill="#3f3d56"/>
    <rect id="Retângulo_335" data-name="Retângulo 335" width="16.627" height="25.129" transform="translate(122.664 116.878) rotate(3.89)" fill="#fff"/>
    <rect id="Retângulo_336" data-name="Retângulo 336" width="13.584" height="3.786" transform="translate(124.214 123.456) rotate(4.004)" opacity="0.1"/>
    <rect id="Retângulo_337" data-name="Retângulo 337" width="2.155" height="1.973" transform="translate(135.125 139.267) rotate(3.89)" opacity="0.1"/>
    <rect id="Retângulo_338" data-name="Retângulo 338" width="11.033" height="1.973" transform="translate(124.146 133.914) rotate(3.89)" opacity="0.1"/>
    <rect id="Retângulo_339" data-name="Retângulo 339" width="11.488" height="3.033" transform="translate(125.738 116.289) rotate(3.89)" fill="#3f3d56"/>
    <rect id="Retângulo_340" data-name="Retângulo 340" width="11.488" height="3.033" transform="translate(125.738 116.289) rotate(3.89)" opacity="0.1"/>
    <path id="Caminho_761" data-name="Caminho 761" d="M476.121,572.56s-.1,14.84-4.011,23.36c0,0,4.714-11.229,4.714-11.679s2.605-5.164,1.907-6.567S476.121,572.56,476.121,572.56Z" transform="translate(-347.456 -421.6)" opacity="0.1"/>
    <path id="Caminho_762" data-name="Caminho 762" d="M461.862,297.642a5.577,5.577,0,0,1,.907-3.736,4.6,4.6,0,0,0,3.559,4.85.6.6,0,0,1-.172-.659,20.173,20.173,0,0,0,1.618,1.937,2.151,2.151,0,0,0,2.324.493c1.011-.545,1.022-1.981.76-3.1a14.551,14.551,0,0,0-3.349-6.4A4.43,4.43,0,0,0,464,289.246a8.648,8.648,0,0,0-4.542.711,12.072,12.072,0,0,0-2.18,1.523l-3.815,3.112a3.62,3.62,0,0,0-.926.975,2.67,2.67,0,0,0-.289,1.022,5.507,5.507,0,0,0,2.567,5.2,4.063,4.063,0,0,1,2.433-3.815,1.057,1.057,0,0,1,.379.788l.8-1.433a1.578,1.578,0,0,1,.545-.646,1.423,1.423,0,0,1,1.537.433,2.743,2.743,0,0,0,1.4.924l.022-2.134" transform="translate(-332.984 -215.457)" opacity="0.1"/>
    <path id="Caminho_763" data-name="Caminho 763" d="M461.891,296.541a5.581,5.581,0,0,1,.907-3.738,4.6,4.6,0,0,0,3.561,4.85.6.6,0,0,1-.172-.657,20.5,20.5,0,0,0,1.619,1.937,2.14,2.14,0,0,0,2.324.491c1.011-.545,1.022-1.981.76-3.1a14.55,14.55,0,0,0-3.349-6.4,5.359,5.359,0,0,0-1.872-1.455,5.451,5.451,0,0,0-1.635-.332,8.647,8.647,0,0,0-4.542.708,12.223,12.223,0,0,0-2.18,1.526l-3.815,3.112a3.584,3.584,0,0,0-.926.976,2.657,2.657,0,0,0-.289,1.022,5.5,5.5,0,0,0,2.567,5.194,4.068,4.068,0,0,1,2.433-3.815,1.065,1.065,0,0,1,.379.787l.8-1.428a1.561,1.561,0,0,1,.545-.646,1.423,1.423,0,0,1,1.537.433,2.76,2.76,0,0,0,1.4.924l.022-2.136" transform="translate(-333.013 -214.656)" fill="#3f3d56"/>
    <path id="Caminho_764" data-name="Caminho 764" d="M436.918,463.309c-.7-.354-12.281,1.452-12.281,1.452a66.276,66.276,0,0,0-6.518-1.3,5.846,5.846,0,0,1-4.9-5.265l-.5-9.022,1.556-1.362,6.665,4.36a21.526,21.526,0,0,1,0,2.6,3.674,3.674,0,0,0-.223.817.273.273,0,0,0,.223.245c.452.114,6.616,1.112,6.616,1.112s14.286-.978,17.848,3.834a3.62,3.62,0,0,1,.629,1.188C446.907,465.257,437.553,463.622,436.918,463.309Z" transform="translate(-304.242 -330.843)" fill="#fbbebe"/>
    <path id="Caminho_765" data-name="Caminho 765" d="M466.819,482.809c-.545.243-.883.417-.883.417a33.206,33.206,0,0,1-7.984-1.191,18.755,18.755,0,0,0-6.363-.856s-11.968-2.06-10.112-4.749a.272.272,0,0,0,.223.245c.452.114,6.616,1.112,6.616,1.112s14.286-.978,17.848,3.834A3.617,3.617,0,0,1,466.819,482.809Z" transform="translate(-325.029 -351.664)" opacity="0.1"/>
    <path id="Caminho_766" data-name="Caminho 766" d="M471.813,441.58s.7,4.962.752,5.365.3,5.262,0,5.815-.752,1.452-.752,1.452.5,1.052-1.5,1.455a20.584,20.584,0,0,0-4.36,1.6s-5.115-.15-7.97-1.2a18.392,18.392,0,0,0-6.365-.853s-15.191-2.608-8.673-5.79a10.031,10.031,0,0,1,11.128,1.128l7.267-.45s2.709-1.657,3.461-1.5a2.783,2.783,0,0,0,1.553-.251l.052-5.264Z" transform="translate(-325.053 -326.31)" fill="#fbbebe"/>
    <path id="Caminho_767" data-name="Caminho 767" d="M402.344,396.676l-1.455-.076-4.409,17.167s4.76-1.2,6.812,0,5.815,1.452,5.815,1.452l-1.4-13.684Z" transform="translate(-292.434 -293.587)" opacity="0.1"/>
    <path id="Caminho_768" data-name="Caminho 768" d="M402.344,395.566l-1.455-.076-4.409,17.167s4.76-1.2,6.812,0,5.815,1.452,5.815,1.452l-1.4-13.684Z" transform="translate(-292.434 -292.779)" fill="#4dba80"/>
    <path id="Caminho_769" data-name="Caminho 769" d="M531.787,409.57l2,.452s5.115,7.357,5.515,7.769-1.907,1.907-2.858,1.907-5.613.545-6.967,1.8-.79-5.076-.79-5.221,1.681-4.142,1.681-4.142Z" transform="translate(-388.533 -303.023)" opacity="0.1"/>
    <path id="Caminho_770" data-name="Caminho 770" d="M531.787,408.47l2,.45s5.115,7.371,5.515,7.771-1.907,1.907-2.858,1.907-5.613.545-6.967,1.8-.79-5.076-.79-5.221,1.692-4.155,1.692-4.155Z" transform="translate(-388.533 -302.222)" fill="#4dba80"/>
    <g id="Grupo_110" data-name="Grupo 110" transform="translate(119.244 77.544)" opacity="0.1">
      <path id="Caminho_771" data-name="Caminho 771" d="M462.783,303.757a4.024,4.024,0,0,1,.014-.627,5.577,5.577,0,0,0-.839,2.057v.76c0,.441,0,.886-.014,1.327h-.038v.2a1.087,1.087,0,0,0-.014-.21,2.9,2.9,0,0,1-1.341-.91c-.406-.365-1.041-.714-1.537-.433a1.56,1.56,0,0,0-.545.646L457.661,308a1.054,1.054,0,0,0-.379-.785,4.063,4.063,0,0,0-2.433,3.815,5.537,5.537,0,0,1-2.586-4.341,5.51,5.51,0,0,0,2.586,4.94,4.068,4.068,0,0,1,2.433-3.815,1.066,1.066,0,0,1,.379.788l.8-1.428a1.561,1.561,0,0,1,.545-.646,1.423,1.423,0,0,1,1.537.433,2.76,2.76,0,0,0,1.4.924q0-1.046.022-2.087A5.548,5.548,0,0,1,462.783,303.757Z" transform="translate(-452.256 -303.13)"/>
      <path id="Caminho_772" data-name="Caminho 772" d="M487.494,312.037c.014-.185.035-.371.063-.545l.03-.752A5.512,5.512,0,0,0,487.494,312.037Z" transform="translate(-477.888 -308.666)"/>
      <path id="Caminho_773" data-name="Caminho 773" d="M507.227,320.948a2.145,2.145,0,0,1-2.324-.49,20.177,20.177,0,0,1-1.619-1.937.6.6,0,0,0,.172.659.646.646,0,0,1-.158-.041,18.016,18.016,0,0,0,1.6,1.907,2.163,2.163,0,0,0,2.324.49,2.227,2.227,0,0,0,.891-2.237A1.892,1.892,0,0,1,507.227,320.948Z" transform="translate(-489.354 -314.326)"/>
      <path id="Caminho_774" data-name="Caminho 774" d="M494.278,309.959a4.632,4.632,0,0,1-3.4-4.049,4.6,4.6,0,0,0,3.57,4.695A.6.6,0,0,1,494.278,309.959Z" transform="translate(-480.35 -305.153)"/>
    </g>
    <path id="Caminho_775" data-name="Caminho 775" d="M828.569,324.116s-1.074-.15-1.074-1.711a24.555,24.555,0,0,0-.768-4.485h0s-.665-5.087-1.583-5.894-2.1-5.542-2.1-5.542a11.172,11.172,0,0,0-.613-3.123,26.532,26.532,0,0,1-1.787-3.839c-.82-1.932-4.232-3.256-4.232-3.256s-6.183-3.586-7.935-4.755h0a2.712,2.712,0,0,1-.447-.338c-.305-.4-1.635-.406-1.635-.406a26.9,26.9,0,0,1-.316-2.8v-.294a9.428,9.428,0,0,0,4.144-5.128c.033-.1.06-.21.09-.316a.886.886,0,0,0,.545-.48,9.59,9.59,0,0,1,.357-1.09,4.04,4.04,0,0,1,1.008-.883,3.821,3.821,0,0,0,1.049-3.1c-.027-.916-.174-1.837-.117-2.744a1.079,1.079,0,0,1,.016-.229c.016-.133.035-.272.06-.4.134-.676.425-1.313.589-1.984a2.552,2.552,0,0,0-.2-2,3.427,3.427,0,0,0-2.744-1.09c-1.158-.1-2.18.027-2.935-.935a10.269,10.269,0,0,0-1.166-1.406c-.152-.142-1.635-1.049-1.635-1.106a6.624,6.624,0,0,0-4.632-.357c-.771.224-1.493.589-2.275.771-1.679.4-3.613-.033-5.041.929a5.95,5.95,0,0,0-1.719,2.256q-.545,1.041-1.106,2.084a13.412,13.412,0,0,0-1.469,3.567,6.042,6.042,0,0,0-.1.837h0v.433a1.5,1.5,0,0,0,.016.273,1.574,1.574,0,0,0,.019.169c.019.057.025.185.041.273s.049.242.082.36a.556.556,0,0,0,.049.153c.016.052.06.183.1.273s.038.1.06.142a2.53,2.53,0,0,0,.139.272c.022.035.038.071.06.106a3.073,3.073,0,0,0,.251.365c.58.728,1.441,1.191,2.076,1.872v.305a9.327,9.327,0,0,0,4.273,7.6c0,.1.014.21.019.316a15.542,15.542,0,0,1-.03,2.425,1.15,1.15,0,0,0-.9-.4,1.294,1.294,0,0,0-.349.03l-.025-.019h0v.025c-.6.147-1.338.771-2.044,2.545,0,0-2.147,2.42-3.782,2.319s-5.774,2.521-5.774,2.521-4.038,2.619-4.9,5.289a36.972,36.972,0,0,1-1.741,4.436l-5.006,10.278h0l-.918,8.174a37.8,37.8,0,0,1,.409,4.183c-.1.556,2.1,5.542,2.1,5.542s7.256,12.747,10.221,13.4l.213-.147a1.86,1.86,0,0,0,.4.147l.61-.428a6.366,6.366,0,0,1-.049,1.436c-.406,1.262.155,9.474.869,11.085s.461,22.728.461,22.728l-.1,1.861a.789.789,0,0,0,.025.163l-.025.441.073.038a5.269,5.269,0,0,1-.073,1.777,19.7,19.7,0,0,0-.36,3.125s-2.044,13.047-1.073,15.668,1.79,5.493,1.79,5.493,1.022,3.27.049,3.815-3.728,1.512-3.166,2.872c.518,1.259,2.482,4.632,2.774,5.125l-.025.273-.4,4.341a5.446,5.446,0,0,0,.461,1.657,2.849,2.849,0,0,0,2.913,1.82c.272-.019.586-.049.894-.09a38.718,38.718,0,0,0,6.619-1.725,2.608,2.608,0,0,1-.515-.428h0a1.5,1.5,0,0,1-.455-1.09c.044-.793-1.436-4.556-1.807-5.485l-.085-.207s3.374-3.529,2.812-6.651c0,0-3.733-2.18-2.5-3.379a38.286,38.286,0,0,0,3.425-4.632s.1-12.848,0-14.763a15.922,15.922,0,0,1,.188-3.989c.041-.2.09-.39.142-.583a34.817,34.817,0,0,0,5.139.39q.943,0,1.907-.038,0,.272.024.589c.142,3.183.406,8.766.621,10.84.305,2.97,1.992,10.984,1.992,10.984s-3.218,2.063.561,7.155a6.906,6.906,0,0,1-.251,2.112h0a23.067,23.067,0,0,0-.646,2.662,4.677,4.677,0,0,0,.033,2.431c.613,1.2,4.292,1.106,4.292,1.106h0a.589.589,0,0,1,.09-.014,5.251,5.251,0,0,1,3.894,1.172c1.4,1.123,6.7.632,9.575.273,1.125-.144,1.877-.273,1.877-.273a1.106,1.106,0,0,0,.038-.392h0c-.03-.706-.583-2.254-4.332-3.635,0,0-3.526-2.371-3.477-4.436h-.485c.256-.008.436-.008.436-.008s-1.382-5.038-.818-5.45-1.125-5.995-1.125-5.995-.967-9.374-1.022-10.028a5.765,5.765,0,0,1,.256-1.662l-.256-5.142s-.049-1.708,0-2.264a10.671,10.671,0,0,0-.115-1.441c-.024-.191-.049-.39-.076-.586,1.322-.335,2.18-.643,2.18-.643l-.153-17.889c1.123-2.18,1.33-6.965,1.324-10.354,0-2.18-.1-3.793-.1-3.793l1.534-2.5s.354-3-.207-3.654a.629.629,0,0,1,.068-.858,2.843,2.843,0,0,1,.341-.24.431.431,0,0,1-.036-.06,2.7,2.7,0,0,1,.341-.242s-.545-.845-.057-1.2c.458.311.867.559,1.177.736-.022.2-.044.313-.044.313l.131-.272.482.272s2.4-4.788,2.352-5.491,1.635-3.679,1.635-3.679a3.686,3.686,0,0,1,1.125-2.218c.921-.654.714-5.393.714-5.393a11.586,11.586,0,0,1,.869-3.474C829.73,325.484,828.569,324.116,828.569,324.116Zm-45.985-2.1.046,1.142c-.273-.439-.469-.752-.469-.752Z" transform="translate(-564.539 -197.231)" fill="url(#linear-gradient-2)"/>
    <path id="Caminho_776" data-name="Caminho 776" d="M944.644,540.5l-.589,2.507s-4.714-2.412-5.561-5.463a3.462,3.462,0,0,1,1.42-4.215l4.4,1.858Z" transform="translate(-686.618 -393.06)" fill="#fff"/>
    <path id="Caminho_777" data-name="Caminho 777" d="M944.644,540.5l-.589,2.507s-4.714-2.412-5.561-5.463a3.462,3.462,0,0,1,1.42-4.215l4.4,1.858Z" transform="translate(-686.618 -393.06)" opacity="0.1"/>
    <path id="Caminho_778" data-name="Caminho 778" d="M836,846.293a33.879,33.879,0,0,1-7.357,1.8,2.8,2.8,0,0,1-2.858-1.809,5.534,5.534,0,0,1-.452-1.635l.4-4.319.207-2.3,6.368-1.657.9,2.76.084.207c.36.924,1.815,4.668,1.771,5.45a1.5,1.5,0,0,0,.444,1.09A2.524,2.524,0,0,0,836,846.293Z" transform="translate(-604.428 -613.533)" fill="#fff"/>
    <path id="Caminho_779" data-name="Caminho 779" d="M921.5,843.3a1.092,1.092,0,0,1-.038.392s-9.324,1.553-11.232,0a5.049,5.049,0,0,0-3.913-1.153s-3.608.1-4.21-1.09a4.721,4.721,0,0,1-.03-2.417,23.177,23.177,0,0,1,.632-2.649l.144-.114.858-.689,10.049-.3h.076c-.049,2.055,3.409,4.412,3.409,4.412C920.923,841.054,921.466,842.594,921.5,843.3Z" transform="translate(-660.16 -612.732)" fill="#fff"/>
    <path id="Caminho_780" data-name="Caminho 780" d="M921.494,853.3a1.121,1.121,0,0,1-.041.392s-9.325,1.553-11.229,0a5.05,5.05,0,0,0-3.916-1.153s-3.61.1-4.213-1.09a4.761,4.761,0,0,1-.03-2.42c1.39.139,3.583.485,4.444,1.313a9.915,9.915,0,0,0,4.861,2.608C912.439,853.016,918.791,853.218,921.494,853.3Z" transform="translate(-660.155 -622.736)" opacity="0.1"/>
    <path id="Caminho_781" data-name="Caminho 781" d="M837.205,871.647a33.884,33.884,0,0,1-7.357,1.8,2.8,2.8,0,0,1-2.859-1.809c1.112.373,2.651.763,3.461.406.959-.428,4.36-.7,6.267-.818A2.479,2.479,0,0,0,837.205,871.647Z" transform="translate(-605.636 -638.886)" opacity="0.1"/>
    <path id="Caminho_782" data-name="Caminho 782" d="M868.866,355.212c-3.6-1.4-8.224-6.016-7.068-8.175a4.888,4.888,0,0,0,.45-1.733,15.832,15.832,0,0,0,.033-2.452,33.669,33.669,0,0,0-.482-3.992s11.229.253,10.575,1.907a6.134,6.134,0,0,0-.169,2.27c.055.94.188,2.011.33,2.913.194,1.234.392,2.18.392,2.18s-.689.962-1.09,1.014S874.027,357.215,868.866,355.212Z" transform="translate(-630.828 -251.58)" fill="#cf6f80"/>
    <path id="Caminho_783" data-name="Caminho 783" d="M834.3,839.3l-.084.093c-3.357-4.06-7.417,1-7.417,1l-.06-.109.207-2.3,6.368-1.657.9,2.76Z" transform="translate(-605.454 -613.496)" opacity="0.1"/>
    <path id="Caminho_784" data-name="Caminho 784" d="M915.914,835.537a6.459,6.459,0,0,0-3.76,1.106c-1.308,1.155-7.63.248-7.357,0a.94.94,0,0,0,.142-.417l.859-.69,10.049-.3C915.885,835.431,915.914,835.537,915.914,835.537Z" transform="translate(-662.235 -612.703)" opacity="0.1"/>
    <path id="Caminho_785" data-name="Caminho 785" d="M831.066,704.952a7.639,7.639,0,0,0-.414,1.4,15.987,15.987,0,0,0-.188,3.967c.1,1.907,0,14.69,0,14.69a38.9,38.9,0,0,1-3.36,4.611c-1.2,1.2,2.452,3.36,2.452,3.36.545,3.109-2.758,6.619-2.758,6.619-3.357-4.06-7.417,1-7.417,1s-2.207-3.815-2.758-5.177,2.155-2.3,3.106-2.858-.049-3.815-.049-3.815-.8-2.858-1.755-5.466,1.052-15.586,1.052-15.586a20.133,20.133,0,0,1,.352-3.112,5.271,5.271,0,0,0,.073-1.766c-.016-.2-.035-.362-.049-.477s-.024-.164-.024-.164l.038-.065,1.362-2.54S831.72,703.352,831.066,704.952Z" transform="translate(-598.042 -514.002)" fill="#4dba80"/>
    <path id="Caminho_786" data-name="Caminho 786" d="M908.051,743.687a6.505,6.505,0,0,0-3.76,1.09c-1.308,1.142-7.63.251-7.357,0s.248-2.1.248-2.1c-3.709-5.066-.545-7.12-.545-7.12s-1.654-7.97-1.954-10.927c-.21-2.063-.469-7.63-.608-10.782-.06-1.363-.1-2.3-.1-2.3l3-.6.39-.076,7.308-1.469s.2,1.363.338,2.477a10.893,10.893,0,0,1,.112,1.436c-.046.545,0,2.254,0,2.254l.251,5.112a5.9,5.9,0,0,0-.251,1.654c.052.654,1,9.976,1,9.976s1.654,5.564,1.09,5.965S908.051,743.687,908.051,743.687Z" transform="translate(-654.372 -521.153)" fill="#4dba80"/>
    <path id="Caminho_787" data-name="Caminho 787" d="M872.855,340.8a6.139,6.139,0,0,0-.169,2.27,9.332,9.332,0,0,1-9.924-.185,33.72,33.72,0,0,0-.482-3.992S873.509,339.143,872.855,340.8Z" transform="translate(-631.31 -251.602)" opacity="0.1"/>
    <path id="Caminho_788" data-name="Caminho 788" d="M867.223,298.914a9.322,9.322,0,1,1-18.644.224v-.224a9.325,9.325,0,0,1,18.649,0Z" transform="translate(-621.343 -215.736)" fill="#cf6f80"/>
    <path id="Caminho_789" data-name="Caminho 789" d="M868.866,372.418c-3.6-1.4-8.224-6.017-7.068-8.175a4.889,4.889,0,0,0,.45-1.733l4.924,4.049,3.046,2.5,2.316-5.894c.194,1.234.392,2.18.392,2.18s-.689.962-1.09,1.014S874.027,374.42,868.866,372.418Z" transform="translate(-630.828 -268.786)" opacity="0.1"/>
    <path id="Caminho_790" data-name="Caminho 790" d="M856.623,370.624,852.511,439.7l-5.363.352L833.26,400l2.278-47.552.482-10.047,6.174,5.071,3.046,2.5,2.384-6.068,4.433,3.864Z" transform="translate(-605.851 -249.098)" fill="#4dba80"/>
    <path id="Caminho_791" data-name="Caminho 791" d="M838.471,705.01a7.63,7.63,0,0,0-.414,1.4A39.513,39.513,0,0,1,826.8,702.9l-.074-.038.024-.439v-.229l1.362-2.54S839.125,703.41,838.471,705.01Z" transform="translate(-605.447 -514.06)" opacity="0.1"/>
    <path id="Caminho_792" data-name="Caminho 792" d="M897.029,717.637a27.56,27.56,0,0,1-3.014.346c-.06-1.362-.1-2.3-.1-2.3l3.019-.61Z" transform="translate(-654.328 -525.278)" opacity="0.1"/>
    <path id="Caminho_793" data-name="Caminho 793" d="M914.116,711.877a21.159,21.159,0,0,1-7.608.717l-.038-1.725,7.308-1.469S913.971,710.751,914.116,711.877Z" transform="translate(-663.459 -521.153)" opacity="0.1"/>
    <path id="Caminho_794" data-name="Caminho 794" d="M812.079,459.362c-11.172,1.907-21.4-3.561-21.4-3.561l.1-1.853s.253-21.006-.45-22.616-1.251-9.766-.853-11.011-1.452-20.047-1.452-20.047l-.3-7.63-10.979-4.461,4.9-10.226a36.949,36.949,0,0,0,1.706-4.414c.853-2.657,4.812-5.264,4.812-5.264s4.06-2.605,5.665-2.507,3.709-2.305,3.709-2.305c1.553-3.959,2.959-2.18,2.959-2.18a3.5,3.5,0,0,1-.076.586c-.545,4.346,8.812,18.079,8.946,18.325h0l.9,21.706.9,27.469Z" transform="translate(-569.078 -267.605)" opacity="0.1"/>
    <path id="Caminho_795" data-name="Caminho 795" d="M810.957,459.362c-11.172,1.907-21.406-3.561-21.406-3.561l.1-1.853s.251-21.006-.452-22.616-1.251-9.774-.85-11.03-1.461-20.039-1.461-20.039l-.3-7.63-10.976-4.461,4.9-10.226a37.564,37.564,0,0,0,1.706-4.412c.853-2.649,4.826-5.259,4.826-5.259s4.06-2.6,5.662-2.507,3.717-2.3,3.717-2.3c1.556-3.959,3.27-2.18,3.27-2.18,0,.191-.164.272-.076.586,1.2,4.215,8.512,18.079,8.646,18.325h0l.9,21.706.883,27.483Z" transform="translate(-568.256 -267.605)" fill="#fff"/>
    <path id="Caminho_796" data-name="Caminho 796" d="M866.8,382.47c-1.2-.5-7.567-7.769-7.567-7.769v-1.654c-.232-.545-1.61-.213-2.725.169l.48-10.047.545.452C858.725,367.835,866.671,382.228,866.8,382.47Z" transform="translate(-627.112 -269.266)" opacity="0.1"/>
    <path id="Caminho_797" data-name="Caminho 797" d="M867.9,380.292c-1.2-.5-7.57-7.769-7.57-7.769v-1.657c-.232-.545-1.608-.213-2.725.169L858.081,361l.545.45C859.828,365.657,867.771,380.047,867.9,380.292Z" transform="translate(-627.912 -267.687)" fill="#fff"/>
    <path id="Caminho_798" data-name="Caminho 798" d="M826.243,562.661c.15,0,7.769-.8,7.769-.8s4.613,9.074,4.311,11.278-.85,4.161-2.706,3.815-9.987.272-9.987.272Z" transform="translate(-604.646 -413.816)" opacity="0.1"/>
    <path id="Caminho_799" data-name="Caminho 799" d="M825.133,560.451c.153,0,7.771-.8,7.771-.8s4.611,9.087,4.311,11.267-.853,4.161-2.706,3.815-9.989.273-9.989.273Z" transform="translate(-603.839 -412.208)" fill="#fff"/>
    <path id="Caminho_800" data-name="Caminho 800" d="M836.716,547s6.992,3.76,7.142,4.9-3.559-.5-4.36-.7a10.377,10.377,0,0,0-1.6-.251l-5.343.144Z" transform="translate(-609.681 -403.005)" fill="#cf6f80"/>
    <circle id="Elipse_4339" data-name="Elipse 4339" cx="0.736" cy="0.736" r="0.736" transform="translate(237 112.201)" opacity="0.1"/>
    <circle id="Elipse_4340" data-name="Elipse 4340" cx="0.736" cy="0.736" r="0.736" transform="translate(237 111.902)" fill="#3f3d56"/>
    <circle id="Elipse_4341" data-name="Elipse 4341" cx="0.736" cy="0.736" r="0.736" transform="translate(238.354 144.05)" opacity="0.1"/>
    <circle id="Elipse_4342" data-name="Elipse 4342" cx="0.736" cy="0.736" r="0.736" transform="translate(238.354 143.747)" fill="#3f3d56"/>
    <circle id="Elipse_4343" data-name="Elipse 4343" cx="0.736" cy="0.736" r="0.736" transform="translate(237.736 128.126)" opacity="0.1"/>
    <circle id="Elipse_4344" data-name="Elipse 4344" cx="0.736" cy="0.736" r="0.736" transform="translate(237.736 127.826)" fill="#3f3d56"/>
    <path id="Caminho_801" data-name="Caminho 801" d="M915.383,418.239s.5.752,0,1.09.049,1.2.049,1.2-1.251.73-.7,1.392.2,3.635.2,3.635l-1.5,2.5s.09,1.6.1,3.774c0,3.384-.2,8.142-1.3,10.311l.147,17.8s-5.267,1.926-9.676,1.338l-.654-28.557s.954-16.194,1.305-19.3a32.341,32.341,0,0,0,.251-4.864,54.286,54.286,0,0,0-.654-7.115s-.545-9.777-.6-12.483c-.025-1.294.044-5.071.12-8.662.084-3.927.18-7.63.18-7.63l-.995-7.872s.995-.1,1.294.3a2.865,2.865,0,0,0,.436.335h0c1.719,1.161,7.785,4.73,7.785,4.73s3.357,1.335,4.161,3.248a28.292,28.292,0,0,0,1.752,3.815,11.78,11.78,0,0,1,.6,3.106s1.155,4.714,2.057,5.512,1.55,5.867,1.55,5.867l-7.97,6.267s-.7,10.425-.85,10.829S915.383,418.239,915.383,418.239Z" transform="translate(-659.952 -270.445)" fill="#fff"/>
    <path id="Caminho_802" data-name="Caminho 802" d="M915.664,417.984s.5.752,0,1.09.046,1.2.046,1.2-1.251.73-.7,1.392.2,3.635.2,3.635l-1.5,2.5s.09,1.6.1,3.774c0,3.384-.2,8.142-1.3,10.311l.15,17.8s-5.267,1.926-9.676,1.338l-.651-28.557s.951-16.194,1.305-19.3a32.051,32.051,0,0,0,.248-4.864,54.618,54.618,0,0,0-.651-7.115s-.545-9.777-.6-12.483c-.025-1.294.044-5.071.12-8.662.085-3.927.18-7.63.18-7.63l-1.313-7.978s1.313,0,1.616.406a2.588,2.588,0,0,0,.436.335h0c1.717,1.161,7.782,4.73,7.782,4.73s3.349,1.335,4.166,3.248a30.224,30.224,0,0,0,1.752,3.815,11.777,11.777,0,0,1,.6,3.106s1.155,4.714,2.057,5.512,1.553,5.867,1.553,5.867l-7.97,6.267s-.7,10.425-.853,10.829S915.664,417.984,915.664,417.984Z" transform="translate(-659.93 -270.19)" fill="#fff"/>
    <path id="Caminho_803" data-name="Caminho 803" d="M906.912,376.332l.722,2.1-3.79,3.815c.084-3.927.18-7.63.18-7.63l-1.313-7.976s1.313,0,1.616.406a2.594,2.594,0,0,0,.436.335h0l3.221,9.289Z" transform="translate(-660.723 -271.791)" opacity="0.1"/>
    <path id="Caminho_804" data-name="Caminho 804" d="M905.782,374.108l.722,2.1-3.787,3.815c.082-3.927.18-7.63.18-7.63l-1.316-7.978s1.316,0,1.616.406a2.731,2.731,0,0,0,.436.335h0l3.24,9.3Z" transform="translate(-659.901 -270.168)" fill="#fff"/>
    <path id="Caminho_805" data-name="Caminho 805" d="M867.223,298.914a9.294,9.294,0,0,1-.458,2.891.387.387,0,0,1-.294-.071,12.055,12.055,0,0,0-2.763-6.717,7.113,7.113,0,0,0-1.5-1.553,2.935,2.935,0,0,0-2.033-.575c-.818.112-1.54.668-2.365.738-1.09.09-2.066-.665-3.147-.7A3.085,3.085,0,0,0,852.351,294a6.312,6.312,0,0,0-1.24,2.3,13.451,13.451,0,0,0-.692,3.967c-.014.763-.087,1.719-.8,2a4.059,4.059,0,0,0-1.027-3.106l-.016-.019v-.223a9.325,9.325,0,1,1,18.649,0Z" transform="translate(-621.343 -215.736)" opacity="0.1"/>
    <path id="Caminho_806" data-name="Caminho 806" d="M854.2,267.85a6.419,6.419,0,0,0-4.529-.354c-.755.223-1.466.586-2.232.768-1.635.4-3.542-.033-4.946.924a5.9,5.9,0,0,0-1.684,2.245l-1.09,2.074a13.477,13.477,0,0,0-1.441,3.542,4.531,4.531,0,0,0,.695,3.659c.575.73,1.43,1.191,2.057,1.88a4.087,4.087,0,0,1,1.025,3.115c.709-.272.779-1.234.8-2a13.476,13.476,0,0,1,.692-3.967,6.312,6.312,0,0,1,1.24-2.3,3.087,3.087,0,0,1,2.313-1.076c1.09.038,2.068.793,3.147.7.817-.068,1.542-.624,2.365-.736a2.921,2.921,0,0,1,2.033.575,6.979,6.979,0,0,1,1.5,1.553,12.006,12.006,0,0,1,2.766,6.717c.308.223.752-.071.9-.42a9.934,9.934,0,0,1,.352-1.09,4.026,4.026,0,0,1,.986-.88,3.858,3.858,0,0,0,1.03-3.087,15.372,15.372,0,0,1-.038-3.357c.128-.673.417-1.308.575-1.976a2.582,2.582,0,0,0-.2-1.992,3.364,3.364,0,0,0-2.692-1.09c-1.136-.1-2.153.027-2.878-.929a10.646,10.646,0,0,0-1.144-1.4C855.652,268.809,854.2,267.91,854.2,267.85Z" transform="translate(-613.768 -199.475)" fill="#512e4e"/>
    <path id="Caminho_807" data-name="Caminho 807" d="M778.277,466.312l-2.845-5.262-.9,8.12a37.676,37.676,0,0,1,.4,4.161c-.1.553,2.054,5.512,2.054,5.512s7.12,12.684,10.028,13.336l9.81-7.019-2.6-3.308s-.9-.351-1.128,0c0,0-4.839-8.322-5.338-8.921a3.032,3.032,0,0,1-.4-1.807s-.752-.8-.5-1.553-1.439-3.357-1.439-3.357l1.553-1.452Z" transform="translate(-567.471 -340.475)" opacity="0.1"/>
    <path id="Caminho_808" data-name="Caminho 808" d="M773.974,458.84l-.752.6-.9,8.12a37.619,37.619,0,0,1,.4,4.161c-.1.553,2.057,5.512,2.057,5.512S781.9,489.92,784.8,490.571l9.826-7.019-2.608-3.308s-.9-.351-1.128,0c0,0-4.837-8.322-5.338-8.921a3,3,0,0,1-.4-1.807s-.752-.8-.5-1.553-1.455-3.357-1.455-3.357l1.553-1.452Z" transform="translate(-565.863 -338.867)" fill="#fff"/>
    <path id="Caminho_809" data-name="Caminho 809" d="M934.475,562.67c.545.662.2,3.638.2,3.638l-1.5,2.488s.09,1.608.1,3.777l-2.529.79a1.5,1.5,0,0,1-1.951-1.482l.439-14.06,5.9,2.253c-.5.349.049,1.2.049,1.2S933.924,562.008,934.475,562.67Z" transform="translate(-679.695 -410.877)" opacity="0.1"/>
    <path id="Caminho_810" data-name="Caminho 810" d="M935.589,561.563c.545.659.2,3.635.2,3.635l-1.5,2.49s.09,1.6.1,3.774l-2.575.8a1.469,1.469,0,0,1-1.907-1.447l.439-14.109,5.9,2.259c-.5.349.046,1.2.046,1.2S935.039,560.9,935.589,561.563Z" transform="translate(-680.51 -410.069)" fill="#fff"/>
    <path id="Caminho_811" data-name="Caminho 811" d="M945.337,544.042s-.4,2.559-1.4,2.708-1.452,4.139-2.452,4-.338-3.711-.3-4.4-1.09-3.559-.251-4.21,3.51,0,3.51,0Z" transform="translate(-688.301 -399.256)" fill="#cf6f80"/>
    <path id="Caminho_812" data-name="Caminho 812" d="M944.654,467.415l1.888-3.815a24.687,24.687,0,0,1,.755,4.461c0,1.553,1.052,1.706,1.052,1.706s1.153,1.362.545,2.357a11.405,11.405,0,0,0-.85,3.458s.2,4.711-.7,5.363a3.7,3.7,0,0,0-1.1,2.207s-1.654,2.956-1.6,3.659-2.305,5.463-2.305,5.463,1.153-5.916-5.564-8.472c0,0-.052-2.005.45-2.556s1.283-.817.793-3.586a32.507,32.507,0,0,1-.142-6.774,42.594,42.594,0,0,1,1.5-4.828Z" transform="translate(-685.498 -342.33)" opacity="0.1"/>
    <path id="Caminho_813" data-name="Caminho 813" d="M947.131,461.6l1.651.545a24.687,24.687,0,0,1,.755,4.461c0,1.553,1.052,1.706,1.052,1.706s1.153,1.362.545,2.357a11.433,11.433,0,0,0-.853,3.458s.2,4.711-.7,5.362a3.65,3.65,0,0,0-1.09,2.207s-1.654,2.956-1.6,3.659-2.308,5.463-2.308,5.463,1.153-5.916-5.564-8.472c0,0-.049-2.006.452-2.556s1.283-.817.793-3.586a32.5,32.5,0,0,1-.142-6.774,42.6,42.6,0,0,1,1.5-4.828Z" transform="translate(-687.136 -340.875)" fill="#fff"/>
    <path id="Caminho_814" data-name="Caminho 814" d="M834.92,822.094s2.632-1.654,4.36-.452S834.92,822.094,834.92,822.094Z" transform="translate(-611.405 -602.492)" opacity="0.1"/>
    <path id="Caminho_815" data-name="Caminho 815" d="M910,805.661a5.328,5.328,0,0,1,4.286,1.807C916.243,809.574,910,805.661,910,805.661Z" transform="translate(-666.027 -591.173)" opacity="0.1"/>
    <g id="Grupo_111" data-name="Grupo 111" transform="translate(224.396 73.764)" opacity="0.1">
      <path id="Caminho_816" data-name="Caminho 816" d="M871.535,304.821c-.335.292-.766.5-.989.88a10.157,10.157,0,0,0-.349,1.09c-.153.352-.6.643-.907.42a12.046,12.046,0,0,0-2.763-6.717,6.969,6.969,0,0,0-1.5-1.55,2.929,2.929,0,0,0-2.036-.578c-.817.112-1.537.668-2.362.738-1.09.09-2.068-.665-3.15-.7a3.074,3.074,0,0,0-2.311,1.074,6.312,6.312,0,0,0-1.24,2.3,13.471,13.471,0,0,0-.692,3.967c-.016.76-.087,1.708-.79,1.992a3.768,3.768,0,0,1,0,.608c.711-.273.782-1.234.8-2a13.479,13.479,0,0,1,.692-3.967,6.311,6.311,0,0,1,1.24-2.3A3.085,3.085,0,0,1,857.491,299c1.09.038,2.071.793,3.15.7.818-.068,1.542-.624,2.363-.736a2.929,2.929,0,0,1,2.035.575,6.983,6.983,0,0,1,1.5,1.553,12.02,12.02,0,0,1,2.763,6.717c.311.223.755-.071.907-.42a10.563,10.563,0,0,1,.349-1.09,4.04,4.04,0,0,1,.989-.88,3.856,3.856,0,0,0,1.03-3.087v-.1A3.584,3.584,0,0,1,871.535,304.821Z" transform="translate(-848.555 -295.876)"/>
      <path id="Caminho_817" data-name="Caminho 817" d="M841.017,310.412c-.624-.689-1.48-1.153-2.054-1.883a3.952,3.952,0,0,1-.793-2.229,4.2,4.2,0,0,0,.793,2.831c.575.73,1.431,1.191,2.054,1.88a4.087,4.087,0,0,1,1.03,2.431A4.088,4.088,0,0,0,841.017,310.412Z" transform="translate(-838.155 -301.657)"/>
      <path id="Caminho_818" data-name="Caminho 818" d="M926.452,289.786c-.161.668-.447,1.3-.578,1.975a6.308,6.308,0,0,0-.084,1.379,5.284,5.284,0,0,1,.084-.777c.131-.673.417-1.308.578-1.975a3.421,3.421,0,0,0,.09-1.128,3.78,3.78,0,0,1-.09.526Z" transform="translate(-901.905 -289.26)"/>
    </g>
    <ellipse id="Elipse_4345" data-name="Elipse 4345" cx="26.551" cy="4.264" rx="26.551" ry="4.264" transform="translate(9.973 220.057)" fill="#4dba80" opacity="0.1"/>
    <rect id="Retângulo_341" data-name="Retângulo 341" width="1.708" height="38.467" transform="translate(35.671 142.627)" fill="#535461"/>
    <path id="Caminho_819" data-name="Caminho 819" d="M129.315,675.76l-.109,1.733-.15,2.452-.063,1.019-.153,2.452-.065,1.019-.15,2.452L126.9,714.7a4.709,4.709,0,0,1-4.7,4.42h-8.957a4.706,4.706,0,0,1-4.7-4.439l-1.725-27.813-.15-2.452-.063-1.019-.155-2.452-.063-1.019-.15-2.452-.109-1.733a2.452,2.452,0,0,1,2.436-2.591h18.317a2.452,2.452,0,0,1,2.433,2.61Z" transform="translate(-81.197 -494.781)" fill="#3f3d56"/>
    <path id="Caminho_820" data-name="Caminho 820" d="M113.551,670.52l-.153,2.447H90.733l-.153-2.447Z" transform="translate(-65.542 -487.81)" fill="#9d9cb5"/>
    <path id="Caminho_821" data-name="Caminho 821" d="M113.91,683.24l-.15,2.447H91.523l-.153-2.447Z" transform="translate(-66.116 -497.064)" fill="#9d9cb5"/>
    <path id="Caminho_822" data-name="Caminho 822" d="M114.27,695.97l-.15,2.444H92.313l-.153-2.444Z" transform="translate(-66.691 -506.325)" fill="#9d9cb5"/>
    <path id="Caminho_823" data-name="Caminho 823" d="M38.392,574.6c9.951,7.2,14.1,18.458,14.1,18.458s-11.989-.412-21.943-7.611S16.44,567,16.44,567,28.429,567.4,38.392,574.6Z" transform="translate(-15.95 -417.555)" fill="#4dba80"/>
    <path id="Caminho_824" data-name="Caminho 824" d="M16.44,567s12.444,6.908,16.436,12.627,19.6,13.439,19.6,13.439" transform="translate(-15.95 -417.555)" fill="none" stroke="#535461" stroke-miterlimit="10" stroke-width="2"/>
    <path id="Caminho_825" data-name="Caminho 825" d="M88.643,530.622a24.125,24.125,0,0,1,7.673,10.044,24.107,24.107,0,0,1-11.943-4.139A24.264,24.264,0,0,1,76.7,526.48,24.125,24.125,0,0,1,88.643,530.622Z" transform="translate(-59.79 -388.076)" fill="#4dba80"/>
    <path id="Caminho_826" data-name="Caminho 826" d="M76.7,526.48s6.774,3.76,8.948,6.872,10.668,7.314,10.668,7.314" transform="translate(-59.79 -388.076)" fill="none" stroke="#535461" stroke-miterlimit="10" stroke-width="2"/>
    <path id="Caminho_827" data-name="Caminho 827" d="M157.447,553.392a33.37,33.37,0,0,0-7.537,15.771A30.33,30.33,0,0,0,172.434,544.4,33.4,33.4,0,0,0,157.447,553.392Z" transform="translate(-113.051 -401.113)" fill="#4dba80"/>
    <path id="Caminho_828" data-name="Caminho 828" d="M172.439,544.41s-8.1,7.008-10.164,11.837-12.365,12.924-12.365,12.924" transform="translate(-113.051 -401.121)" fill="none" stroke="#535461" stroke-miterlimit="10" stroke-width="2"/>
  </g>
</svg>
