<svg xmlns="http://www.w3.org/2000/svg" width="296.733" height="254.041" viewBox="0 0 296.733 254.041">
  <g id="estagios-header" transform="translate(0)" opacity="0.1">
    <ellipse id="Elipse_4237" data-name="Elipse 4237" cx="31.146" cy="63.551" rx="31.146" ry="63.551" transform="translate(9.209 44.398)" fill="#34809e"/>
    <path id="Caminho_281" data-name="Caminho 281" d="M265.192,297.422c1.554-27.663,4.684-46.349,4.715-46.534l-.679-.115c-.031.186-3.167,18.9-4.724,46.6-1.436,25.564-1.783,64.232,4.723,103.267l.68-.113C263.413,361.558,263.758,322.949,265.192,297.422Z" transform="translate(-225.123 -188.814)" fill="#3f3d56"/>
    <rect id="Retângulo_117" data-name="Retângulo 117" width="31.941" height="0.689" transform="translate(40.032 110.133) rotate(-28.157)" fill="#3f3d56"/>
    <rect id="Retângulo_118" data-name="Retângulo 118" width="0.689" height="31.941" transform="translate(10.302 103.222) rotate(-61.858)" fill="#3f3d56"/>
    <ellipse id="Elipse_4238" data-name="Elipse 4238" cx="40.407" cy="82.446" rx="40.407" ry="82.446" transform="translate(215.919 0)" fill="#34809e"/>
    <path id="Caminho_282" data-name="Caminho 282" d="M925.433,191.361c2.016-35.894,6.078-60.139,6.119-60.38l-.644-.109c-.041.241-4.108,24.514-6.126,60.442-1.863,33.16-2.312,83.315,6.126,133.945l.644-.107C923.124,274.584,923.573,224.485,925.433,191.361Z" transform="translate(-669.599 -108.07)" fill="#3f3d56"/>
    <rect id="Retângulo_119" data-name="Retângulo 119" width="41.438" height="0.653" transform="translate(255.963 85.387) rotate(-28.157)" fill="#3f3d56"/>
    <rect id="Retângulo_120" data-name="Retângulo 120" width="0.653" height="41.438" transform="translate(217.394 76.21) rotate(-61.858)" fill="#3f3d56"/>
    <ellipse id="Elipse_4239" data-name="Elipse 4239" cx="15.097" cy="30.804" rx="15.097" ry="30.804" transform="translate(192.545 125.614)" fill="#e6e6e6"/>
    <path id="Caminho_283" data-name="Caminho 283" d="M751.3,495.322l.089.167,13.65-7.306-.308-.576-13.4,7.174a229.9,229.9,0,0,1,2.289-23l-.644-.109A238.571,238.571,0,0,0,750.5,498.5l-13.518-7.235-.308.576,13.65,7.306.163-.3a227.706,227.706,0,0,0,2.488,45.528l.644-.107C750.663,526.515,750.6,508.8,751.3,495.322Z" transform="translate(-543.675 -337.576)" fill="#3f3d56"/>
    <path id="Caminho_284" data-name="Caminho 284" d="M429.827,700.309c-80.413-25.456-153.329-24.1-200.338-18.479-50.929,6.089-83.246,18.35-83.567,18.473l-.234-.61c.321-.123,32.714-12.413,83.722-18.512a485.59,485.59,0,0,1,90.425-2.313,471.669,471.669,0,0,1,110.188,20.818Z" transform="translate(-145.688 -476.356)" fill="#3f3d56"/>
    <path id="Caminho_285" data-name="Caminho 285" d="M462.2,716.084s.226-4.725,4.849-4.176" transform="translate(-358.836 -499.325)" fill="#3f3d56"/>
    <circle id="Elipse_4240" data-name="Elipse 4240" cx="2.314" cy="2.314" r="2.314" transform="translate(99.744 207.634)" fill="#34809e"/>
    <rect id="Retângulo_121" data-name="Retângulo 121" width="0.653" height="4.572" transform="translate(101.681 213.845)" fill="#3f3d56"/>
    <path id="Caminho_286" data-name="Caminho 286" d="M720.2,719.084s.226-4.725,4.849-4.176" transform="translate(-532.58 -501.345)" fill="#3f3d56"/>
    <circle id="Elipse_4241" data-name="Elipse 4241" cx="2.314" cy="2.314" r="2.314" transform="translate(184 208.614)" fill="#34809e"/>
    <rect id="Retângulo_122" data-name="Retângulo 122" width="0.653" height="4.572" transform="translate(185.937 214.824)" fill="#3f3d56"/>
    <path id="Caminho_287" data-name="Caminho 287" d="M295.2,694.084s.226-4.725,4.849-4.176" transform="translate(-246.374 -484.509)" fill="#3f3d56"/>
    <circle id="Elipse_4242" data-name="Elipse 4242" cx="2.314" cy="2.314" r="2.314" transform="translate(45.206 200.449)" fill="#34809e"/>
    <rect id="Retângulo_123" data-name="Retângulo 123" width="0.653" height="4.572" transform="translate(47.144 206.66)" fill="#3f3d56"/>
    <path id="Caminho_288" data-name="Caminho 288" d="M404.2,675.084s.226-4.725,4.849-4.176" transform="translate(-319.777 -471.714)" fill="#3f3d56"/>
    <circle id="Elipse_4243" data-name="Elipse 4243" cx="2.314" cy="2.314" r="2.314" transform="translate(80.803 194.245)" fill="#34809e"/>
    <rect id="Retângulo_124" data-name="Retângulo 124" width="0.653" height="4.572" transform="translate(82.74 200.455)" fill="#3f3d56"/>
    <path id="Caminho_289" data-name="Caminho 289" d="M677.2,702.084s.226-4.725,4.849-4.176" transform="translate(-503.623 -489.897)" fill="#3f3d56"/>
    <circle id="Elipse_4244" data-name="Elipse 4244" cx="2.314" cy="2.314" r="2.314" transform="translate(169.957 203.062)" fill="#34809e"/>
    <rect id="Retângulo_125" data-name="Retângulo 125" width="0.653" height="4.572" transform="translate(171.895 209.273)" fill="#3f3d56"/>
    <path id="Caminho_290" data-name="Caminho 290" d="M966.543,681.78l13.441,19.93L967.47,714.224l-1.622-3.244,2.781-6.489s-.463-6.025-2.086-7.648-8.806-11.355-8.806-11.355Z" transform="translate(-692.543 -479.066)" fill="#ffb8b8"/>
    <path id="Caminho_291" data-name="Caminho 291" d="M886.313,484.5s2.549,4.034-2.781,21.415c0,0,24.862,41.961,20.922,44.742s-14.6,8.935-17.382,7.081-23.007-64.663-23.007-64.663Z" transform="translate(-629.463 -346.215)" fill="#2f2e41"/>
    <path id="Caminho_292" data-name="Caminho 292" d="M977.449,731.808l4.056,4.056c2.086,2.086,3.476,5.1-.463,7.648s-17.613,12.051-22.248,9.038,5.562-5.794,5.562-5.794,1.686-6.252,2.581-4.864a9.741,9.741,0,0,1,.9,4.169Z" transform="translate(-692.441 -512.756)" fill="#2f2e41"/>
    <path id="Caminho_293" data-name="Caminho 293" d="M814.8,710.831s-7.416,13.673-7.416,15.3.464,6.257.464,6.257l-14.136,3.476-4.867-2.317,1.622-4.171s8.806-3.013,10.66-8.806,3.94-11.819,3.94-11.819Z" transform="translate(-578.807 -497.225)" fill="#ffb8b8"/>
    <circle id="Elipse_4245" data-name="Elipse 4245" cx="9.733" cy="9.733" r="9.733" transform="translate(234.835 58.105)" fill="#ffb8b8"/>
    <path id="Caminho_294" data-name="Caminho 294" d="M886.774,287.634l4.647,13.352,10.185-4.546s-6.952-10.66-6.952-12.051Z" transform="translate(-644.755 -211.452)" fill="#ffb8b8"/>
    <path id="Caminho_295" data-name="Caminho 295" d="M847.839,439.8h12.282s8.806,13.441,3.708,27.578a73.28,73.28,0,0,0-2.329,8.782c-1.779,8.245-3.55,19.413-5.365,29.676-2.55,14.416-5.186,27.044-8.052,27.274-5.794.464-17.06.386-17.06-1.931s7.546-69.363,7.546-69.363l1.622-2.781.307-12.113a7.306,7.306,0,0,1,7.341-7.121Z" transform="translate(-607.211 -316.108)" fill="#2f2e41"/>
    <path id="Caminho_296" data-name="Caminho 296" d="M788.632,761.613s2.665,4.519,1.97,7.763-1.854,2.781-6.952,3.244-22.479.463-22.479-2.781,13.559-7.458,13.616-6.162.521,3.845-.87,4.308-.116.116-.116.116Z" transform="translate(-560.17 -532.828)" fill="#2f2e41"/>
    <path id="Caminho_297" data-name="Caminho 297" d="M865.818,523.85s-1.008,16.462-7.732,11.561,2.62-13.754,2.62-13.754Z" transform="translate(-623.798 -371.235)" fill="#fff"/>
    <path id="Caminho_298" data-name="Caminho 298" d="M878.456,354.039a1.952,1.952,0,0,0,2-.237,2.048,2.048,0,0,0,.758-1.291c.972-5.6,2.156-21.141,2.837-29a33.117,33.117,0,0,0-3.453-17.54l-2.518-3.462a1.976,1.976,0,0,0-2.367-.664s-7.861,8.156-7.89,8.471c-.123,1.352-1.059,4.349-5.935,9.225-5.336,5.336-5.365,9.993-5.247,11.293q.012.128.012.256a5.715,5.715,0,0,0,.235,1.724c2.235,7.046.485,15.482-2.326,24.287a1.986,1.986,0,0,0,.8,2.155c.821.558-.164-.27.129.089,1.937,2.374,4.724-.935,7.913-4.544,1.111-1.257,2.37-2.683,3.853-4.166,2.04-2.04,5.938,2.615,7.75,2.615a8.416,8.416,0,0,1,3.45.785Z" transform="translate(-623.015 -223.106)" fill="#575a89"/>
    <path id="Caminho_299" data-name="Caminho 299" d="M886.535,325.685s5.091,4.293,2.2,9.861-2.508,9.675-2.508,9.675-.77,38.25-9.807,36.391l-4.111,11.349-7.424-2.68,4.293-10.01s-3.438-.214-2.434-2.557c.706-1.646,4.508-19.5,6.708-29.987.933-4.443,1.578-7.562,1.578-7.562S877.954,324.526,886.535,325.685Z" transform="translate(-630.014 -239.221)" fill="#575a89"/>
    <path id="Caminho_300" data-name="Caminho 300" d="M782.86,321.6,780,340.379l1.544-20.082Z" transform="translate(-525.271 -215.696)" opacity="0.2"/>
    <path id="Caminho_301" data-name="Caminho 301" d="M861.931,236.189s-1.636-12.735,11.715-8.559c0,0,9.536-1.75,12.663,10.178l3.166,12.5-1.543-.84-.719,1.573-2.5.633-1.07-2.124-.518,2.579-20.482,2.042s9.173-5.425,9.319-15.148l-1.747,1.846Z" transform="translate(-627.983 -172.663)" fill="#2f2e41"/>
    <path id="Caminho_302" data-name="Caminho 302" d="M763.014,520.445l4.567-30.432-3.714,32.853Z" transform="translate(-513.834 -329.988)" opacity="0.2"/>
    <circle id="Elipse_4246" data-name="Elipse 4246" cx="5.15" cy="5.15" r="5.15" transform="translate(251.494 49.942)" fill="#2f2e41"/>
    <path id="Caminho_303" data-name="Caminho 303" d="M913.961,215.861a5.146,5.146,0,0,1,5.148-4.814c-.106-.013-.212-.03-.32-.037a5.15,5.15,0,1,0-.661,10.279c.108.007.215,0,.322,0A5.146,5.146,0,0,1,913.961,215.861Z" transform="translate(-662.624 -162.03)" fill="#2f2e41"/>
    <path id="Caminho_304" data-name="Caminho 304" d="M731.521,336.968l-4.531,24.286,5.873-26.824Z" transform="translate(-489.574 -225.214)" opacity="0.2"/>
    <path id="Caminho_305" data-name="Caminho 305" d="M870.629,275.782l-2.641,1.991c-2.72-1.369-4.76-4.536-5.5-7.558l2.878-1.452C865.591,271.846,867.779,273.9,870.629,275.782Z" transform="translate(-628.4 -200.929)" fill="#fff"/>
    <path id="Caminho_306" data-name="Caminho 306" d="M876.755,269.2h-6.58a.219.219,0,1,1,0-.439h6.58a.219.219,0,1,1,0,.439Z" transform="translate(-633.429 -200.929)" fill="#fff"/>
    <path id="Caminho_307" data-name="Caminho 307" d="M886.295,280.305a.219.219,0,0,1-.2-.3l1.755-4.387a.219.219,0,1,1,.407.163l-1.755,4.387A.219.219,0,0,1,886.295,280.305Z" transform="translate(-644.285 -205.453)" fill="#fff"/>
    <ellipse id="Elipse_4247" data-name="Elipse 4247" cx="1.609" cy="2.253" rx="1.609" ry="2.253" transform="translate(242.159 66.358)" fill="#ffb8b8"/>
    <path id="Caminho_308" data-name="Caminho 308" d="M399.191,199l17.141,3.922,7.242-13.659-14.656-5.722Z" transform="translate(-268.826 -123.601)" fill="#2f2e41"/>
    <path id="Caminho_309" data-name="Caminho 309" d="M546.255,509.5s-5.51,12.627-5.51,16.3c0,0,2.181,9.987,1.492,12.741l-2.411,5.165-5.051-2.066L533.4,527.868l.23-22.039Z" transform="translate(-406.783 -360.576)" fill="#ffb9b9"/>
    <path id="Caminho_310" data-name="Caminho 310" d="M581.047,281.536s.459,7.576-.459,9.872,3.444,6.658,3.444,6.658l6.887-8.953s-4.591-4.591-3.444-9.642Z" transform="translate(-438.476 -208.14)" fill="#ffb9b9"/>
    <path id="Caminho_311" data-name="Caminho 311" d="M532.075,445.717s-6.658,12.4-.23,11.479,4.247-11.823,4.247-11.823" transform="translate(-403.852 -319.863)" fill="#e6e6e6"/>
    <path id="Caminho_312" data-name="Caminho 312" d="M396.649,312.365l2.181-21.695-.115-13.2-5.051.918v12.167l-1.033,22.154" transform="translate(-264.408 -186.856)" fill="#ffb9b9"/>
    <path id="Caminho_313" data-name="Caminho 313" d="M522.373,602.526l9.872-3.9,1.148,19.514s2.066,5.969,1.378,8.265c0,0,.459,3.9-.689,4.132s-4.362.689-4.591.459-.23-.918-.23-.918-2.3,1.607-2.525,3.444c0,0-9.642,2.984-9.872.23s4.821-5.051,4.821-5.051l3.9-5.969Z" transform="translate(-395.642 -423.066)" fill="#2f2e41"/>
    <path id="Caminho_314" data-name="Caminho 314" d="M609.171,509.5s-5.51,12.627-5.51,16.3c0,0,2.181,9.987,1.492,12.741l-2.411,5.165-5.051-2.066-1.377-13.775.23-22.039Z" transform="translate(-449.152 -360.576)" fill="#ffb9b9"/>
    <path id="Caminho_315" data-name="Caminho 315" d="M586.344,602.526l9.872-3.9,1.148,19.514s2.066,5.969,1.377,8.265c0,0,.459,3.9-.689,4.132s-4.362.689-4.592.459-.23-.918-.23-.918-2.3,1.607-2.525,3.444c0,0-9.642,2.984-9.872.23s4.821-5.051,4.821-5.051l3.9-5.969Z" transform="translate(-438.722 -423.066)" fill="#2f2e41"/>
    <path id="Caminho_316" data-name="Caminho 316" d="M581.484,254.48a7.347,7.347,0,0,1-14.515,1.607,7.122,7.122,0,0,1-.18-1.607,7.347,7.347,0,1,1,14.695,0Z" transform="translate(-429.269 -186.363)" fill="#ffb9b9"/>
    <path id="Caminho_317" data-name="Caminho 317" d="M556.118,308.513l5.7-2.961,2.564,2.042s6.2-.23,8.494,2.525,3.558,9.757,3.558,9.757-7.576-1.607-6.658,4.821l-1.377-3.673-1.263,3.1-15.382,5.28L544.869,317.7s-4.591-1.377-6.2,1.837c0,0,.344-11.594,4.821-11.938,3.011-.232,5.28-.23,5.28-.23l2.525-.459,1.617-.574Z" transform="translate(-410.333 -225.705)" fill="#575a89"/>
    <path id="Caminho_318" data-name="Caminho 318" d="M560.194,386.84S572.247,423,568.8,428.049c0,0-12.856,6.428-38.569-2.3l10.446-40.52A35.508,35.508,0,0,1,560.194,386.84Z" transform="translate(-404.652 -278.893)" fill="#2f2e41"/>
    <path id="Caminho_319" data-name="Caminho 319" d="M578.657,335.5l3.392-11.657c-4.069-4.425-.557-14.238-.557-14.238l-4.91-1.052s-4.927,13.287-9.978,11.68-2.3-11.938-2.3-11.938l-4.591.459-2.066,8.035,1.492,17.1A64.162,64.162,0,0,1,578.657,335.5Z" transform="translate(-423.115 -227.549)" fill="#575a89"/>
    <path id="Caminho_320" data-name="Caminho 320" d="M486.279,312.365l1.607-21.81.459-13.085-5.05.918v12.167l-1.033,22.154" transform="translate(-324.767 -186.856)" fill="#ffb9b9"/>
    <path id="Caminho_321" data-name="Caminho 321" d="M621.706,445.717s-6.658,12.4-.23,11.479,4.247-11.823,4.247-11.823" transform="translate(-464.212 -319.863)" fill="#fff"/>
    <path id="Caminho_322" data-name="Caminho 322" d="M638.557,325.188s-.816-11.79-7.64-11.749v13.635S636.032,324.04,638.557,325.188Z" transform="translate(-472.455 -231.015)" fill="#575a89"/>
    <path id="Caminho_323" data-name="Caminho 323" d="M596.094,268.482a.187.187,0,0,1-.117-.334l3.747-3a.187.187,0,1,1,.234.293l-3.747,3A.188.188,0,0,1,596.094,268.482Z" transform="translate(-448.878 -198.47)" fill="#fff"/>
    <path id="Caminho_324" data-name="Caminho 324" d="M575.793,277.991c-.082.1-.165.2-.251.3a7.347,7.347,0,0,1-10.2-5.081l3.55-.653,6.9.653C574.212,275.132,574.4,275.8,575.793,277.991Z" transform="translate(-428.293 -203.482)" fill="#fff"/>
    <path id="Caminho_325" data-name="Caminho 325" d="M555.2,236.026s-3.8.714-4.675,5.45a8.7,8.7,0,0,0-.074,2.418,6.826,6.826,0,0,1-2.019,5.1,49.622,49.622,0,0,0-3.6,4.628h0l3.968,1.056,1.773-6.573a33.629,33.629,0,0,1,3.929-9.031l.036-.058s1.318,3.521,4.85,4l-1.089-1.434a44.948,44.948,0,0,0,6.468,3.116,1.537,1.537,0,0,1,.5,2.673l-.051.039c-1.721,1.307-5.231,4.425-3.844,7.441s-.23,3.566-.23,3.566l2.982-1.134,1.365-.584-.138,1.009,6.663.14s1.8-.011-1.4-4.817a4.538,4.538,0,0,1-.138-3.179,7.312,7.312,0,0,0,.739-3.351C571,241.662,568.961,231.8,555.2,236.026Z" transform="translate(-414.477 -178.192)" fill="#2f2e41"/>
    <path id="Caminho_326" data-name="Caminho 326" d="M237.69,554.321s0,31.175-7.155,39.352c0,0-1.533,4.089-2.044,5.622a21.484,21.484,0,0,1-1.022,2.555V603.9s-13.8-1.533-15.332-5.111l2.555-3.066s.511-.511,0-2.044a1.05,1.05,0,0,1,1.022-1.533l3.577-8.177-.511-33.73,2.555-46.508,21.976-1.022Z" transform="translate(-190.436 -358.471)" fill="#2f2e41"/>
    <path id="Caminho_327" data-name="Caminho 327" d="M185.332,798.959s3.577,10.732,0,11.244-34.753,1.022-34.242-3.066,10.732-3.578,10.732-3.578l10.732-6.644Z" transform="translate(-149.322 -556.601)" fill="#2f2e41"/>
    <path id="Caminho_328" data-name="Caminho 328" d="M277.1,505.833a23.19,23.19,0,0,1-3.066,13.8c-4.089,7.155-1.533,31.175-1.533,31.175l36.286,31.686s-7.155,12.266-9.71,11.755-42.93-33.219-42.93-33.219l-15.843-53.151Z" transform="translate(-209.407 -360.579)" fill="#2f2e41"/>
    <path id="Caminho_329" data-name="Caminho 329" d="M422.984,736.429s10.98,2.724,9.5,6.019-17.742,29.9-20.921,27.28,2.724-10.98,2.724-10.98l.134-12.622Z" transform="translate(-324.1 -515.868)" fill="#2f2e41"/>
    <path id="Caminho_330" data-name="Caminho 330" d="M279.463,190.515a11.759,11.759,0,0,1-14.029,11.53,11.4,11.4,0,0,1-3.02-1.039,11.747,11.747,0,0,1-6.119-7.68,11.577,11.577,0,0,1-.342-2.811,11.755,11.755,0,1,1,23.51,0Z" transform="translate(-219.944 -140.319)" fill="#a0616a"/>
    <path id="Caminho_331" data-name="Caminho 331" d="M293.786,227.453l-.52,15.126-9.891,3.908s-.97-15.488-2.339-16.347S293.786,227.453,293.786,227.453Z" transform="translate(-236.772 -173.11)" fill="#a0616a"/>
    <path id="Caminho_332" data-name="Caminho 332" d="M245.8,264.006s13.8-13.8,17.376-13.288,3.577,2.044,3.577,3.066-1.022,1.533,0,2.044,2.044,0,2.044,1.533,9.2,16.865,6.133,33.731-6.644,25.042-5.111,34.242.511,11.244.511,11.244-38.33,3.066-38.842-.511,1.533-1.533-1.022-4.089-1.533-2.555-1.533-4.089S240.178,264.006,245.8,264.006Z" transform="translate(-201.613 -188.768)" fill="#575a89"/>
    <path id="Caminho_333" data-name="Caminho 333" d="M277.427,494.783S271.295,509.6,266.7,506.027s2.044-15.843,2.044-15.843Z" transform="translate(-226.085 -350.04)" fill="#fff"/>
    <path id="Caminho_334" data-name="Caminho 334" d="M294.54,294.373s12.008,1.375,7.537,23.43-21.847,47.609-21.847,47.609l-11.755-5.622,15.332-30.153-3.578-18.91S278.185,292.84,294.54,294.373Z" transform="translate(-228.376 -218.113)" fill="#575a89"/>
    <path id="Caminho_335" data-name="Caminho 335" d="M135.74,342.279l-16.866,28.109,1.533,1.533Z" transform="translate(-80.053 -230.5)" opacity="0.2"/>
    <path id="Caminho_336" data-name="Caminho 336" d="M169.96,382.389l-13.527,22.165h4.6Z" transform="translate(-105.346 -257.511)" opacity="0.2"/>
    <rect id="Retângulo_126" data-name="Retângulo 126" width="0.727" height="37.739" transform="translate(33.379 165.418) rotate(-20.877)" opacity="0.2"/>
    <circle id="Elipse_4248" data-name="Elipse 4248" cx="0.727" cy="0.727" r="0.727" transform="translate(43.533 76.59)" fill="#d0cde1"/>
    <line id="Linha_7" data-name="Linha 7" x1="6.18" y2="19.993" transform="translate(38.08 77.317)" fill="none"/>
    <path id="Caminho_337" data-name="Caminho 337" d="M261.544,317.408a.363.363,0,0,0,.347-.256l6.18-19.993a.363.363,0,0,0-.694-.215l-6.18,19.994a.364.364,0,0,0,.347.471Z" transform="translate(-223.464 -219.735)" fill="#d0cde1"/>
    <path id="Caminho_338" data-name="Caminho 338" d="M264.709,226.223l-2.938,2.795c-3.025-1.522-5.947-5.625-6.772-8.987l3.854-1.615C259.1,221.845,261.539,224.125,264.709,226.223Z" transform="translate(-219.301 -167.025)" fill="#fff"/>
    <path id="Caminho_339" data-name="Caminho 339" d="M272.383,219.88l-.035,0-6.831-.976a.244.244,0,1,1,.069-.483l6.831.976a.244.244,0,0,1-.034.486Z" transform="translate(-226.243 -167.025)" fill="#fff"/>
    <path id="Caminho_340" data-name="Caminho 340" d="M283.481,233.008a.244.244,0,0,1-.213-.364l2.263-4.029a.244.244,0,0,1,.425.239l-2.263,4.029A.243.243,0,0,1,283.481,233.008Z" transform="translate(-238.317 -173.809)" fill="#fff"/>
    <path id="Caminho_341" data-name="Caminho 341" d="M273.345,186.291a16.92,16.92,0,0,0-3.087-.92,8.076,8.076,0,0,1-5.366-9.054,4.619,4.619,0,0,0,.194-1.492,2.85,2.85,0,0,0-2.376-2.093,23.384,23.384,0,0,1-3.308-.63,5.01,5.01,0,0,1-2.923-4.018,8.3,8.3,0,0,1,1.109-5l.4,1.139a4.224,4.224,0,0,0,1.293-1.934,2.664,2.664,0,0,1,2.03,1.632c.635.375.727-1.164,1.428-1.39a1.26,1.26,0,0,1,.876.216c1.414.659,3.056.1,4.573-.27a17.213,17.213,0,0,1,7.991-.009,9.565,9.565,0,0,1,4.722,2.43,11.332,11.332,0,0,1,2.209,3.8,21.869,21.869,0,0,1,1.782,10.621,15.033,15.033,0,0,1-3.543,7.965c-1.011,1.165-4.312,5.231-6.121,4.538C272.95,190.944,276.024,187.708,273.345,186.291Z" transform="translate(-220.26 -129.032)" fill="#2f2e41"/>
  </g>
</svg>
