<svg xmlns="http://www.w3.org/2000/svg" xmlns:xlink="http://www.w3.org/1999/xlink" width="226.548" height="171" viewBox="0 0 226.548 171">
  <defs>
    <linearGradient id="linear-gradient" x1="0.5" y1="1" x2="0.5" gradientUnits="objectBoundingBox">
      <stop offset="0" stop-color="gray" stop-opacity="0.251"/>
      <stop offset="0.54" stop-color="gray" stop-opacity="0.122"/>
      <stop offset="1" stop-color="gray" stop-opacity="0.102"/>
    </linearGradient>
    <linearGradient id="linear-gradient-2" x1="0.5" x2="0.5" y2="0" xlink:href="#linear-gradient"/>
    <linearGradient id="linear-gradient-3" x1="0.5" x2="0.5" y2="0" xlink:href="#linear-gradient"/>
    <linearGradient id="linear-gradient-4" x1="1.096" x2="1.096" y2="0" xlink:href="#linear-gradient"/>
    <linearGradient id="linear-gradient-5" x1="0.5" x2="0.5" y2="0" xlink:href="#linear-gradient"/>
  </defs>
  <g id="team-mobile" transform="translate(0.013 -0.004)" opacity="0.15">
    <path id="Caminho_36" data-name="Caminho 36" d="M43.44,426.65c3.585,13.953,11.175,26.015,23.17,31.861,24.939,12.151,81.147,5.884,123.1-1.309,21.708-3.722,40.776-13.983,54.635-28.443Z" transform="translate(-41.008 -345.79)" fill="#4dba80" opacity="0.1"/>
    <path id="Caminho_37" data-name="Caminho 37" d="M286.747,35.324H263.729a1.82,1.82,0,1,1,0-3.624h3.983a1.819,1.819,0,1,1,0-3.622H264.87a1.82,1.82,0,1,1,0-3.624h12.014a34.07,34.07,0,0,0-9.371-2.351c-32.76-3.833-44.458-1.3-48.59,1.309a48.246,48.246,0,0,1-16.837,6.721c-20.213,3.8-58.013,8.366-92.275-1.464C92.782,23.785,80.127,32.05,72.54,45.836h218.2a29.964,29.964,0,0,0-2.7-10.954A2.089,2.089,0,0,1,286.747,35.324Z" transform="translate(-64.32 -20.14)" fill="#4dba80" opacity="0.1"/>
    <path id="Caminho_38" data-name="Caminho 38" d="M31.642,280.23a84.226,84.226,0,0,0,.894,24.344l202.1,6.731a86.158,86.158,0,0,0,14.041-19.493ZM111.57,297.6h-3.983a1.819,1.819,0,1,1,0,3.622H84.579a1.819,1.819,0,1,1,0-3.622h3.983a1.82,1.82,0,1,1,0-3.624H85.716a1.819,1.819,0,1,1,0-3.622h23.018a1.819,1.819,0,1,1,0,3.622h2.836a1.82,1.82,0,1,1,0,3.624Z" transform="translate(-31.16 -228.494)" fill="#4dba80" opacity="0.1"/>
    <path id="Caminho_39" data-name="Caminho 39" d="M259.7,149.94,39.067,154.827a73.955,73.955,0,0,0-5.287,20.75H255.836a79.289,79.289,0,0,0,3.206-13.225A57.225,57.225,0,0,0,259.7,149.94ZM78.578,165.954H74.6a1.82,1.82,0,1,1,0,3.624H51.58a1.82,1.82,0,1,1,0-3.624h3.983a1.819,1.819,0,1,1,0-3.622H52.717a1.82,1.82,0,1,1,0-3.624H75.735a1.82,1.82,0,1,1,0,3.624h2.844a1.819,1.819,0,1,1,0,3.622Z" transform="translate(-33.269 -124.119)" fill="#4dba80" opacity="0.1"/>
    <ellipse id="Elipse_4178" data-name="Elipse 4178" cx="14.964" cy="3.36" rx="14.964" ry="3.36" transform="translate(117.319 145.811)" fill="#4dba80" opacity="0.1"/>
    <ellipse id="Elipse_4179" data-name="Elipse 4179" cx="26.995" cy="2.216" rx="26.995" ry="2.216" transform="translate(140.161 157.624)" fill="#4dba80" opacity="0.1"/>
    <ellipse id="Elipse_4180" data-name="Elipse 4180" cx="26.995" cy="3.36" rx="26.995" ry="3.36" transform="translate(31.516 153.12)" fill="#4dba80" opacity="0.1"/>
    <ellipse id="Elipse_4181" data-name="Elipse 4181" cx="20.312" cy="3.36" rx="20.312" ry="3.36" transform="translate(79.468 136.303)" fill="#4dba80" opacity="0.1"/>
    <ellipse id="Elipse_4182" data-name="Elipse 4182" cx="16.261" cy="3.36" rx="16.261" ry="3.36" transform="translate(89.199 164.285)" fill="#4dba80" opacity="0.1"/>
    <path id="Caminho_40" data-name="Caminho 40" d="M450.751,175.347c-.43-2.892-3.057-9.641-3.057-9.641h0q-.069-.3-.155-.6c-1.864-6.4-4.444-6.962-4.444-6.962l-9.241-1.989a.717.717,0,0,1,.2.185,1.287,1.287,0,0,0-.145.022,3.62,3.62,0,0,1-.81-1.75c-.018-.1-.034-.2-.046-.3a6.5,6.5,0,0,0-.529-9.772c-.1-.076-.2-.149-.3-.219a1.473,1.473,0,0,0,.123-1.752,6.108,6.108,0,0,0-3.938-2.936,6.677,6.677,0,0,0-3.823-.082,13.811,13.811,0,0,0-2,.929,11.25,11.25,0,0,0-3.5,2.106,1.028,1.028,0,0,0-.35.845,2.281,2.281,0,0,0,.348.615,1.855,1.855,0,0,1,.018,1.54,14.925,14.925,0,0,0-.571,1.48,1.547,1.547,0,0,0,.308,1.486,6.556,6.556,0,0,0,.577.4,3.024,3.024,0,0,1,.551.619q.549.736,1.094,1.478a15.223,15.223,0,0,1,1.37,2.083,10.151,10.151,0,0,0,.847,1.591,2.361,2.361,0,0,0,.364.382l-.107-.042a1.657,1.657,0,0,0,1.215.5h.056a.334.334,0,0,0,.223-.091v.2c.022.71.018,1.466-.032,2.176l-.086-.044a.746.746,0,0,0-.8.084l-8.507,6.826a11.2,11.2,0,0,0-1.591,6.9l-1.492,6.55s-1.864,5.557-.43,9.526,2.266,6.238,2.266,6.238.573,4.509,1.434,4.877,1.233.567,1.233.567l.171,1.078h0s.058.105.159.282c.627,1.09,2.948,4.937,4.3,4.525a17.25,17.25,0,0,1,.219,3.161l1.335,8.961a13.182,13.182,0,0,1,.873,3.714,7.077,7.077,0,0,0,1.086,3.1,5.917,5.917,0,0,0-.573,4.167c.545,2.387,1.233,13.382,1.233,13.382l.995,2.665-.028,3.125a2.984,2.984,0,0,1-.617,1.392c-.644.7-.6,1.51-2.15,2.466s-2.538,1.319-2.538,2.586a3.332,3.332,0,0,1-.048.527c-.143.931-.422,1.436,2.435,1.707a7.531,7.531,0,0,0,5.593-1.87s.493-.9,2.817-1.257c0,0,.8-.042.837-.744.016-.243.012-.706,0-1.217a7.5,7.5,0,0,0-.255-2.164,4.716,4.716,0,0,1-.519-1.4H433a28.284,28.284,0,0,0,0-7.429,12.052,12.052,0,0,1-.058-4.991l-.115-7.712a2.2,2.2,0,0,1-.171-2.355c.625-1.5,0-8.931,0-8.931s.231-2.665.889-3.29.032-3.9,0-4.076l1.174,3.936s.515,7.825,1.607,9.241l.314,3.544s2.236,3.262,1.806,5.018.459,8.109.459,8.109v6.494s-1,2.608.4,3.544l.6-.024c-.2.185-.352.463-.585.7a5.377,5.377,0,0,0-.507,2.234c-.072.766-.1,1.424-.1,1.424a2.345,2.345,0,0,0,1.721,1.02c1.124.066,4.827,2.882,4.827,2.882a43.808,43.808,0,0,0,4.6-.2l.056-.014a1.244,1.244,0,0,0,.714-.583,1.492,1.492,0,0,0,.171-1.072,2.677,2.677,0,0,0-1.544-1.693c-2.445-1.289-2.809-2.5-2.809-2.5l-1.605-2.409h.229a10.3,10.3,0,0,1,1.605-5.416l-.113-12.617s.716-4.338-.515-6.693c0,0-.1-2.494.722-3.26s-1.1-8.505-1.1-8.505-.4-4.155-.865-7.946h0c1.935,1.836,3.942-4.774,4.28-5.949h.05l-.022-.086c.014-.056.022-.084.022-.084h0s-.43-1.528-.115-1.217,1.09-.851,1.09-.851-.115-6.323,1.233-9.51S450.751,175.347,450.751,175.347Zm-5.768,4.024.01-.018c.2,3.861-.038,12.1-.038,12.1s-.267,1.056-.551,2.3l-.2-7.827h0l-.2-7.373ZM420.3,176.71s.975,12.191,0,13.949a9.21,9.21,0,0,0-.7,2.409c-.322-.845-1-2.83-.76-3.883.316-1.361-.63-4.935-.63-5.018a8.479,8.479,0,0,1,.6-3.445c.682-1.456.235-2.087.235-2.087S419.608,176.248,420.3,176.71Z" transform="translate(-335.798 -115.607)" fill="url(#linear-gradient)"/>
    <path id="Caminho_41" data-name="Caminho 41" d="M446.7,440.959c-.849,3.733-4.227-1.911-5-3.266-.1-.177-.155-.28-.155-.28l.366-1.717,1.935-.8a5.4,5.4,0,0,1,.867.565A5.228,5.228,0,0,1,446.7,440.959Z" transform="translate(-359.837 -352.399)" fill="#d38884"/>
    <path id="Caminho_42" data-name="Caminho 42" d="M576.763,430.8a.261.261,0,0,1-.022.084.424.424,0,0,1-.026.089c-.332,1.166-2.3,7.727-4.2,5.905-2.081-1.989-1.07-6.588-1.07-6.588h.014l4.376-.448.867.891h0Z" transform="translate(-463.667 -348.345)" fill="#d38884"/>
    <path id="Caminho_43" data-name="Caminho 43" d="M478.647,465.124l.111,12.531a10.277,10.277,0,0,0-1.575,5.37l-5.657.223c-1.38-.929-.4-3.517-.4-3.517v-6.453s-.873-6.3-.452-8.05-1.772-4.973-1.772-4.973l-.31-3.519c-1.07-1.406-1.577-9.174-1.577-9.174l-1.148-3.922c.032.169.628,3.443,0,4.046s-.873,3.264-.873,3.264.619,7.375,0,8.865a2.194,2.194,0,0,0,.167,2.337l.113,7.656a11.972,11.972,0,0,0,.056,4.953,28.161,28.161,0,0,1,0,7.375h-6.069l.028-3.125-.983-2.645s-.676-10.92-1.211-13.285a5.935,5.935,0,0,1,.561-4.137,7.039,7.039,0,0,1-1.068-3.067,13.116,13.116,0,0,0-.867-3.684l-1.309-8.893a17.278,17.278,0,0,0-.648-5.066c-.76-2.534-1.886-5.856-1.886-5.856l1.271.113,6.413.571s15.592-1.048,16.29-.177a2.925,2.925,0,0,1,.294.909c.7,3.145,1.625,13,1.625,13s1.886,7.684,1.076,8.444-.71,3.234-.71,3.234C479.353,460.807,478.647,465.124,478.647,465.124Z" transform="translate(-368.1 -350.38)" fill="#444053"/>
    <path id="Caminho_44" data-name="Caminho 44" d="M473.688,682.422c-.044.7-.821.74-.821.74-2.279.358-2.765,1.245-2.765,1.245a7.321,7.321,0,0,1-5.488,1.858c-2.8-.271-2.532-.77-2.387-1.695a3.5,3.5,0,0,0,.046-.521c0-1.267.971-1.627,2.49-2.586s1.478-1.752,2.11-2.449a3.879,3.879,0,0,0,.7-2.047c.716-1.247,2.532.2,2.532.2.086.442,2.785.38,2.785.38a5.946,5.946,0,0,0,.543,1.52,7.467,7.467,0,0,1,.249,2.148C473.7,681.722,473.7,682.181,473.688,682.422Z" transform="translate(-376.327 -545.912)" fill="#b07473"/>
    <path id="Caminho_45" data-name="Caminho 45" d="M473.688,701.583c-.044.7-.821.74-.821.74-2.279.358-2.765,1.245-2.765,1.245a7.321,7.321,0,0,1-5.488,1.858c-2.8-.271-2.532-.77-2.387-1.695,1.253.31,3.648.744,5.046-.016,1.943-1.054,3.338-1.79,3.338-1.79l3.071-1.546C473.7,700.883,473.7,701.343,473.688,701.583Z" transform="translate(-376.327 -565.074)" opacity="0.1"/>
    <path id="Caminho_46" data-name="Caminho 46" d="M559.47,689.423a1.213,1.213,0,0,1-.7.579l-.054.014a42.192,42.192,0,0,1-4.519.2s-3.63-2.807-4.728-2.87a2.309,2.309,0,0,1-1.689-1.014s.022-.652.091-1.412a5.392,5.392,0,0,1,.5-2.218c.485-.507.6-1.193,1.689-.76,0,0,1.559-2.749,3.4-.625l1.9,2.884s.358,1.193,2.767,2.488a2.669,2.669,0,0,1,1.514,1.681A1.482,1.482,0,0,1,559.47,689.423Z" transform="translate(-444.91 -549.156)" fill="#b07473"/>
    <path id="Caminho_47" data-name="Caminho 47" d="M559.47,707.175c-.215.181-.452.376-.7.579l-.054.014a42.2,42.2,0,0,1-4.519.2s-3.63-2.806-4.728-2.87a2.309,2.309,0,0,1-1.689-1.014s.022-.652.091-1.412c1.118.334,2.811.925,3.264,1.561a13.832,13.832,0,0,0,2.811,2.321s3.942-.38,5.693-.432A1.482,1.482,0,0,1,559.47,707.175Z" transform="translate(-444.91 -566.908)" opacity="0.1"/>
    <path id="Caminho_48" data-name="Caminho 48" d="M487.077,204.942l-5.191,5.488s-6.291-.463-5.193-2.321c.559-.947.646-2.928.6-4.65-.046-1.661-.217-3.075-.217-3.075s8.823-4.392,8.155-.3a6.74,6.74,0,0,0-.024,2.337A3.063,3.063,0,0,0,487.077,204.942Z" transform="translate(-387.876 -162.892)" fill="#d38884"/>
    <path id="Caminho_49" data-name="Caminho 49" d="M487.267,200.086a6.741,6.741,0,0,0-.024,2.337,6.476,6.476,0,0,1-4.619,1.927c-1.193,0-2.484-.981-3.449-1.547-.046-1.663-.056-2.421-.056-2.421S487.943,195.991,487.267,200.086Z" transform="translate(-389.924 -162.892)" opacity="0.1"/>
    <path id="Caminho_50" data-name="Caminho 50" d="M477.043,167.992a6.5,6.5,0,1,1-2.447-5.08A6.5,6.5,0,0,1,477.043,167.992Z" transform="translate(-377.843 -133.373)" fill="#d38884"/>
    <path id="Caminho_51" data-name="Caminho 51" d="M480.114,434.237c-1.619,3.853-12.034,3.932-12.034,3.932v-4.2l-.63-.042a14.469,14.469,0,0,1-.382,4.137c-8.231,1.162-10.238-3.529-10.238-3.529l.286-1.605,6.413.571s15.592-1.048,16.29-.177A2.928,2.928,0,0,1,480.114,434.237Z" transform="translate(-372.066 -350.821)" opacity="0.1"/>
    <path id="Caminho_52" data-name="Caminho 52" d="M468.08,273.157v-4.2l-.63-.04a14.515,14.515,0,0,1-.382,4.137c-6.194.873-8.863-1.565-9.8-2.826a3.846,3.846,0,0,1-.434-.7l2.514-14.142.6-20.813.9-3.652.209-1.752v-.02h.022l.64.274,3.833,1.657,4.354-3.288.064-.046.217-.165.36.288.9.718,2.87,18.536s4.973,14.271,5.9,20.032c.038.231.068.446.091.646C480.915,273.06,468.08,273.157,468.08,273.157Z" transform="translate(-372.066 -186.316)" fill="#4dba80"/>
    <circle id="Elipse_4183" data-name="Elipse 4183" cx="0.37" cy="0.37" r="0.37" transform="translate(93.575 44.803)" fill="#67647e"/>
    <circle id="Elipse_4184" data-name="Elipse 4184" cx="0.37" cy="0.37" r="0.37" transform="translate(93.746 48.18)" fill="#67647e"/>
    <circle id="Elipse_4185" data-name="Elipse 4185" cx="0.37" cy="0.37" r="0.37" transform="translate(94.117 53.648)" fill="#67647e"/>
    <circle id="Elipse_4186" data-name="Elipse 4186" cx="0.37" cy="0.37" r="0.37" transform="translate(94.728 59.537)" fill="#67647e"/>
    <circle id="Elipse_4187" data-name="Elipse 4187" cx="0.37" cy="0.37" r="0.37" transform="translate(95.098 65.067)" fill="#67647e"/>
    <circle id="Elipse_4188" data-name="Elipse 4188" cx="0.37" cy="0.37" r="0.37" transform="translate(95.469 70.957)" fill="#67647e"/>
    <circle id="Elipse_4189" data-name="Elipse 4189" cx="0.37" cy="0.37" r="0.37" transform="translate(95.321 76.783)" fill="#67647e"/>
    <path id="Caminho_53" data-name="Caminho 53" d="M461.289,263.52s-.414,5.416-1.174,6.992-1.1,5.995-1.1,5.995l-1.764-.2a3.848,3.848,0,0,1-.434-.7l2.514-14.142.6-20.813.9-3.654.209-1.752.024-.01a.712.712,0,0,1,.629.01l.084.044q-.038.107-.072.221a33.806,33.806,0,0,0-.945,6.124s.995,7.262,1.1,10.639S461.289,263.52,461.289,263.52Z" transform="translate(-372.067 -192.394)" opacity="0.1"/>
    <path id="Caminho_54" data-name="Caminho 54" d="M444.719,435.471a1.022,1.022,0,0,1-.068.131,6.333,6.333,0,0,1-2.946,2.09c-.1-.177-.155-.28-.155-.28l.366-1.717,1.935-.8A5.4,5.4,0,0,1,444.719,435.471Z" transform="translate(-359.838 -352.399)" opacity="0.1"/>
    <path id="Caminho_55" data-name="Caminho 55" d="M417.711,298.81l-1.605.957-1.462,6.5s-1.83,5.516-.424,9.456,2.224,6.2,2.224,6.2.563,4.475,1.408,4.841,1.209.563,1.209.563l.169,1.07a6.685,6.685,0,0,0,3.1-2.148c.81-1.37-.6-4.774-.6-4.774s-1.209-2.9-.9-4.251-.621-4.9-.621-4.973a8.428,8.428,0,0,1,.6-3.421c.68-1.45.227-2.069.227-2.069l-.424-4.137Z" transform="translate(-337.523 -243.378)" fill="#67647e"/>
    <path id="Caminho_56" data-name="Caminho 56" d="M532.47,269.083s-4.251,1.6-5.6.2-1.211-7.994-1.211-7.994-1.293-12.159-2.11-14.156-.4-16.41-.4-16.41a8.735,8.735,0,0,0-1.028-2.351.52.52,0,0,0-.1-.082l.165.036.577.123.9.718,2.87,18.536s4.973,14.271,5.9,20.032Z" transform="translate(-424.28 -186.885)" opacity="0.1"/>
    <path id="Caminho_57" data-name="Caminho 57" d="M577.734,430.95h-.048c-.535.07-5.257.641-5.277-.342a2.88,2.88,0,0,1,.018-.34l4.376-.448.867.891h0c.016.058.028.107.04.147Z" transform="translate(-464.638 -348.329)" opacity="0.1"/>
    <path id="Caminho_58" data-name="Caminho 58" d="M573.2,266.07l3.1,1.619s2.586,6.7,3,9.565c0,0,1.915,7.69.6,10.852s-1.209,9.44-1.209,9.44-.76,1.154-1.07.845.113,1.209.113,1.209-5.3.7-5.327-.338a54.4,54.4,0,0,1,1.217-6.023s.338-11.849-.141-13.707S573.2,266.07,573.2,266.07Z" transform="translate(-464.636 -217.15)" fill="#67647e"/>
    <path id="Caminho_59" data-name="Caminho 59" d="M519.648,329.52s-1.746,4.276-2.309,4.559.113,1.406.113,1.406S520.632,331.04,519.648,329.52Z" transform="translate(-420.356 -267.98)" opacity="0.1"/>
    <path id="Caminho_60" data-name="Caminho 60" d="M513.638,254.091c.02-.082-2.082,2.063-2.645,2.387S513.047,256.458,513.638,254.091Z" transform="translate(-415.39 -207.552)" opacity="0.1"/>
    <path id="Caminho_61" data-name="Caminho 61" d="M483.809,327.82s-3.208,2.075-2.785,2.9S483.809,327.82,483.809,327.82Z" transform="translate(-391.422 -266.618)" opacity="0.1"/>
    <path id="Caminho_62" data-name="Caminho 62" d="M524.47,480.07a17.174,17.174,0,0,0,6.98,2.188Z" transform="translate(-426.244 -388.584)" opacity="0.1"/>
    <path id="Caminho_63" data-name="Caminho 63" d="M491.5,501.3s2.532,3.182,3.688,3.264S491.5,501.3,491.5,501.3Z" transform="translate(-399.841 -405.592)" opacity="0.1"/>
    <path id="Caminho_64" data-name="Caminho 64" d="M497.025,564c-.113.056-1.436,2.87-2.785,2.956S497.025,564,497.025,564Z" transform="translate(-401.82 -455.82)" opacity="0.1"/>
    <path id="Caminho_65" data-name="Caminho 65" d="M568.33,594.664s2.51-.563,3.069,1.237C571.4,595.9,571.23,595.333,568.33,594.664Z" transform="translate(-461.372 -480.319)" opacity="0.1"/>
    <path id="Caminho_66" data-name="Caminho 66" d="M559.84,645.876s3.041-.621,3.688.225S559.84,645.876,559.84,645.876Z" transform="translate(-454.573 -521.235)" opacity="0.1"/>
    <path id="Caminho_67" data-name="Caminho 67" d="M504.562,654c0,.028-3.095.621-2.984,1.014s3.3.338,3.415-.282a.6.6,0,0,0-.432-.732Z" transform="translate(-407.91 -527.919)" opacity="0.1"/>
    <path id="Caminho_68" data-name="Caminho 68" d="M554.75,666.7s5.086-.621,4.774.45S554.75,666.7,554.75,666.7Z" transform="translate(-450.496 -537.949)" opacity="0.1"/>
    <path id="Caminho_69" data-name="Caminho 69" d="M420.89,352.44c.028.084,3.35.535,3.8,1.605a28.568,28.568,0,0,0-3.779-1.522" transform="translate(-343.292 -286.341)" opacity="0.1"/>
    <path id="Caminho_70" data-name="Caminho 70" d="M434.021,396.16s-2.759.873-2.562,2.188S431.179,397.739,434.021,396.16Z" transform="translate(-351.749 -321.365)" opacity="0.1"/>
    <path id="Caminho_71" data-name="Caminho 71" d="M437.92,425.181s1-1.378,1.961-1.126S437.92,425.181,437.92,425.181Z" transform="translate(-356.932 -343.687)" opacity="0.1"/>
    <path id="Caminho_72" data-name="Caminho 72" d="M474.635,162.907a1.567,1.567,0,0,1-.322.241,3.713,3.713,0,0,0-1.392,2,4.256,4.256,0,0,1-1.45,1.979c-.917.553-2.124.35-3.077.831a2.387,2.387,0,0,0-1.273,2.353,6.79,6.79,0,0,0,.271,1.078,7.689,7.689,0,0,1,.29,2.341.4.4,0,0,1,0,.07,6.5,6.5,0,1,1,6.962-10.894Z" transform="translate(-377.883 -133.368)" opacity="0.1"/>
    <path id="Caminho_73" data-name="Caminho 73" d="M461.391,145.757a6,6,0,0,0-3.865-2.914,6.491,6.491,0,0,0-3.753-.08,13.766,13.766,0,0,0-1.963.921,11.1,11.1,0,0,0-3.437,2.091,1.047,1.047,0,0,0-.344.839,2.344,2.344,0,0,0,.34.609,1.847,1.847,0,0,1,.018,1.53,14.032,14.032,0,0,0-.561,1.47,1.546,1.546,0,0,0,.3,1.474,5.509,5.509,0,0,0,.569.4,2.994,2.994,0,0,1,.539.613l1.074,1.468a14.89,14.89,0,0,1,1.345,2.067,9.848,9.848,0,0,0,.831,1.577,1.8,1.8,0,0,0,1.508.806.292.292,0,0,0,.239-.113.314.314,0,0,0,.03-.149,7.633,7.633,0,0,0-.284-2.333,6.741,6.741,0,0,1-.271-1.078,2.4,2.4,0,0,1,1.273-2.353c.955-.481,2.162-.278,3.077-.829a4.227,4.227,0,0,0,1.45-1.989,3.744,3.744,0,0,1,1.392-2A1.4,1.4,0,0,0,461.391,145.757Z" transform="translate(-364.811 -118.176)" fill="#585268"/>
    <path id="Caminho_74" data-name="Caminho 74" d="M501.63,693.06s.995,1.267.736,1.989S501.63,693.06,501.63,693.06Z" transform="translate(-407.955 -559.21)" opacity="0.1"/>
    <path id="Caminho_75" data-name="Caminho 75" d="M569.28,702s.221-1.7,1.106-1.715a2.962,2.962,0,0,1,1.605.169c.676.26,1.311.664,1.108.724s-1.164-.971-2.15-.444A7.106,7.106,0,0,0,569.28,702Z" transform="translate(-462.133 -564.983)" opacity="0.1"/>
    <path id="Caminho_76" data-name="Caminho 76" d="M476.264,239.559l2.785-1.951s-4.074-2.407-4.559-2.069-.819,3.381-.819,3.381Z" transform="translate(-385.561 -192.666)" opacity="0.1"/>
    <path id="Caminho_77" data-name="Caminho 77" d="M476.2,238.777l2.785-1.989s-4.074-2.407-4.559-2.069-.82,3.548-.82,3.548Z" transform="translate(-385.513 -192.009)" fill="#e1e7ef"/>
    <path id="Caminho_78" data-name="Caminho 78" d="M476.2,238.777l2.785-1.989s-4.074-2.407-4.559-2.069-.82,3.548-.82,3.548Z" transform="translate(-385.513 -192.009)" fill="#4dba80"/>
    <path id="Caminho_79" data-name="Caminho 79" d="M436.526,234.444l-.084-.042a.722.722,0,0,0-.782.082l-8.354,6.777a11.219,11.219,0,0,0-1.563,6.846l4.927,6.98s.563-2.363,1.237-1.913c0,0,.957,12.1,0,13.848s-1.378,8.274-1.378,8.274l3.236.366s.338-4.42,1.1-5.995,1.174-6.992,1.174-6.992.684-7.869.571-11.246-1.1-10.639-1.1-10.639A32.246,32.246,0,0,1,436.526,234.444Z" transform="translate(-347.156 -191.718)" fill="#67647e"/>
    <path id="Caminho_80" data-name="Caminho 80" d="M507.911,232.554l-3.471-1.285s4.42-4.841,4.973-2.156Z" transform="translate(-410.204 -186.894)" opacity="0.1"/>
    <path id="Caminho_81" data-name="Caminho 81" d="M507.911,231.7l-3.471-1.285s4.42-4.841,4.973-2.156Z" transform="translate(-410.204 -186.213)" fill="#e1e7ef"/>
    <path id="Caminho_82" data-name="Caminho 82" d="M507.911,231.7l-3.471-1.285s4.42-4.841,4.973-2.156Z" transform="translate(-410.204 -186.213)" fill="#4dba80"/>
    <path id="Caminho_83" data-name="Caminho 83" d="M521.32,228.11a.2.2,0,0,1,.143.032Z" transform="translate(-423.725 -186.738)" opacity="0.1"/>
    <path id="Caminho_84" data-name="Caminho 84" d="M523,226.416l9.209,1.989s2.534.563,4.364,6.924-2.506,14.154-2.506,14.154l-.957-.813.479,18.576s-4.251,1.6-5.6.2-1.209-8-1.209-8-1.295-12.157-2.112-14.156-.4-16.408-.4-16.408S523.517,226.3,523,226.416Z" transform="translate(-425.063 -185.381)" fill="#67647e"/>
    <path id="Caminho_85" data-name="Caminho 85" d="M564.874,285.6a52.708,52.708,0,0,0,.282,10.019,54.613,54.613,0,0,0,1.591,7.712l-.835-17.14S565.267,285.238,564.874,285.6Z" transform="translate(-458.508 -232.732)" opacity="0.1"/>
    <path id="Caminho_86" data-name="Caminho 86" d="M559.7,261.6c.225.141,1.211,2.476.76,3.433S559.7,261.6,559.7,261.6Z" transform="translate(-454.462 -213.569)" opacity="0.1"/>
    <path id="Caminho_87" data-name="Caminho 87" d="M481.385,150.25a5.084,5.084,0,0,0-2.025-2.12,4.815,4.815,0,0,1,1.518,1.79,1.414,1.414,0,0,1-.493,2.027,3.725,3.725,0,0,0-1.392,2,4.324,4.324,0,0,1-1.452,1.989c-.915.553-2.122.348-3.077.829a2.4,2.4,0,0,0-1.273,2.355,6.761,6.761,0,0,0,.272,1.076,7.7,7.7,0,0,1,.29,2.341.315.315,0,0,1-.032.149.284.284,0,0,1-.237.113,1.37,1.37,0,0,1-.694-.129,1.615,1.615,0,0,0,1.193.467.235.235,0,0,0,.267-.263,7.631,7.631,0,0,0-.288-2.341,6.532,6.532,0,0,1-.272-1.078,2.4,2.4,0,0,1,1.273-2.353c.955-.481,2.162-.278,3.077-.829a4.227,4.227,0,0,0,1.45-1.989,3.745,3.745,0,0,1,1.392-2A1.416,1.416,0,0,0,481.385,150.25Z" transform="translate(-384.855 -122.669)" opacity="0.1"/>
    <path id="Caminho_88" data-name="Caminho 88" d="M644.713,193.645c-2.741-.054-5.16-1.989-6.53-4.354a4.376,4.376,0,0,1-.66-1.864,2.15,2.15,0,0,1,.076-.446,4.619,4.619,0,0,0,.2-.682,1.2,1.2,0,0,0,0-.278s0,0,0-.016a1.646,1.646,0,0,0-.6-1.339c-.366-.344-.825-.6-1.207-.939a5.654,5.654,0,0,1-1.557-4.272v-.084c.014-.676.068-1.355.062-2.031a8.55,8.55,0,0,0-.05-1.15,3.8,3.8,0,0,0-1.229-2.542c-1.961-1.591-5.259.066-7.29-1.438-.493-.368-.893-.911-1.492-1.054a2.513,2.513,0,0,0-1.362.185c-1.5.493-3.165,1.142-3.749,2.586-.334.829-.241,1.776-.547,2.616a13.052,13.052,0,0,1-.855,1.579,2.471,2.471,0,0,0-.318,1.319,1.488,1.488,0,0,0,.1.7,1.79,1.79,0,0,0,.487.7,2.314,2.314,0,0,1-.29.465c-.382.467-.969.8-1.366,1.261a2.979,2.979,0,0,0-.346,3.015c.362,1,1.016,1.915,1.468,2.892a1.552,1.552,0,0,1,.149,1.319,3.781,3.781,0,0,1-.66.768,2.412,2.412,0,0,0-.6,1.333c-4.477,1.022-4.481,4.621-4.481,4.621h0l-2.419,6.083s-.388,1.024-.843,2.377l-2.862-.513,1.989,3.33a10.513,10.513,0,0,0-.555,3.246s-.889,4.177.692,4.907l3.489,1.569a2.068,2.068,0,0,0,.483.217l.141.064a.374.374,0,0,0,.326,0h.048a.469.469,0,0,0,.2-.03.4.4,0,0,0,.175-.189.061.061,0,0,1,0-.02l1.044-.3.885,1.048c.4.28.8.523,1.172.742l-1.37,13.609s-.221,18.1-.889,22.226a11.556,11.556,0,0,0-.155,3.278l-.026.044c.165,1.164.6,1.392.6,1.392v-.016a.133.133,0,0,0,.026.016,11.71,11.71,0,0,1,.716-1.536v.3c-.014,1.536-.062,3.686-.221,5.084-.271,2.387.692,10.254.692,10.254l.332,7.161a6.619,6.619,0,0,1-.816,3.489,16.467,16.467,0,0,0-1.885,4.336.887.887,0,0,0,0,.145h0l-1.707,2.053s-.666,1.03.839,1.446a8.06,8.06,0,0,0,3.328-.265,2.224,2.224,0,0,0,1.725-2.164,7.658,7.658,0,0,1,1.408-2.7l.28,1.649,1.878.465.241-4.519a1.988,1.988,0,0,0,.129-.8h0c.37-3.214-.871-2.926-.871-2.926a.173.173,0,0,1,.06.111l-.06-.109h0a8.13,8.13,0,0,1-.4-3.978s.994-7.161,1.335-9.052a65.655,65.655,0,0,0,.062-8.155,2.928,2.928,0,0,0-.01-.3c2.912-.038,6.48-.135,8.984-.378v.294l-.461,16.917a9.287,9.287,0,0,1-.648,3.147.172.172,0,0,1-.022.058,13.724,13.724,0,0,0-.917,4.434l-.215,5.37v.149h0c-.374.143-.965.559-.981,1.764-.026,1.766,3.087,1.178,3.087,1.178,3.111,0,3.137-3.238,3.137-3.238s.1-2.97.247-4.957-.469-1.549-.469-1.549l-.048,5.653v-4.911l.048-.718v-.02h0v-.153l.392-5.83s2.866-9.715,3.31-11.578a43.683,43.683,0,0,0,.082-7.521,1.745,1.745,0,0,0-.016-.292c.889-.08,1.675-.088,1.989-.088h.145s-.147-15.6-.519-21.482-.963-11.26-2.445-12.879c-.9-.979-2.142-4-2.984-6.238a31.2,31.2,0,0,0,5.484,1.79c4.692.983,4.05-3.091,4.05-3.091l-.475-7.7h.032a39.269,39.269,0,0,0-.517-6.023,17.721,17.721,0,0,0-1.209-4.376c.509-.2,1.012-.412,1.506-.631,1.275-.563,2.711-1.361,2.894-2.735h-.062a1.783,1.783,0,0,0,.048-.3Zm-29.086,11.139h0c.01.8-.02,2.176-.068,3.7l-1.49-1.989,1.494-2.423ZM635.589,208.824Zm.621,3.009-2.482-.8a11.141,11.141,0,0,1,1.534-1.9l.215-.2-.078.016.119-.109.072-.016-.113.109.135-.028a4.235,4.235,0,0,0,.845,1.7c.891.973-.245,1.219-.245,1.219Z" transform="translate(-491.468 -141.085)" fill="url(#linear-gradient-2)"/>
    <path id="Caminho_89" data-name="Caminho 89" d="M640.952,715.66l-.29,5.506-1.852-.463-.39-2.289Z" transform="translate(-511.3 -573.308)" fill="#a27772"/>
    <path id="Caminho_90" data-name="Caminho 90" d="M640.952,715.66l-.29,5.506-1.852-.463-.39-2.289Z" transform="translate(-511.3 -573.308)" opacity="0.1"/>
    <path id="Caminho_91" data-name="Caminho 91" d="M716.48,625.677l2.825.585,2.094-1.85V619.2l.048-.712v-.022h0v-.151l.39-5.794s2.826-9.645,3.266-11.5a43.675,43.675,0,0,0,.078-7.465c-.042-.9-.078-1.5-.078-1.5l-6.236-1.51-.131,4.794-.455,16.8a9.307,9.307,0,0,1-.638,3.125l-.022.058a13.671,13.671,0,0,0-.9,4.4l-.211,5.341v.147Z" transform="translate(-580.017 -477.089)" fill="#cc818c"/>
    <path id="Caminho_92" data-name="Caminho 92" d="M741.45,730.134v.147h0v-.151Z" transform="translate(-600.021 -588.906)" opacity="0.1"/>
    <path id="Caminho_93" data-name="Caminho 93" d="M716.48,760.269l2.825.585L721.4,759v-.444a.6.6,0,0,1-.3.477l-.03.018a5.629,5.629,0,0,1-3.171.627l-1.1-.094a1.03,1.03,0,0,0-.292.072v.147Z" transform="translate(-580.019 -611.681)" opacity="0.1"/>
    <path id="Caminho_94" data-name="Caminho 94" d="M717.239,736.87l.03-.016a.6.6,0,0,0,.3-.517l.046-5.611s.609-.436.461,1.537-.243,4.921-.243,4.921-.024,3.214-3.093,3.214c0,0-3.069.585-3.045-1.17s1.267-1.826,1.267-1.826l1.1.1A5.614,5.614,0,0,0,717.239,736.87Z" transform="translate(-576.19 -589.35)" fill="#b07473"/>
    <path id="Caminho_95" data-name="Caminho 95" d="M642.52,631.885c.072,1.267,3.8.535,3.8.535l2.508-4.869s2.094-1.609,1.046-3.021a2.224,2.224,0,0,1-.153-.241l-.01-.012h0c-.022-.036-.042-.074-.062-.113h0a8.018,8.018,0,0,1-.382-3.938s.973-7.113,1.315-8.989a65.95,65.95,0,0,0,.062-8.1c-.032-1.01-.062-1.689-.062-1.689l-6.188-1.657v1.846c-.014,1.526-.062,3.66-.219,5.048-.267,2.361.682,10.18.682,10.18l.328,7.115a6.589,6.589,0,0,1-.8,3.463,16.648,16.648,0,0,0-1.86,4.306A.862.862,0,0,0,642.52,631.885Z" transform="translate(-520.785 -484.492)" fill="#cc818c"/>
    <path id="Caminho_96" data-name="Caminho 96" d="M642.513,730.556c.072,1.267,3.8.535,3.8.535l2.508-4.869s2.094-1.609,1.046-3.021a2.221,2.221,0,0,1-.153-.241,12.1,12.1,0,0,1-.843,2.586s-2.071,4.143-2.729,5.092-3.519-.177-3.626-.217a.886.886,0,0,0,0,.135Z" transform="translate(-520.779 -583.162)" opacity="0.1"/>
    <path id="Caminho_97" data-name="Caminho 97" d="M642.2,722.274s1.225-.284.859,2.906h0a2.055,2.055,0,0,1-.969,1.824,6.966,6.966,0,0,0-2.914,4.042h0a2.2,2.2,0,0,1-1.7,2.148,7.975,7.975,0,0,1-3.282.263c-1.486-.414-.827-1.436-.827-1.436l1.7-2.023s2.972,1.17,3.628.219,2.729-5.09,2.729-5.09S642.562,722.542,642.2,722.274Z" transform="translate(-513.336 -582.607)" fill="#b07473"/>
    <path id="Caminho_98" data-name="Caminho 98" d="M727.951,593.52l-.131,4.794c1.661-.161,2.85-.386,3.053-.7.44-.68,2.035-.967,3.391-1.084-.042-.9-.078-1.5-.078-1.5Z" transform="translate(-589.1 -479.469)" opacity="0.1"/>
    <path id="Caminho_99" data-name="Caminho 99" d="M651.94,604.566a2.275,2.275,0,0,1,.682-.823c.656-.364.585,2.339.585,2.339s2.188.02,4.983-.016c-.032-1.01-.062-1.691-.062-1.691l-6.188-1.655S651.952,603.488,651.94,604.566Z" transform="translate(-528.331 -486.839)" opacity="0.1"/>
    <path id="Caminho_100" data-name="Caminho 100" d="M645.793,433.331s.732-1.989,1.392-2.343.585,2.337.585,2.337,16.076.147,16.879-1.1,5.48-1.17,5.48-1.17-.145-15.491-.511-21.335-.949-11.18-2.411-12.788c-.945-1.04-2.289-4.406-3.121-6.649-.451-1.225-.752-2.118-.752-2.118l-15.344.875-.125,1.243-1.629,16.294s-.219,17.975-.877,22.067S645.793,433.331,645.793,433.331Z" transform="translate(-522.879 -314.964)" fill="#444053"/>
    <g id="Grupo_56" data-name="Grupo 56" transform="translate(122.288 73.206)" opacity="0.1">
      <path id="Caminho_101" data-name="Caminho 101" d="M677.581,432.23c.8-1.241,5.48-1.17,5.48-1.17s-.145-15.491-.511-21.335-.949-11.18-2.411-12.788c-.949-1.044-2.289-4.406-3.121-6.649-.38-1.03-.652-1.824-.728-2.051l1.193-.068s.3.893.754,2.118c.831,2.244,2.174,5.609,3.119,6.649,1.462,1.607,2.047,6.942,2.411,12.788s.513,21.335.513,21.335-4.676-.072-5.482,1.17c-.686,1.06-12.515,1.11-15.948,1.1C667.256,433.32,676.96,433.188,677.581,432.23Z" transform="translate(-659.347 -388.17)"/>
      <path id="Caminho_102" data-name="Caminho 102" d="M646.01,603.3c.3-.165.444.292.517.847a11.469,11.469,0,0,0-.69,1.5s-.424-.229-.6-1.392A2.706,2.706,0,0,1,646.01,603.3Z" transform="translate(-645.24 -560.484)"/>
    </g>
    <path id="Caminho_103" data-name="Caminho 103" d="M659.906,190.888c-1.062,1.448.012,3.507-1.128,4.915-.376.465-.955.8-1.347,1.253a2.977,2.977,0,0,0-.342,2.994c.356.995.995,1.9,1.448,2.872a1.537,1.537,0,0,1,.147,1.309,3.708,3.708,0,0,1-.652.762,2.748,2.748,0,0,0-.358,2.916,9.438,9.438,0,0,0,1.888,2.606,1.288,1.288,0,0,0,1.872.428,7.359,7.359,0,0,0,3.349-9.605c-.617-1.478-1.645-2.894-1.655-4.455,0-1.239.637-2.423.75-3.656.137-1.5-.75-3.881-2.56-4.535C661.438,189.653,660.445,190.144,659.906,190.888Z" transform="translate(-532.258 -155.161)" fill="#585268"/>
    <path id="Caminho_104" data-name="Caminho 104" d="M659.906,190.888c-1.062,1.448.012,3.507-1.128,4.915-.376.465-.955.8-1.347,1.253a2.977,2.977,0,0,0-.342,2.994c.356.995.995,1.9,1.448,2.872a1.537,1.537,0,0,1,.147,1.309,3.708,3.708,0,0,1-.652.762,2.748,2.748,0,0,0-.358,2.916,9.438,9.438,0,0,0,1.888,2.606,1.288,1.288,0,0,0,1.872.428,7.359,7.359,0,0,0,3.349-9.605c-.617-1.478-1.645-2.894-1.655-4.455,0-1.239.637-2.423.75-3.656.137-1.5-.75-3.881-2.56-4.535C661.438,189.653,660.445,190.144,659.906,190.888Z" transform="translate(-532.258 -155.161)" opacity="0.1"/>
    <path id="Caminho_105" data-name="Caminho 105" d="M684.506,464.55a14.126,14.126,0,0,0-5.989,2.061,41.021,41.021,0,0,1-5.667,2.94" transform="translate(-545.073 -376.151)" opacity="0.1"/>
    <path id="Caminho_106" data-name="Caminho 106" d="M684.611,489.74a8.766,8.766,0,0,0-5.52,2.685c-.517.547-.963,1.16-1.5,1.685a6.671,6.671,0,0,1-2.96,1.677" transform="translate(-546.5 -396.331)" opacity="0.1"/>
    <path id="Caminho_107" data-name="Caminho 107" d="M678.526,508.91a9.651,9.651,0,0,0-4.44,2.677c-.326.352-.623.728-.949,1.08-1.76,1.89-4.247,2.892-6.647,3.841" transform="translate(-539.979 -411.688)" opacity="0.1"/>
    <path id="Caminho_108" data-name="Caminho 108" d="M692.1,242.646a43.671,43.671,0,0,0,.438,5.076,6.645,6.645,0,0,0,.877,2.743c1.169,1.392-5.7,3.252-5.7,3.252l-4.056-3.143s3.214-2.96,1.717-5.846S692.1,242.646,692.1,242.646Z" transform="translate(-553.732 -198.303)" fill="#cc818c"/>
    <path id="Caminho_109" data-name="Caminho 109" d="M658.79,390.288h16.221c-.451-1.225-.752-2.118-.752-2.118l-15.344.875Z" transform="translate(-533.81 -314.964)" opacity="0.1"/>
    <path id="Caminho_110" data-name="Caminho 110" d="M640.786,297.125h17.343a6.018,6.018,0,0,1,.694-4.6,10.163,10.163,0,0,1,1.816-2.355l.119-.109,6.055-1.341.326-.072s.05-11.009-3.849-12.521a22.793,22.793,0,0,1-6.236-3.554l-5.357,1.655-3.946-1.989c-1.267,1.362-4.629.827-4.629.827-5.5.633-5.5,4.774-5.5,4.774s3.214,7.5,3.459,7.5S640.786,297.125,640.786,297.125Z" transform="translate(-516.846 -222.093)" fill="#4dba80"/>
    <path id="Caminho_111" data-name="Caminho 111" d="M664.55,353.484s-3.537-.784-4.74-2.154" transform="translate(-534.635 -285.451)" opacity="0.1"/>
    <path id="Caminho_112" data-name="Caminho 112" d="M756.771,341.51l-4.1,3.362a6.992,6.992,0,0,0,.135.8l.119-.109,6.055-1.341Z" transform="translate(-609.002 -277.585)" opacity="0.1"/>
    <path id="Caminho_113" data-name="Caminho 113" d="M717.46,372.244s.9.505,2.271,1.17h2.357a6.017,6.017,0,0,1,.694-4.6l-4.155-1.345C720.042,368.785,717.46,372.244,717.46,372.244Z" transform="translate(-580.804 -298.381)" opacity="0.1"/>
    <path id="Caminho_114" data-name="Caminho 114" d="M620.426,293.76l-2.435,1.315-2.387,6.041s-2.484,6.624-2.242,8.378c0,0-.875,4.141.682,4.871L618.1,316.2a.378.378,0,0,0,.487-.521c-.579-1.1-1.215-2.811-.2-3.753l-1.17-2.435,4.227-6.918,1.412-2.387Z" transform="translate(-497.237 -239.332)" fill="#4dba80"/>
    <path id="Caminho_115" data-name="Caminho 115" d="M676.962,348.451c.211.859.923,2.188,3.28,2.683l2.586,2.118,2.751,1.247,1.122.507.475-3.435-1.08-.6-1.259-.688S682,345.141,677.5,347.3A1,1,0,0,0,676.962,348.451Z" transform="translate(-548.342 -281.801)" opacity="0.1"/>
    <path id="Caminho_116" data-name="Caminho 116" d="M677.719,347.028c.211.861.921,2.188,3.278,2.683l2.586,2.118,2.753,1.247,1.12.507.475-3.435-1.08-.6-1.249-.682s-2.842-5.146-7.34-2.974a.994.994,0,0,0-.543,1.132Z" transform="translate(-548.951 -280.67)" fill="#cc818c"/>
    <circle id="Elipse_4190" data-name="Elipse 4190" cx="6.283" cy="6.283" r="6.283" transform="translate(127.553 36.232)" opacity="0.1"/>
    <circle id="Elipse_4191" data-name="Elipse 4191" cx="6.283" cy="6.283" r="6.283" transform="translate(127.553 36.086)" fill="#cc818c"/>
    <path id="Caminho_117" data-name="Caminho 117" d="M715.27,274.786l-1.89-3.672s2.765-1.118,2.966-2.413,2.649,1.518,2.12,2.451A34.778,34.778,0,0,1,715.27,274.786Z" transform="translate(-577.537 -218.99)" opacity="0.1"/>
    <path id="Caminho_118" data-name="Caminho 118" d="M715.27,273.316l-1.89-3.672s2.765-1.118,2.966-2.413,2.649,1.52,2.12,2.451A34.993,34.993,0,0,1,715.27,273.316Z" transform="translate(-577.537 -217.813)" fill="#4dba80"/>
    <path id="Caminho_119" data-name="Caminho 119" d="M614.785,341.364l10.44,14.037s-3.849,2.094-9.15-1.655l-2.289-2.729L607.25,340Z" transform="translate(-492.533 -276.375)" fill="#f6f8fb"/>
    <path id="Caminho_120" data-name="Caminho 120" d="M633.815,370.665l.951-.026S640.573,365,642,367.855s-3.618,5.518-3.618,5.518l-1.534.827-2,.6-1.279-1.717Z" transform="translate(-513.617 -298.044)" fill="#cc818c"/>
    <path id="Caminho_121" data-name="Caminho 121" d="M629.92,385.867a1.419,1.419,0,0,1,.024.983.4.4,0,0,1-.173.189.444.444,0,0,1-.2.028,2,2,0,0,1-1.311-.648,5.99,5.99,0,0,1-.849-1.229,2.268,2.268,0,0,1-.436-1.464,2.135,2.135,0,0,1,1.08-1.261c.963-.636.995.105,1.205.925S629.7,385.04,629.92,385.867Z" transform="translate(-508.326 -310.201)" opacity="0.1"/>
    <path id="Caminho_122" data-name="Caminho 122" d="M629.187,385.867a1.429,1.429,0,0,1,.024.983.4.4,0,0,1-.173.189.448.448,0,0,1-.2.028,1.989,1.989,0,0,1-1.311-.648,5.916,5.916,0,0,1-.851-1.229,2.254,2.254,0,0,1-.434-1.464,2.131,2.131,0,0,1,1.078-1.261c.965-.636.995.105,1.207.925S628.964,385.04,629.187,385.867Z" transform="translate(-507.738 -310.201)" fill="#4dba80"/>
    <path id="Caminho_123" data-name="Caminho 123" d="M623.85,314.631l.485-.821-.424,1.526Z" transform="translate(-499.633 -251.388)" opacity="0.1"/>
    <path id="Caminho_124" data-name="Caminho 124" d="M721.19,369.955l1.12.507.475-3.435-1.08-.6C722.451,367.285,721.8,368.867,721.19,369.955Z" transform="translate(-583.794 -297.548)" opacity="0.1"/>
    <path id="Caminho_125" data-name="Caminho 125" d="M723.042,361.016s-3.616.221-5.152-.766" transform="translate(-581.148 -292.597)" opacity="0.1"/>
    <g id="Grupo_57" data-name="Grupo 57" transform="translate(126.05 50.434)" opacity="0.1">
      <path id="Caminho_126" data-name="Caminho 126" d="M735.041,295.342a10.179,10.179,0,0,1,1.816-2.357,4.854,4.854,0,0,1,.535-.29l5.637-1.158.326-.072s.05-11.009-3.847-12.521a23.416,23.416,0,0,1-6.079-3.423l.428-.131a22.732,22.732,0,0,0,6.236,3.554c3.9,1.51,3.847,12.521,3.847,12.521h-.585l-5.768,1.1s-.249.241-.324.31a11.176,11.176,0,0,0-1.844,2.439,6.114,6.114,0,0,0-.483,4.623h-.6A6.08,6.08,0,0,1,735.041,295.342Z" transform="translate(-719.646 -275.05)"/>
      <path id="Caminho_127" data-name="Caminho 127" d="M664.13,277.848c.093-.014.183-.028.28-.038a10.1,10.1,0,0,0,1.193.1A10.856,10.856,0,0,1,664.13,277.848Z" transform="translate(-664.13 -276.989)"/>
      <path id="Caminho_128" data-name="Caminho 128" d="M691.328,275.675l-3.568-1.806a1.881,1.881,0,0,0,.2-.189l3.724,1.884Z" transform="translate(-683.06 -273.68)"/>
    </g>
    <path id="Caminho_129" data-name="Caminho 129" d="M729.291,340l2.387,2.924.487,7.94s.632,4.042-3.994,3.067a42.658,42.658,0,0,1-9.981-3.986s2.586-3.459,1.17-4.774l6.625,2.144s1.12-.245.243-1.217a5.48,5.48,0,0,1-1.032-2.729Z" transform="translate(-581.382 -276.375)" fill="#4dba80"/>
    <path id="Caminho_130" data-name="Caminho 130" d="M779.42,382.17l1.315,1.51A1.9,1.9,0,0,1,779.42,382.17Z" transform="translate(-630.429 -310.157)" opacity="0.1"/>
    <path id="Caminho_131" data-name="Caminho 131" d="M736.99,360.8l2.047,2.63-1.022.245Z" transform="translate(-590.242 -289.032)" opacity="0.1"/>
    <path id="Caminho_132" data-name="Caminho 132" d="M665.164,183.707a2.1,2.1,0,0,1,.219-1.713,13.505,13.505,0,0,0,.845-1.569c.3-.831.209-1.772.537-2.586.579-1.442,2.224-2.087,3.7-2.586a2.486,2.486,0,0,1,1.345-.183c.6.141.985.682,1.472,1.046,2,1.492,5.255-.151,7.19,1.428a3.764,3.764,0,0,1,1.211,2.522,22.271,22.271,0,0,1-.012,2.868,5.906,5.906,0,0,0,1.536,4.617c.378.334.823.585,1.193.931a1.63,1.63,0,0,1,.6,1.331,4.607,4.607,0,0,1-.2.676,3.462,3.462,0,0,0,.577,2.586c1.353,2.341,3.737,4.27,6.441,4.324-.181,1.364-1.591,2.156-2.854,2.715a11.21,11.21,0,0,1-5.038,1.325c-1.752-.09-3.58-1.211-3.887-2.938-.105-.6-.091-1.315-.6-1.625-.31-.189-.712-.141-1.046-.282a1.843,1.843,0,0,1-.881-1.241,11.174,11.174,0,0,1-.519-3.182c-.022-1.281.147-2.679-.579-3.733-.672-.977-1.866-1.472-2.641-2.369-.716-.831-1.494-1.834-2.667-1.989C669.48,183.85,666.122,186.056,665.164,183.707Z" transform="translate(-538.823 -144.221)" opacity="0.1"/>
    <path id="Caminho_133" data-name="Caminho 133" d="M665.164,182.237a2.1,2.1,0,0,1,.219-1.713,13.508,13.508,0,0,0,.845-1.569c.3-.831.209-1.772.537-2.586.579-1.444,2.224-2.089,3.7-2.586a2.486,2.486,0,0,1,1.345-.183c.6.141.985.682,1.472,1.046,2,1.492,5.255-.151,7.19,1.428a3.764,3.764,0,0,1,1.211,2.524,22.239,22.239,0,0,1-.012,2.866,5.906,5.906,0,0,0,1.536,4.617c.378.334.823.585,1.193.931a1.63,1.63,0,0,1,.6,1.331,4.607,4.607,0,0,1-.2.676,3.462,3.462,0,0,0,.577,2.586c1.357,2.333,3.731,4.269,6.435,4.322-.181,1.365-1.591,2.156-2.854,2.717a11.233,11.233,0,0,1-5.038,1.323c-1.752-.09-3.58-1.211-3.887-2.938-.105-.6-.092-1.315-.6-1.625-.31-.189-.712-.141-1.046-.282a1.843,1.843,0,0,1-.881-1.241,11.161,11.161,0,0,1-.519-3.182c-.022-1.281.147-2.679-.579-3.733-.672-.977-1.866-1.472-2.641-2.369-.716-.831-1.494-1.834-2.667-1.989C669.48,182.38,666.122,184.59,665.164,182.237Z" transform="translate(-538.823 -143.043)" fill="#585268"/>
    <path id="Caminho_134" data-name="Caminho 134" d="M683.008,275.064l3.6-2.924s-2.466-1.337-2.761-2.476-2.267.541-2.067,1.563S683.008,275.064,683.008,275.064Z" transform="translate(-552.22 -219.724)" opacity="0.1"/>
    <path id="Caminho_135" data-name="Caminho 135" d="M683.766,272.862l3.6-2.922s-2.466-1.337-2.749-2.476-2.268.541-2.067,1.563S683.766,272.862,683.766,272.862Z" transform="translate(-552.837 -217.961)" fill="#4dba80"/>
    <circle id="Elipse_4192" data-name="Elipse 4192" cx="0.286" cy="0.286" r="0.286" transform="translate(134.389 54.139)" opacity="0.1"/>
    <circle id="Elipse_4193" data-name="Elipse 4193" cx="0.286" cy="0.286" r="0.286" transform="translate(134.389 55.73)" opacity="0.1"/>
    <circle id="Elipse_4194" data-name="Elipse 4194" cx="0.286" cy="0.286" r="0.286" transform="translate(134.389 57.32)" opacity="0.1"/>
    <g id="Grupo_58" data-name="Grupo 58" transform="translate(126.282 32.685)" opacity="0.1">
      <path id="Caminho_136" data-name="Caminho 136" d="M671.384,186.9c.285-.782.223-1.659.489-2.447a2.67,2.67,0,0,0-.3.561c-.33.822-.237,1.762-.539,2.586l-.02.048A4.54,4.54,0,0,0,671.384,186.9Z" transform="translate(-669.872 -184.45)"/>
      <path id="Caminho_137" data-name="Caminho 137" d="M689.525,224.218a11.234,11.234,0,0,1-5.038,1.323c-1.752-.09-3.58-1.211-3.887-2.936-.105-.6-.091-1.317-.6-1.627-.31-.189-.712-.141-1.046-.282a1.843,1.843,0,0,1-.881-1.241,11.165,11.165,0,0,1-.519-3.182c-.022-1.279.149-2.677-.577-3.733-.674-.977-1.868-1.47-2.643-2.369-.716-.829-1.494-1.834-2.667-1.989-1.609-.219-4.973,1.989-5.923-.362a1.85,1.85,0,0,1,.062-1.359c-.07.117-.137.235-.2.354a2.107,2.107,0,0,0-.217,1.715c.957,2.347,4.314.141,5.923.362,1.174.159,1.951,1.164,2.667,1.989.776.9,1.969,1.392,2.641,2.371.728,1.054.557,2.452.579,3.731a11.157,11.157,0,0,0,.519,3.182,1.847,1.847,0,0,0,.881,1.241c.334.141.736.1,1.046.282.513.31.5,1.036.6,1.627.31,1.725,2.136,2.846,3.887,2.936a11.248,11.248,0,0,0,5.038-1.323c1.154-.513,2.438-1.223,2.785-2.387A6.026,6.026,0,0,1,689.525,224.218Z" transform="translate(-665.288 -202.082)"/>
    </g>
    <path id="Caminho_138" data-name="Caminho 138" d="M810.334,262.183a46.8,46.8,0,0,0-5.81-3.019l-.088-.062a3.5,3.5,0,0,1-1.06-1.341,2.771,2.771,0,0,1,0-.288.133.133,0,0,0,0,.028,6.348,6.348,0,0,1,1.844-3.469l2.214-2.6a2.566,2.566,0,0,0,.571-.9,2.082,2.082,0,0,0,.06-.555v-.227c-.012-.646-.03-1.295-.054-1.941-.02-.565-.165-1.277-.73-1.392-.294-.06-.684.046-.839-.2a.483.483,0,0,1-.038-.336.118.118,0,0,0,0,.028v-.032a7.487,7.487,0,0,0,.209-1.331,1.814,1.814,0,0,0-.092-.674c-.326-.937-1.454-1.323-2.45-1.5a4.3,4.3,0,0,1-2.739-1.108,8.11,8.11,0,0,0-.545-.75,2.151,2.151,0,0,0-1.018-.5,5.768,5.768,0,0,0-3.706.322,3.326,3.326,0,0,1-1.494.473c-.529-.032-1.018-.414-1.559-.505a2.225,2.225,0,0,0-2.144,1.255,3.069,3.069,0,0,0-.4,1.48v.088h0a2.164,2.164,0,0,0,.569,1.512c.378.4.939.66,1.1,1.176.064.209.048.436.105.648a.575.575,0,0,0,.024.078l-.028.038a6.564,6.564,0,0,0-1.392,4.046,6.715,6.715,0,0,0,4.718,6.365v.2a2.862,2.862,0,0,1-.915,2.228l-5.965,2.383s-3.6-.428-4.893,4.827a8.959,8.959,0,0,0-.223,2.665,7.729,7.729,0,0,1-.995,3.992c-1.474,2.888-1.138,9.518,1.878,10.174a9.832,9.832,0,0,0,4.078.332v.115c-.048,1.245-.5,11.974-2.14,13.271-.453.36-.37.6,0,.766,0,0,0,.07-.01.2-.05.8-.3,3.779-1.392,5.474-1.275,1.969-1.142,13.327-1.142,13.327l-.869,6.7s.535,4.135,0,4.857c-.479.642-1.116,15.94-1.249,19.258h-.056a1.615,1.615,0,0,0-1.289.8,22.469,22.469,0,0,1-3.171,3.258c-.535.76-2.514,1.488-3.56,1.83a2.213,2.213,0,0,0-.4.175,2.122,2.122,0,0,0-.9.947,1.016,1.016,0,0,0-.1.8c.266.654,5.83,1.116,7.238.458a48.136,48.136,0,0,1,7.31-1.46,1.5,1.5,0,0,0,1.3-1.3.857.857,0,0,0-.167-.65h0a5.768,5.768,0,0,1-.6-2.387,1.615,1.615,0,0,0,.41-.243,17.472,17.472,0,0,1,.995-7.023c1.341-3.544,1.742-10.108,1.408-14.375,0,0,4.088-17.591,7.306-19.232h0c.05.064,1.611,2.067,1.81,8.271a25.061,25.061,0,0,0,2.478,10.437s-1.006,10.7,0,14.7l-1.315,6.315c-.1-.082-.159-.145-.159-.145s.04.175.093.455l-.028.135.058.012a12.435,12.435,0,0,1,.278,2.984c-.052.459-.181,1.09-.268,1.709-.139.973-.177,1.915.334,2.122.839.338,5.768.8,6.6-.286a1.55,1.55,0,0,0,.243-1.621,1.642,1.642,0,0,0-.243-.414s-1.309-2.138-.939-3.646a1.11,1.11,0,0,0-.157-.865,44.461,44.461,0,0,1,1.128-7.073c.839-3.159,2.608-10.084,1.307-14.637h0q-.074-.268-.167-.525a19.661,19.661,0,0,1-.738-7.68,15.651,15.651,0,0,1,0-6.7c.806-3.676,1.369-7.286,1.369-7.286a46.069,46.069,0,0,0,.056-7.835,1.959,1.959,0,0,0-.026-.2l.211-.048s-1.14-5.054-1.542-8.27c-.1-.76-.219-1.721-.354-2.747a7.015,7.015,0,0,0,1.092-.273c3.618-1.247,4.758-12.531,4.758-12.531v-3.58S814.557,264.612,810.334,262.183Zm-26.964,87.168c-.111-.056-.177-.094-.177-.094h0Z" transform="translate(-624.621 -196.136)" fill="url(#linear-gradient-3)"/>
    <path id="Caminho_139" data-name="Caminho 139" d="M847.474,550.517c1.569,4.513-.263,11.839-1.114,15.117a45.7,45.7,0,0,0-1.112,7.2,15.155,15.155,0,0,1-5.756-.131l1.374-6.737c-.983-3.99,0-14.653,0-14.653a25.421,25.421,0,0,1-2.421-10.4c-.2-6.18-1.717-8.179-1.764-8.241h0c-3.139,1.635-7.129,19.166-7.129,19.166.326,4.251-.068,10.793-1.374,14.321a17.7,17.7,0,0,0-.981,7,2.128,2.128,0,0,1-1.79.342,12.219,12.219,0,0,1-4.107-1.911s.718-19.095,1.243-19.819,0-4.841,0-4.841l.849-6.671s-.131-11.318,1.112-13.279c1.074-1.695,1.321-4.674,1.368-5.456v-.2l1.894-2.268s18.315-1.374,19.692,0a3.925,3.925,0,0,1,.668,2.069,46.871,46.871,0,0,1-.056,7.807s-.549,3.6-1.335,7.26a15.939,15.939,0,0,0,0,6.673A19.976,19.976,0,0,0,847.474,550.517Z" transform="translate(-663.946 -419.322)" fill="#65617d"/>
    <path id="Caminho_140" data-name="Caminho 140" d="M919.316,791.332c-.817,1.08-5.625.623-6.445.286-.5-.2-.461-1.148-.326-2.116.086-.615.211-1.243.263-1.7a15.654,15.654,0,0,0-.4-3.566s1.078,1.146,1.339,0a1.247,1.247,0,0,1,.935-.887,2.442,2.442,0,0,1,1.7.105c.849.37,2.266,1.156,2.013,2.218-.36,1.5.915,3.634.915,3.634a1.653,1.653,0,0,1,.239.41,1.57,1.57,0,0,1-.233,1.617Z" transform="translate(-736.931 -631.455)" fill="#a27772"/>
    <path id="Caminho_141" data-name="Caminho 141" d="M919.507,816.54c-.818,1.08-5.625.623-6.445.286-.5-.2-.461-1.148-.326-2.116a5.549,5.549,0,0,0,2.858.308,8.066,8.066,0,0,1,1.028-.032,23.924,23.924,0,0,0,3.123-.064A1.569,1.569,0,0,1,919.507,816.54Z" transform="translate(-737.122 -656.663)" opacity="0.1"/>
    <path id="Caminho_142" data-name="Caminho 142" d="M846.085,604.01c.326,4.251-.068,10.793-1.374,14.321a17.7,17.7,0,0,0-.981,7,2.128,2.128,0,0,1-1.79.342c.4-2.759,2.077-14.645,3.153-24.038a39.334,39.334,0,0,1,6.962-18.053l1.144,1.259C850.075,586.478,846.085,604.01,846.085,604.01Z" transform="translate(-680.49 -471.506)" opacity="0.1"/>
    <path id="Caminho_143" data-name="Caminho 143" d="M883.57,309.039l-.8,3.924-3.912,6.574-4.823-2.061s-6.564-6.868-2.437-7.849a3.65,3.65,0,0,0,1.368-.609,2.83,2.83,0,0,0,1.068-2.367,7.257,7.257,0,0,0-.664-2.813l8.438-2.649a13.543,13.543,0,0,0-.6,3.417c-.066,2.3.8,3.431,1.49,3.978A2.532,2.532,0,0,0,883.57,309.039Z" transform="translate(-703.152 -245.285)" fill="#fbbebe"/>
    <path id="Caminho_144" data-name="Caminho 144" d="M894.43,301.19a13.543,13.543,0,0,0-.6,3.417,6.45,6.45,0,0,1-.491.523,6.675,6.675,0,0,1-6.671,1.522,7.257,7.257,0,0,0-.67-2.812Z" transform="translate(-715.779 -245.285)" opacity="0.1"/>
    <path id="Caminho_145" data-name="Caminho 145" d="M879.5,268.891a6.642,6.642,0,1,1-1.946-4.727A6.673,6.673,0,0,1,879.5,268.891Z" transform="translate(-699.877 -214.066)" fill="#fbbebe"/>
    <path id="Caminho_146" data-name="Caminho 146" d="M883.57,338.8l-.8,3.924-3.912,6.574-4.823-2.061s-6.564-6.868-2.437-7.849a3.65,3.65,0,0,0,1.368-.609c-.744,2.045,2.327,6.3,2.327,6.3.358.527,1.178.2,1.178.2,1.979-.3,5.621-5.991,6.216-6.938A2.533,2.533,0,0,0,883.57,338.8Z" transform="translate(-703.152 -275.045)" opacity="0.1"/>
    <path id="Caminho_147" data-name="Caminho 147" d="M866.591,521.106c-1.162.265-7.588,1.687-10.025,1.331-2.681-.4-7.895-.652-7.895-.652s-3.32.179-4.342-.288v-.2l1.894-2.268s18.315-1.374,19.692,0A3.908,3.908,0,0,1,866.591,521.106Z" transform="translate(-682.394 -419.305)" opacity="0.1"/>
    <path id="Caminho_148" data-name="Caminho 148" d="M836.214,345.524s-3.451-4.774-2.15-6.643l-5.83,2.387s-3.509-.426-4.774,4.812a9.113,9.113,0,0,0-.217,2.657,7.862,7.862,0,0,1-.961,3.978c-1.438,2.878-1.112,9.486,1.832,10.144s3.988.326,3.988.326-.4,11.97-2.093,13.345,4.336,1.046,4.336,1.046,5.213.263,7.9.654,10.2-1.374,10.2-1.374-1.112-5.036-1.506-8.241-1.311-10.031-1.311-10.031l6.671-9.038s1.178-5.462-2.944-7.883a46.567,46.567,0,0,0-5.671-3.013s-4.141,6.743-6.3,7.069C837.392,345.719,836.572,346.049,836.214,345.524Z" transform="translate(-664.066 -275.294)" fill="#4dba80"/>
    <path id="Caminho_149" data-name="Caminho 149" d="M852.7,382.74a9.836,9.836,0,0,0,.328,3.009c.392.849,1.832,5.569,1.832,5.569H851.59s1.766-1.9,1.637-2.815S852.7,382.74,852.7,382.74Z" transform="translate(-688.226 -310.614)" opacity="0.1"/>
    <path id="Caminho_150" data-name="Caminho 150" d="M863.875,427.708s-7.224-1.766-7.9-3.27-2.528-4.871-2.528-4.871l.762-1.026,3.513,2.757s4.177,3.336,6.15,3.664S863.875,427.708,863.875,427.708Z" transform="translate(-689.708 -339.293)" fill="#fbbebe"/>
    <path id="Caminho_151" data-name="Caminho 151" d="M863.875,427.708s-7.224-1.766-7.9-3.27-2.528-4.871-2.528-4.871l.762-1.026,3.513,2.757s4.177,3.336,6.15,3.664S863.875,427.708,863.875,427.708Z" transform="translate(-689.708 -339.293)" opacity="0.05"/>
    <path id="Caminho_152" data-name="Caminho 152" d="M884.7,421.7v3.918h-.629a18.317,18.317,0,0,0-8.9,2.305l-1.178.653-.316.177-2.029-4.575,1.9-1.7h.1a11.346,11.346,0,0,0,3.322-.074,5.4,5.4,0,0,1,4.189-.537c1.172.3,2.174,1.613,3.31,1.2Z" transform="translate(-704.282 -341.793)" fill="#fbbebe"/>
    <path id="Caminho_153" data-name="Caminho 153" d="M911.634,368.092l1.307,1.472v3.566s-1.112,11.25-4.642,12.493-9.838-.72-9.838-.72-1.629-4.316-.867-4.575,6.733-1.838,6.733-1.838-.083-6.6,1.223-8.563c0,0-.849-6.148,2.095-6.279S911.634,368.092,911.634,368.092Z" transform="translate(-724.894 -295.318)" opacity="0.1"/>
    <path id="Caminho_154" data-name="Caminho 154" d="M912.638,368.092l1.309,1.472v3.566s-1.112,11.25-4.645,12.493-9.838-.72-9.838-.72-1.629-4.316-.865-4.575,6.733-1.838,6.733-1.838-.086-6.6,1.223-8.563c0,0-.851-6.148,2.092-6.279S912.638,368.092,912.638,368.092Z" transform="translate(-725.699 -295.318)" fill="#4dba80"/>
    <path id="Caminho_155" data-name="Caminho 155" d="M883.162,271.628a2.629,2.629,0,0,0-.149-1.275.971.971,0,0,0-1.038-.6c-.559.131-.8.859-1.349,1.034a1.078,1.078,0,0,1-1.193-.613,3.052,3.052,0,0,1-.227-1.424v-1.639a2.713,2.713,0,0,0-.386-1.7,3.01,3.01,0,0,0-2.244-.812,1.9,1.9,0,0,0-1.281.515,1.648,1.648,0,0,1-1.347.479,1.16,1.16,0,0,1-.939-.812v-.02a6.671,6.671,0,1,1,9.917,8.855A17.966,17.966,0,0,0,883.162,271.628Z" transform="translate(-705.372 -213.97)" opacity="0.1"/>
    <path id="Caminho_156" data-name="Caminho 156" d="M866.983,249.1a1.17,1.17,0,0,1-.941-.814c-.054-.211-.04-.436-.1-.644-.153-.515-.7-.782-1.07-1.174a2.629,2.629,0,0,1-.167-3.007,2.173,2.173,0,0,1,2.093-1.249c.529.092.995.467,1.524.5a3.074,3.074,0,0,0,1.458-.471,5.494,5.494,0,0,1,3.624-.322,2.088,2.088,0,0,1,.995.5,8.687,8.687,0,0,1,.531.746,4.144,4.144,0,0,0,2.673,1.1c.973.175,2.073.561,2.387,1.5a3.908,3.908,0,0,1-.115,1.937.585.585,0,0,0,.026.4c.153.251.533.145.82.2.551.117.692.827.714,1.392q.034.967.052,1.935a2.46,2.46,0,0,1-.058.716,2.529,2.529,0,0,1-.555.9l-2.16,2.6c-.959,1.15-1.975,2.49-1.79,3.978a.926.926,0,0,1-1.142-.664,2.971,2.971,0,0,1,.072-1.474,18.062,18.062,0,0,0,.346-2.556,2.621,2.621,0,0,0-.149-1.273.971.971,0,0,0-1.038-.6c-.561.131-.8.859-1.349,1.034a1.078,1.078,0,0,1-1.193-.613,3.044,3.044,0,0,1-.227-1.422v-1.641a2.713,2.713,0,0,0-.386-1.7,3.01,3.01,0,0,0-2.244-.812,1.9,1.9,0,0,0-1.279.515A1.652,1.652,0,0,1,866.983,249.1Z" transform="translate(-698.404 -197.667)" fill="#7c5c5c"/>
    <path id="Caminho_157" data-name="Caminho 157" d="M885.3,381.92l2.049,8.416S888.964,390.326,885.3,381.92Z" transform="translate(-715.224 -309.957)" opacity="0.1"/>
    <path id="Caminho_158" data-name="Caminho 158" d="M912.929,374.85s-2.681,4.392-1.635,8.935l.5.036S910.9,381.718,912.929,374.85Z" transform="translate(-735.848 -304.293)" opacity="0.1"/>
    <path id="Caminho_159" data-name="Caminho 159" d="M929,498.879s3.294-1.09,3.533,1.438C932.541,500.317,931.92,498.584,929,498.879Z" transform="translate(-750.221 -403.465)" opacity="0.1"/>
    <path id="Caminho_160" data-name="Caminho 160" d="M858.511,426.81s-.654,4.575.523,6.411a14.346,14.346,0,0,1-5.756.786l-.4-7.2Z" transform="translate(-689.256 -345.918)" opacity="0.1"/>
    <path id="Caminho_161" data-name="Caminho 161" d="M874,431.888l-.316.177-2.029-4.575,1.9-1.7h.1C873.615,426.017,873.086,429.949,874,431.888Z" transform="translate(-704.292 -345.101)" opacity="0.1"/>
    <path id="Caminho_162" data-name="Caminho 162" d="M850.893,425.83s-.654,4.575.523,6.409a14.305,14.305,0,0,1-5.756.786l-2.289-7.194Z" transform="translate(-681.639 -345.133)" fill="#4dba80"/>
    <path id="Caminho_163" data-name="Caminho 163" d="M790.279,787.874a1.482,1.482,0,0,1-1.271,1.3,45.817,45.817,0,0,0-7.135,1.456c-1.375.654-6.8.2-7.065-.457a1.039,1.039,0,0,1,.094-.8,2.1,2.1,0,0,1,.877-.943,2.323,2.323,0,0,1,.4-.175c1.022-.34,2.954-1.064,3.475-1.824a22.171,22.171,0,0,0,3.1-3.244A1.571,1.571,0,0,1,784,782.4c.573-.026,1.211.263,1.474,1.518,0,0,3.137,1.79,3.978.221,0,0,.131,2.411.652,3.071h0A.875.875,0,0,1,790.279,787.874Z" transform="translate(-626.692 -630.781)" fill="#a27772"/>
    <path id="Caminho_164" data-name="Caminho 164" d="M790.279,807.25a1.482,1.482,0,0,1-1.271,1.3A45.817,45.817,0,0,0,781.873,810c-1.375.654-6.8.2-7.065-.457a1.039,1.039,0,0,1,.094-.8,2.1,2.1,0,0,1,.877-.943c.885.6,2.85,1.162,7.172.487a31.663,31.663,0,0,0,7.161-1.7h0A.875.875,0,0,1,790.279,807.25Z" transform="translate(-626.692 -650.158)" opacity="0.1"/>
    <g id="Grupo_59" data-name="Grupo 59" transform="translate(165.905 47.175)" opacity="0.1">
      <path id="Caminho_165" data-name="Caminho 165" d="M942.406,266.038v-.032a5.858,5.858,0,0,0,.2-1.486,9.83,9.83,0,0,1-.2,1.193A.722.722,0,0,0,942.406,266.038Z" transform="translate(-926.853 -263.084)"/>
      <path id="Caminho_166" data-name="Caminho 166" d="M876.021,266.376a1.892,1.892,0,0,1,.161.748,2.256,2.256,0,0,0-.161-1.042.967.967,0,0,0-1.036-.6c-.561.131-.8.859-1.351,1.034a1.08,1.08,0,0,1-1.193-.613,3.027,3.027,0,0,1-.227-1.424v-1.639a2.712,2.712,0,0,0-.386-1.7,3.014,3.014,0,0,0-2.244-.814,1.905,1.905,0,0,0-1.281.517,1.653,1.653,0,0,1-1.349.479,1.166,1.166,0,0,1-.939-.811c-.054-.211-.04-.438-.1-.646-.153-.513-.7-.782-1.07-1.172a2.142,2.142,0,0,1-.551-1.392,2.23,2.23,0,0,0,.551,1.677c.368.4.917.658,1.07,1.172.062.2.048.436.1.646a1.166,1.166,0,0,0,.939.812,1.653,1.653,0,0,0,1.349-.479,1.906,1.906,0,0,1,1.281-.517,3.009,3.009,0,0,1,2.244.814,2.728,2.728,0,0,1,.386,1.7v1.639a3.01,3.01,0,0,0,.227,1.422,1.083,1.083,0,0,0,1.193.615c.549-.175.8-.9,1.351-1.034A1,1,0,0,1,876.021,266.376Z" transform="translate(-864.285 -257.3)"/>
      <path id="Caminho_167" data-name="Caminho 167" d="M932.149,292.174a2.514,2.514,0,0,1-.557.9l-2.16,2.6c-.909,1.092-1.87,2.357-1.79,3.751a6.435,6.435,0,0,1,1.79-3.457l2.16-2.6a2.514,2.514,0,0,0,.557-.9,2.48,2.48,0,0,0,.058-.718A1.887,1.887,0,0,1,932.149,292.174Z" transform="translate(-915.036 -284.898)"/>
      <path id="Caminho_168" data-name="Caminho 168" d="M921.711,326.7a1.528,1.528,0,0,1-.066-.35,1.763,1.763,0,0,0,.066.644.923.923,0,0,0,1.142.662,2.76,2.76,0,0,1-.024-.286A.924.924,0,0,1,921.711,326.7Z" transform="translate(-910.231 -312.616)"/>
    </g>
    <path id="Caminho_169" data-name="Caminho 169" d="M812.69,789.36s.684,1.193,3.163.143" transform="translate(-657.072 -636.355)" opacity="0.1"/>
    <path id="Caminho_170" data-name="Caminho 170" d="M918,790.82s2.136,2.516,4.829.825" transform="translate(-741.41 -637.525)" opacity="0.1"/>
    <path id="Caminho_171" data-name="Caminho 171" d="M942.979,641.23s-1.51.943-1.557,1.482.78-.4.78-.4Z" transform="translate(-760.223 -517.689)" opacity="0.1"/>
    <path id="Caminho_172" data-name="Caminho 172" d="M941.344,677.59a3.157,3.157,0,0,1-1.86.726c-1.13.05-1.034,1.522-.3,1.08A18.515,18.515,0,0,0,941.344,677.59Z" transform="translate(-757.937 -546.817)" opacity="0.1"/>
    <path id="Caminho_173" data-name="Caminho 173" d="M948.413,682.34s-.724,3.558-1.313,2.872" transform="translate(-764.67 -550.622)" opacity="0.1"/>
    <path id="Caminho_174" data-name="Caminho 174" d="M241.7,346.558s4.545,1.247,6.733-.412,3.137-1.126,3.137-1.126,5.217-.288,5.647-1.522-2-5.713-2-5.713c-.173-.4-.426-.9-.539-.9l.024-1.89h0l.756-7.906c1.744-4.473.032-10.254.032-10.254l-.312-1.434a3.628,3.628,0,0,1,.3-2.387l3.169-6.365a9.53,9.53,0,0,1,.6-1.221c.2-.364.463-.814.8-1.353.1-.155.2-.316.31-.485.384-.6.849-1.273,1.412-2.053a16.8,16.8,0,0,0,2.522-6.166l.169.561h.038l.046.01h.076l.082.014h.03l.975,12.4a14.787,14.787,0,0,0,1.836,7.515l-.245,10.679a23.1,23.1,0,0,1-.734,7.369l-.768,1.732a2.083,2.083,0,0,0-1.132,1.575,19.461,19.461,0,0,1-1.5,4.036c-.521.66-1.653,2.445-1.653,2.445s-.533,1.723-.2,2.367,3.091.579,3.091.579c3.153.7,5.569-.995,5.416-2.16s.491-1.462.491-1.462c1.253-.4,1.132-1.247,1.132-1.247a7.805,7.805,0,0,0-.949-5.08l-.2.459a6.994,6.994,0,0,1,.378-2.711l-.115.08-.036.022H270.5c.2-1.744,2.031-4.973,2.031-4.973,3.365-5.9,2.142-13.9,2.142-13.9l-.521-2.494-.03-.941a31.4,31.4,0,0,1,.507-6.7c.181-.979.368-2.16.511-3.463a30.612,30.612,0,0,1,1.727-6.8l.133-.024h.016c.183-.032.368-.064.555-.1h.036s.107-.581.2-1.569c.054-.63.1-1.43.1-2.349a26.429,26.429,0,0,0-1.255-8.177l.1-.145s.241-.326.68-.891h0c.808-1.026,2.065-2.586,3.614-4.344A7.446,7.446,0,0,0,283,271.318s-2.009-7.361-2.9-11.781a13.4,13.4,0,0,0-2.2-5.241,10.43,10.43,0,0,0,.278-2.124,7.76,7.76,0,0,0-.575-3.849,3.307,3.307,0,0,0-3.151-1.947,1.205,1.205,0,0,1-.565,0,.859.859,0,0,1-.372-.324,4.882,4.882,0,0,1-.577-3.757c.239-1.281.728-2.506.947-3.791a4.694,4.694,0,0,0-.7-3.729c-.961-1.193-2.635-1.53-3.885-2.427-.877-.631-1.536-1.536-2.46-2.094a3.522,3.522,0,0,0-2.795-.135,22.35,22.35,0,0,0-4.891,1.245,13.027,13.027,0,0,0-4.263,3.1,4.046,4.046,0,0,0-.951,1.5c-.4,1.315.38,2.715.217,4.076a8.063,8.063,0,0,1-1.136,2.665,3.453,3.453,0,0,0-.442,2.785c.557,1.408,2.373,1.707,3.694,2.456a1.128,1.128,0,0,1,.438.38c.326.569-.34,1.16-.76,1.665a2.509,2.509,0,0,0-.5,1.01,3.6,3.6,0,0,0-2.162,2.61c-.448,2,.241,4.531.847,6.2-.662,3.722.2,5.189.833,5.752a3.193,3.193,0,0,1,1.106,2.176v.07c.042.676.113,1.351.209,2.023h0c-.022-.157-.044-.324-.056-.4a23.47,23.47,0,0,0-2.065,7.544,22.675,22.675,0,0,1-.5,2.628,14.37,14.37,0,0,0-.422,4.7l.1,1.339a.422.422,0,0,1-.271-.09l.7,1.279v2.158a7.956,7.956,0,0,1-.529,2.846c-.05.131-.1.263-.161.4a2.315,2.315,0,0,0-.235,1.172c-1.5,2.3-4.945,15.2-4.945,15.2-1.868,4.229.153,6.962.153,6.962s.979,11.773,1.162,12.382.589,7.785.589,7.785h0v.571a1.339,1.339,0,0,0-.34-.1c-1.637-.091-2.081,2.494-2.081,2.494l-3.35,3.2s-1.53-.259-3.779,1.43S241.7,346.558,241.7,346.558Zm33.446-68.043-.01-.036-.091.054h0l-.038.022-.018.012h0l-1.544-5.448a9.045,9.045,0,0,1-.113-4.481l1.193-5.227h0v-1.257l3.793,10.108C278.565,273.623,276.311,276.923,275.15,278.514Z" transform="translate(-198.032 -188.171)" fill="url(#linear-gradient-4)"/>
    <path id="Caminho_175" data-name="Caminho 175" d="M377.853,557a31.327,31.327,0,0,0-1.921,7.3c-.141,1.289-.324,2.455-.5,3.421a31.262,31.262,0,0,0-.489,6.618l.03.929.5,2.46s1.193,7.9-2.1,13.724c0,0-1.953,3.487-2.013,5.138l-1.323.511-2.673-.75s1.291-4.628.871-7.873l.241-10.542a14.675,14.675,0,0,1-1.8-7.411l-1.02-13.1Z" transform="translate(-299.049 -450.213)" fill="#fdc2cc"/>
    <path id="Caminho_176" data-name="Caminho 176" d="M296.2,547.62s-.328,5.108-2.854,8.629a24.487,24.487,0,0,0-3.063,5.048l-3.111,6.289a3.6,3.6,0,0,0-.292,2.353l.306,1.416s1.683,5.709-.03,10.126l-.812,8.533h-4.746s-.4-7.091-.571-7.692-1.142-12.229-1.142-12.229-1.989-2.705-.151-6.88c0,0,4.147-15.624,5.257-15.354S296.2,547.62,296.2,547.62Z" transform="translate(-229.615 -442.698)" fill="#fdc2cc"/>
    <g id="Grupo_60" data-name="Grupo 60" transform="translate(56.251 104.922)" opacity="0.1">
      <path id="Caminho_177" data-name="Caminho 177" d="M314.521,571.365l-.3-1.416a3.58,3.58,0,0,1,.29-2.363l3.111-6.3a24.479,24.479,0,0,1,3.063-5.048c2.425-3.381,2.824-8.227,2.852-8.6l.483-.024s-.328,5.108-2.854,8.629A24.487,24.487,0,0,0,318.1,561.3l-3.111,6.289a3.6,3.6,0,0,0-.292,2.353l.306,1.416s1.683,5.709-.03,10.126l-.812,8.533h-.481l.812-8.533C316.2,577.064,314.521,571.365,314.521,571.365Z" transform="translate(-313.68 -547.62)"/>
    </g>
    <path id="Caminho_178" data-name="Caminho 178" d="M387.388,596.6c.06-1.651,2.013-5.138,2.013-5.138,3.306-5.828,2.1-13.724,2.1-13.724l-.509-2.462-.03-.929a31.264,31.264,0,0,1,.489-6.618c.177-.967.36-2.132.5-3.421a31.319,31.319,0,0,1,1.915-7.284l.493-.02a31.323,31.323,0,0,0-1.921,7.3c-.141,1.289-.324,2.455-.5,3.421a31.266,31.266,0,0,0-.489,6.618l.03.929.5,2.46s1.193,7.9-2.1,13.724c0,0-1.953,3.487-2.013,5.138l-1.323.511-.278-.078Z" transform="translate(-315.556 -450.213)" opacity="0.1"/>
    <path id="Caminho_179" data-name="Caminho 179" d="M371.989,752.654a2.3,2.3,0,0,0,2.188-.27,7.061,7.061,0,0,0-.179,3.966c.541,2.164-5.048-1.742-5.048-1.742l1.193-2.727A1.871,1.871,0,0,0,371.989,752.654Z" transform="translate(-301.695 -606.33)" fill="#d39999"/>
    <path id="Caminho_180" data-name="Caminho 180" d="M372.421,752.751a2.234,2.234,0,0,0,1.776-.4,7.061,7.061,0,0,0-.179,3.966c.541,2.164-5.048-1.742-5.048-1.742l1.193-2.727a1.705,1.705,0,0,0,1.362.768C371.834,752.654,372.129,752.7,372.421,752.751Z" transform="translate(-301.711 -606.306)" opacity="0.1"/>
    <path id="Caminho_181" data-name="Caminho 181" d="M289.32,426.873h2.335V413.624l-1.752-.314Z" transform="translate(-231.717 -331.097)" fill="#fdc2cc"/>
    <path id="Caminho_182" data-name="Caminho 182" d="M289.32,426.873h2.335V413.624l-1.752-.314Z" transform="translate(-231.717 -331.097)" opacity="0.05"/>
    <path id="Caminho_183" data-name="Caminho 183" d="M354.255,759.953a2.328,2.328,0,0,1,2.132,1.231l.812.63.4-.931a7.757,7.757,0,0,1,.919,5.018s.119.839-1.112,1.231c0,0-.63.3-.481,1.442s-2.222,2.824-5.317,2.132c0,0-2.705.062-3.035-.571s.211-2.313.211-2.313,1.112-1.762,1.621-2.413a19.53,19.53,0,0,0,1.474-3.978C352.027,760.18,353.473,759.261,354.255,759.953Z" transform="translate(-285.286 -612.607)" fill="#7e5659"/>
    <path id="Caminho_184" data-name="Caminho 184" d="M296.176,758.569l.024-1.868a8.614,8.614,0,0,1-4.863-.1s.183,1.878-.119,2.134,1.006,2.673,1.006,2.673l1.462,1.532,2.514-.915.682-2.148S296.355,758.569,296.176,758.569Z" transform="translate(-239.405 -610.111)" fill="#d39999"/>
    <path id="Caminho_185" data-name="Caminho 185" d="M296.176,758.569l.024-1.868a8.614,8.614,0,0,1-4.863-.1s.183,1.878-.119,2.134,1.006,2.673,1.006,2.673l1.462,1.532,2.514-.915.682-2.148S296.355,758.569,296.176,758.569Z" transform="translate(-239.405 -610.111)" opacity="0.1"/>
    <path id="Caminho_186" data-name="Caminho 186" d="M251.283,763.09s1.428.165,1.247,1.989.076,0,.076,0a5.231,5.231,0,0,1,2.059,1.472c.541.857,1.518-.766,1.591-1.231s.682-.658.682-.658,2.387,4.426,1.965,5.643-5.545,1.5-5.545,1.5-.933-.525-3.081,1.112-6.61.4-6.61.4-3.636-1.518-1.426-3.182,3.71-1.412,3.71-1.412l3.29-3.171S249.675,763,251.283,763.09Z" transform="translate(-199.644 -615.309)" fill="#7e5659"/>
    <path id="Caminho_187" data-name="Caminho 187" d="M319.362,235.65c.909.551,1.555,1.446,2.417,2.069,1.225.885,2.87,1.215,3.813,2.4a4.683,4.683,0,0,1,.684,3.682c-.215,1.269-.7,2.48-.929,3.745a4.85,4.85,0,0,0,.567,3.71.841.841,0,0,0,.364.32,1.193,1.193,0,0,0,.555,0,3.248,3.248,0,0,1,3.095,1.923,7.7,7.7,0,0,1,.563,3.8,7.856,7.856,0,0,1-.635,3.1,8.1,8.1,0,0,1-4.084,3.393,31.631,31.631,0,0,1-3.26,1.317,4.906,4.906,0,0,1-2.363.356c-1.359-.235-2.321-1.47-3.61-1.953a7.6,7.6,0,0,0-3.352-.155,3.265,3.265,0,0,1-2.715-.619c-.847-.9-.465-2.349-.032-3.507a2.5,2.5,0,0,1-1.766-4.082c.41-.5,1.064-1.082.744-1.645a1.09,1.09,0,0,0-.43-.374c-1.295-.74-3.079-1.036-3.624-2.425a3.419,3.419,0,0,1,.432-2.753,8.162,8.162,0,0,0,1.116-2.632c.159-1.345-.6-2.727-.213-4.024a4.035,4.035,0,0,1,.933-1.484,12.8,12.8,0,0,1,4.177-3.061,21.7,21.7,0,0,1,4.8-1.229A3.4,3.4,0,0,1,319.362,235.65Z" transform="translate(-250.649 -192.494)" fill="#865a61"/>
    <path id="Caminho_188" data-name="Caminho 188" d="M313.419,337.75s-3.805-.2-4.525,3.045,1.561,7.891,1.561,7.891Z" transform="translate(-253.486 -274.571)" fill="#fdc2cc"/>
    <path id="Caminho_189" data-name="Caminho 189" d="M313.419,337.75s-3.805-.2-4.525,3.045,1.561,7.891,1.561,7.891Z" transform="translate(-253.486 -274.571)" opacity="0.05"/>
    <path id="Caminho_190" data-name="Caminho 190" d="M320,315.728l1.442,1.142,6.729.3,4.2-2.884,4.272-7.332a5.282,5.282,0,0,1-4.062-4.157,9.1,9.1,0,0,1-.084-3.473s-6.85-3.546-6.009,1.989a7.517,7.517,0,0,1,.064,2.057A2.912,2.912,0,0,1,323.009,306l-1.207,1.862-1.382,4.575Z" transform="translate(-262.489 -242.894)" fill="#fdc2cc"/>
    <path id="Caminho_191" data-name="Caminho 191" d="M352.372,301.3a7.519,7.519,0,0,1,.064,2.057,6.073,6.073,0,0,0,6.029-.565,9.1,9.1,0,0,1-.084-3.473S351.53,295.772,352.372,301.3Z" transform="translate(-288.36 -242.888)" opacity="0.1"/>
    <circle id="Elipse_4195" data-name="Elipse 4195" cx="6.069" cy="6.069" r="6.069" transform="translate(60.529 48.639)" fill="#fdc2cc"/>
    <path id="Caminho_192" data-name="Caminho 192" d="M318.789,345.52c.147,0,.292.022.438.036.8.08,4.119.259,6.013-2,2.118-2.53,4.939-5.655,5.054-5.782l2.87.867s-2.272-.808-3.779,3.417a4.376,4.376,0,0,0,1.478,5.034,4.547,4.547,0,0,0,1.878.8.01.01,0,0,1,0,.01v1.854h0l-1.174,5.172a8.965,8.965,0,0,0,.111,4.426l1.79,6.327c-.271.187-11.377,7.741-18.8,2.524h0c.028-.227.945-7.652.308-11.286a25.1,25.1,0,0,1-.332-2.809v-.07a3.166,3.166,0,0,0-1.088-2.148c-.668-.6-1.573-2.188-.678-6.393a15.447,15.447,0,0,1,.995-3.029l2.488-5.623h0l2.293.046v.016c-.2.247-2.858,3.568-3.147,5.709C315.229,344.645,314.881,345.27,318.789,345.52Z" transform="translate(-256.486 -273.844)" fill="#4dba80"/>
    <path id="Caminho_193" data-name="Caminho 193" d="M381.225,346.5a11.574,11.574,0,0,1,3.125,6.289c.881,4.366,2.844,11.618,2.844,11.618a7.412,7.412,0,0,1-1.923,6.289c-2.719,3.125-4.527,5.569-4.527,5.569l-1.79,2.638a2.246,2.246,0,0,1-1.289.911,4.354,4.354,0,0,1-3.155-.225,1.838,1.838,0,0,1-.8-2.321l.4-.921s-3.686,2.323-4.006,1.04,4.286-2.564,4.286-2.564,3.805-.64,4.575-2.443c0,0,4.086-5.249,3.765-7.051l-3.946-10.576s-4.935-.652-3.252-6.2S381.225,346.5,381.225,346.5Z" transform="translate(-302.603 -280.713)" fill="#fdc2cc"/>
    <path id="Caminho_194" data-name="Caminho 194" d="M307.3,491.432s9.014,1.8,11.139,1.561l.229.762s3.421.766,11.157-.461q.758-.119,1.573-.268l.181-.032s.105-.573.189-1.549a26.871,26.871,0,0,0-1.311-10.908l-1.3-4.006s-8.04,4.819-13.362,4.376c-.475-.04-.947-.078-1.422-.094-1.092-.042-2.785,0-3.885-.881l-2.307.4v6.564a7.866,7.866,0,0,1-.521,2.809c-.05.131-.1.261-.159.4A2.088,2.088,0,0,0,307.3,491.432Z" transform="translate(-252.291 -385.749)" fill="#65617d"/>
    <path id="Caminho_195" data-name="Caminho 195" d="M364.58,551.779v2.043s3.938.881,12.911-.762c0,0,.105-.573.189-1.549C374.927,551.952,367.335,553.014,364.58,551.779Z" transform="translate(-298.192 -445.815)" opacity="0.1"/>
    <path id="Caminho_196" data-name="Caminho 196" d="M307.308,544.513s9.014,1.8,11.139,1.561l.229.762v-2.043c-1.026.426-8.354-1.341-11.009-2-.05.131-.1.261-.159.4a2.089,2.089,0,0,0-.2,1.325Z" transform="translate(-252.3 -438.829)" opacity="0.1"/>
    <path id="Caminho_197" data-name="Caminho 197" d="M417.31,534.841l.668,4.145q.758-.119,1.573-.269a27.2,27.2,0,0,1-.539-4.438l-.841-.72Z" transform="translate(-340.426 -431.435)" fill="#65617d"/>
    <path id="Caminho_198" data-name="Caminho 198" d="M417.78,534.391l.668,4.147q.758-.121,1.573-.268a27.19,27.19,0,0,1-.539-4.438l-.841-.722Z" transform="translate(-340.802 -431.074)" opacity="0.1"/>
    <g id="Grupo_61" data-name="Grupo 61" transform="translate(57.814 90.775)" opacity="0.05">
      <path id="Caminho_199" data-name="Caminho 199" d="M326.721,494.595c-.473-.04-.947-.078-1.422-.093-1.062-.04-2.683,0-3.789-.814l.386-.068c1.106.877,2.785.839,3.885.881.475.016.947.054,1.422.093.155.014.314.022.475.026a8.921,8.921,0,0,1-.957-.026Z" transform="translate(-321.51 -490.215)"/>
      <path id="Caminho_200" data-name="Caminho 200" d="M387.512,493.27q.758-.119,1.573-.267l.183-.034s.105-.573.187-1.549a26.8,26.8,0,0,0-1.311-10.908l-1.225-3.779c.261-.147.4-.233.4-.233l1.3,4.006a26.872,26.872,0,0,1,1.311,10.908c-.084.977-.189,1.549-.189,1.549l-.181.034q-.813.147-1.573.267a49.55,49.55,0,0,1-8.105.7A51.122,51.122,0,0,0,387.512,493.27Z" transform="translate(-368.27 -476.5)"/>
      <path id="Caminho_201" data-name="Caminho 201" d="M359.959,559.3v.022H359.7Q359.847,559.312,359.959,559.3Z" transform="translate(-352.104 -542.831)"/>
    </g>
    <ellipse id="Elipse_4196" data-name="Elipse 4196" cx="0.34" cy="0.7" rx="0.34" ry="0.7" transform="translate(77.664 102.779)" fill="#d39999"/>
    <path id="Caminho_202" data-name="Caminho 202" d="M309.986,439.089a23.273,23.273,0,0,1,2.029-7.449c.02.129.072.549.1.678a19.7,19.7,0,0,1,.044,2.106l-.509,9.221.682,2.884c.64,2.283-1.732.479-1.732.479a1.412,1.412,0,0,1-1.392.963l-.123-1.655a14.292,14.292,0,0,1,.414-4.64,22.127,22.127,0,0,0,.493-2.588Z" transform="translate(-253.715 -349.787)" fill="#fdc2cc"/>
    <path id="Caminho_203" data-name="Caminho 203" d="M309.986,439.089a23.273,23.273,0,0,1,2.029-7.449c.02.129.072.549.1.678a19.7,19.7,0,0,1,.044,2.106l-.509,9.221.682,2.884c.64,2.283-1.732.479-1.732.479a1.412,1.412,0,0,1-1.392.963l-.123-1.655a14.292,14.292,0,0,1,.414-4.64,22.127,22.127,0,0,0,.493-2.588Z" transform="translate(-253.715 -349.787)" opacity="0.05"/>
    <path id="Caminho_204" data-name="Caminho 204" d="M382.982,477.646c-.432.559-.668.879-.668.879l-1.79,2.635a2.235,2.235,0,0,1-1.289.911,4.343,4.343,0,0,1-3.155-.225,1.834,1.834,0,0,1-.8-2.319l.4-.923s-3.686,2.323-4.006,1.042,4.286-2.564,4.286-2.564,3.805-.641,4.575-2.445c0,0,.332-.426.8-1.078" transform="translate(-303.863 -383.369)" fill="#fdc2cc"/>
    <path id="Caminho_205" data-name="Caminho 205" d="M391.651,504.566s-4.358-.424-5.738-2.916l-.632,2.059s4.575,3.159,5.619,2.749Z" transform="translate(-314.772 -405.872)" fill="#65617d"/>
    <path id="Caminho_206" data-name="Caminho 206" d="M390.879,504.458s-4.356-.424-5.738-2.918l-.631,2.053s4.575,3.159,5.617,2.749Z" transform="translate(-314.156 -405.784)" opacity="0.1"/>
    <path id="Caminho_207" data-name="Caminho 207" d="M310.226,510.46s-1.526.541-1.826.241l.686,1.263,1.3-.995Z" transform="translate(-253.203 -412.93)" fill="#65617d"/>
    <path id="Caminho_208" data-name="Caminho 208" d="M310.226,510.46s-1.526.541-1.826.241l.686,1.263,1.3-.995Z" transform="translate(-253.203 -412.93)" opacity="0.1"/>
    <path id="Caminho_209" data-name="Caminho 209" d="M330.9,522.105V519.47l-.627,2.7Z" transform="translate(-264.514 -416.142)" opacity="0.1"/>
    <path id="Caminho_210" data-name="Caminho 210" d="M340.2,256.074a2.34,2.34,0,0,1-1.635.861,12.876,12.876,0,0,1-1.9,0,4.764,4.764,0,0,0-2.866.722,7.29,7.29,0,0,0-1.315,1.392c-1.229,1.5-2.936,2.908-4.873,2.751a1.263,1.263,0,0,1-.905-.382,1.452,1.452,0,0,1-.231-.823,18.822,18.822,0,0,1,.117-3.712,7.824,7.824,0,0,1,.561-2.214,7.559,7.559,0,0,1,1.349-1.925,8.248,8.248,0,0,1,2.353-1.886,4.221,4.221,0,0,1,2.944-.38c1.16.316,2.063,1.223,3.169,1.691C338.234,252.7,341.588,254.119,340.2,256.074Z" transform="translate(-267.644 -204.57)" opacity="0.1"/>
    <path id="Caminho_211" data-name="Caminho 211" d="M340.2,254.856a2.341,2.341,0,0,1-1.635.861,12.891,12.891,0,0,1-1.9,0,4.749,4.749,0,0,0-2.866.72,7.287,7.287,0,0,0-1.315,1.392c-1.229,1.5-2.936,2.908-4.873,2.751a1.255,1.255,0,0,1-.905-.382,1.446,1.446,0,0,1-.231-.823,18.819,18.819,0,0,1,.117-3.712,7.825,7.825,0,0,1,.561-2.214,7.507,7.507,0,0,1,1.349-1.923,8.22,8.22,0,0,1,2.353-1.888,4.221,4.221,0,0,1,2.944-.38c1.16.316,2.063,1.223,3.169,1.691C338.234,251.482,341.588,252.9,340.2,254.856Z" transform="translate(-267.644 -203.593)" fill="#865a61"/>
    <path id="Caminho_212" data-name="Caminho 212" d="M291.579,473.47l-.016.726-.163-.694Z" transform="translate(-233.384 -379.291)" fill="#fdc2cc"/>
    <path id="Caminho_213" data-name="Caminho 213" d="M291.579,473.47l-.016.726-.163-.694Z" transform="translate(-233.384 -379.291)" opacity="0.05"/>
    <g id="Grupo_62" data-name="Grupo 62" transform="translate(72.481 64.872)" opacity="0.05">
      <path id="Caminho_214" data-name="Caminho 214" d="M396.257,348.86c-1.685,5.543,3.226,6.194,3.226,6.194l3.946,10.576c.32,1.8-3.767,7.051-3.767,7.051a3.5,3.5,0,0,1-1.77,1.561,2.773,2.773,0,0,0,1.05-1.154s4.086-5.247,3.765-7.049l-3.946-10.578s-4.909-.65-3.226-6.194c.563-1.852,1.392-2.7,2.232-3A5.107,5.107,0,0,0,396.257,348.86Z" transform="translate(-395.184 -346.27)"/>
    </g>
    <g id="Grupo_63" data-name="Grupo 63" transform="translate(56.035 62.994)" opacity="0.1">
      <path id="Caminho_215" data-name="Caminho 215" d="M401,384.61a4.142,4.142,0,0,0,.8.754,4.522,4.522,0,0,0,1.878.8v.209a4.507,4.507,0,0,1-1.7-.754A4.127,4.127,0,0,1,401,384.61Z" transform="translate(-383.412 -375.106)"/>
      <path id="Caminho_216" data-name="Caminho 216" d="M321.42,417.454v.07a25.68,25.68,0,0,0,.342,2.818c.6,3.429-.185,10.238-.3,11.178-.064-.042-.127-.082-.2-.127.03-.227.947-7.652.31-11.284a25.217,25.217,0,0,1-.332-2.809v-.07a3.069,3.069,0,0,0-.535-1.522A3.093,3.093,0,0,1,321.42,417.454Z" transform="translate(-319.092 -400.02)"/>
      <path id="Caminho_217" data-name="Caminho 217" d="M318.567,337.1l-1.945-.038a.01.01,0,0,0-.01,0l-2.486,5.621a15.5,15.5,0,0,0-.995,3.029c-.724,3.4-.269,5.1.284,5.933-.623-.734-1.265-2.407-.463-6.166a15.334,15.334,0,0,1,.985-3.031l2.5-5.621h0l2.293.046v.014C318.716,336.914,318.655,336.989,318.567,337.1Z" transform="translate(-312.577 -336.83)"/>
      <path id="Caminho_218" data-name="Caminho 218" d="M416.39,345.87l.034.01Z" transform="translate(-395.741 -344.072)"/>
      <path id="Caminho_219" data-name="Caminho 219" d="M345.228,342.377l-1.949-.587h-.01c-.115.127-2.934,3.252-5.052,5.782-1.894,2.262-5.213,2.085-6.013,2-.145-.016-.292-.028-.438-.038-2.174-.139-3.029-.4-3.316-.947.408.4,1.3.6,3.135.708.147,0,.292.022.438.036.8.08,4.119.257,6.013-2,2.118-2.532,4.939-5.657,5.054-5.784h0l2.836.859A1.773,1.773,0,0,0,345.228,342.377Z" transform="translate(-325.293 -340.611)"/>
    </g>
    <path id="Caminho_220" data-name="Caminho 220" d="M283.576,775.908s-2.745.75-3.276-.428" transform="translate(-230.698 -625.236)" opacity="0.1"/>
    <path id="Caminho_221" data-name="Caminho 221" d="M368.6,772.99s-3.182.821-3.918-.45" transform="translate(-298.275 -622.881)" opacity="0.1"/>
    <path id="Caminho_222" data-name="Caminho 222" d="M528.453,743.372c.046-.4.111-.8.183-1.193a8.317,8.317,0,0,0-.4-4.034h0c-.074-.209-.127-.326-.127-.326-1.267-.346-6.262,3.529-8.082,4.989-.63,0-1.315.028-2.063.078-.326.024-.652.032-.979.026H515.8c-1.689-1.361-6.916-5.452-8.217-5.1,0,0-.054.117-.127.326h0a8.173,8.173,0,0,0-.408,4.034c.072.4.137.8.183,1.193a5.711,5.711,0,0,0,1.79,3.682,24.13,24.13,0,0,0,2.168,6.439,4.609,4.609,0,0,0,.279.909,13.491,13.491,0,0,0-.617,3.58s-1.766-.428-1.945,1.7v.066c-.638.292-1.436.963-.539,2.367a.921.921,0,0,0,.461.376c.159.056.314.056.3-.167l1.1,1.243s2,.231,2.025-.931l.117.018c.268.04.549.074.837.1l.139.459s-1.5-.032-1.092.893c0,0,.378.35.507.223,0,0-.2.607.585.607,0,0,.841.445,1.17.127s1.008-.8,1.072-.995c.018-.054.026-.525.03-1.178h.129c1.677.04,3.457-.014,5.076-.1h.131c0,.706.01,1.227.028,1.283.066.2.748.67,1.074.995s1.168-.127,1.168-.127c.78,0,.585-.607.585-.607.131.127.509-.223.509-.223.41-.925-1.094-.893-1.094-.893l.179-.6.829-.07.131-.012c-.08,1.263,2.023,1.02,2.023,1.02l1.106-1.243c-.018.223.137.223.3.167a.913.913,0,0,0,.448-.38c1.354-2.118-1.148-2.568-1.148-2.568a1.223,1.223,0,0,0-.237-.038.408.408,0,0,1,.01-.109h0a4.368,4.368,0,0,0,.016-.839,1.846,1.846,0,0,0-1.49-1.084c-.509-.064-.519-2.4-.467-4.024a4.634,4.634,0,0,0,.08-.923,4.87,4.87,0,0,0-.2-1.478,18.948,18.948,0,0,0,1.88-3.978A5.787,5.787,0,0,0,528.453,743.372Z" transform="translate(-412.197 -595.044)" fill="url(#linear-gradient-5)"/>
    <path id="Caminho_223" data-name="Caminho 223" d="M535.614,817.508h0c-.08,1.1-.292,2.87-.292,2.87s-.885.107-2.254.231l-.929.08c-.712.058-1.512.113-2.357.161-1.561.085-3.276.139-4.893.1-.807-.018-1.591-.06-2.317-.131-.324-.032-.638-.07-.937-.113-1.854-.276-3.182-.806-3.3-1.734a5.37,5.37,0,0,1-.042-1.193c.173-2.089,1.874-1.667,1.874-1.667a14.4,14.4,0,0,1,.637-3.666c.211-.817.4-1.438.4-1.438l11.958-.8h.04a.585.585,0,0,1,.585.615c-.072,1.434-.173,4.718.414,4.792a1.8,1.8,0,0,1,1.438,1.064A4.458,4.458,0,0,1,535.614,817.508Z" transform="translate(-421.282 -653.058)" fill="#4dba80"/>
    <path id="Caminho_224" data-name="Caminho 224" d="M517.906,745.812s-4.509,5.428-6.681,3.924c-.052-.036-.1-.072-.149-.109a5.532,5.532,0,0,1-1.945-3.793c-.044-.4-.107-.782-.177-1.169a8.121,8.121,0,0,1,.4-3.96h0c.072-.2.121-.32.121-.32C510.974,739.966,517.906,745.812,517.906,745.812Z" transform="translate(-413.737 -597.104)" fill="#4dba80"/>
    <path id="Caminho_225" data-name="Caminho 225" d="M515.443,747.689s-1.42.995-3.423,2.63a7.235,7.235,0,0,1-.995.684,5.533,5.533,0,0,1-1.945-3.793c-.044-.4-.107-.782-.177-1.17a8.122,8.122,0,0,1,.4-3.96h0C512.109,742.275,515.443,747.689,515.443,747.689Z" transform="translate(-413.698 -598.479)" fill="#4dba80"/>
    <path id="Caminho_226" data-name="Caminho 226" d="M515.443,747.689s-1.42.995-3.423,2.63a7.235,7.235,0,0,1-.995.684,5.533,5.533,0,0,1-1.945-3.793c-.044-.4-.107-.782-.177-1.17a8.122,8.122,0,0,1,.4-3.96h0C512.109,742.275,515.443,747.689,515.443,747.689Z" transform="translate(-413.698 -598.479)" fill="#fff" opacity="0.5"/>
    <path id="Caminho_227" data-name="Caminho 227" d="M520.2,755.534s-.758.535-1.828,1.4a3.844,3.844,0,0,1-.525.364,2.927,2.927,0,0,1-1.038-2.023c-.022-.211-.056-.418-.094-.627a4.348,4.348,0,0,1,.221-2.112h0C518.419,752.643,520.2,755.534,520.2,755.534Z" transform="translate(-419.998 -606.859)" opacity="0.1"/>
    <path id="Caminho_228" data-name="Caminho 228" d="M569.05,745.812s4.509,5.428,6.681,3.924c.05-.036.1-.072.149-.109a5.533,5.533,0,0,0,1.945-3.793c.044-.4.107-.782.175-1.169a8.1,8.1,0,0,0-.4-3.96h0c-.072-.2-.123-.32-.123-.32C575.982,739.966,569.05,745.812,569.05,745.812Z" transform="translate(-461.945 -597.104)" fill="#4dba80"/>
    <path id="Caminho_229" data-name="Caminho 229" d="M581.22,747.689s1.422.995,3.425,2.63a7.23,7.23,0,0,0,.985.684,5.533,5.533,0,0,0,1.945-3.793c.044-.4.107-.782.175-1.17a8.1,8.1,0,0,0-.4-3.96h0C584.558,742.275,581.22,747.689,581.22,747.689Z" transform="translate(-471.693 -598.479)" fill="#4dba80"/>
    <path id="Caminho_230" data-name="Caminho 230" d="M581.22,747.689s1.422.995,3.425,2.63a7.23,7.23,0,0,0,.985.684,5.533,5.533,0,0,0,1.945-3.793c.044-.4.107-.782.175-1.17a8.1,8.1,0,0,0-.4-3.96h0C584.558,742.275,581.22,747.689,581.22,747.689Z" transform="translate(-471.693 -598.479)" fill="#fff" opacity="0.5"/>
    <path id="Caminho_231" data-name="Caminho 231" d="M589.05,755.57s.754.533,1.816,1.392a3.639,3.639,0,0,0,.523.362,2.937,2.937,0,0,0,1.032-2.011c.022-.2.056-.416.093-.623a4.355,4.355,0,0,0-.209-2.1h0C590.818,752.7,589.05,755.57,589.05,755.57Z" transform="translate(-477.966 -606.899)" opacity="0.1"/>
    <path id="Caminho_232" data-name="Caminho 232" d="M543.344,810.23a10.8,10.8,0,0,1-1.726,2.2c-1.79,1.591-9.52.959-10.021.877-.105-.018-.324-.33-.6-.838.211-.818.4-1.438.4-1.438Z" transform="translate(-431.471 -653.074)" opacity="0.1"/>
    <path id="Caminho_233" data-name="Caminho 233" d="M527.27,765.155c-.314.022-.629.03-.945.024-1.613-.028-7.047.044-7.65,2.238-.71,2.586,2.464,9.51,2.964,9.593s8.227.71,10.023-.877,4.133-6.564,4.008-7.016C535.669,769.117,537.9,764.419,527.27,765.155Z" transform="translate(-421.515 -616.902)" fill="#4dba80"/>
    <path id="Caminho_234" data-name="Caminho 234" d="M535.933,786.41a5.706,5.706,0,0,0-5.844,3.3,4.773,4.773,0,0,0,.352,4.811,2.2,2.2,0,0,0,2.8.995C536.057,794.358,535.933,786.41,535.933,786.41Z" transform="translate(-430.353 -633.964)" opacity="0.1"/>
    <path id="Caminho_235" data-name="Caminho 235" d="M535.3,785.15a5.706,5.706,0,0,0-5.844,3.3,4.774,4.774,0,0,0,.352,4.812,2.2,2.2,0,0,0,2.8.995C535.427,793.1,535.3,785.15,535.3,785.15Z" transform="translate(-429.849 -632.954)" opacity="0.1"/>
    <path id="Caminho_236" data-name="Caminho 236" d="M535.3,785.78a5.706,5.706,0,0,0-5.844,3.3,4.774,4.774,0,0,0,.352,4.812,2.2,2.2,0,0,0,2.8.995C535.427,793.728,535.3,785.78,535.3,785.78Z" transform="translate(-429.849 -633.459)" fill="#4dba80"/>
    <path id="Caminho_237" data-name="Caminho 237" d="M535.3,785.78a5.706,5.706,0,0,0-5.844,3.3,4.774,4.774,0,0,0,.352,4.812,2.2,2.2,0,0,0,2.8.995C535.427,793.728,535.3,785.78,535.3,785.78Z" transform="translate(-429.849 -633.459)" fill="#fff" opacity="0.5"/>
    <path id="Caminho_238" data-name="Caminho 238" d="M537.7,803.13s-.543.5-.334.627S537.7,803.13,537.7,803.13Z" transform="translate(-436.538 -647.386)" fill="#3f2b3b"/>
    <path id="Caminho_239" data-name="Caminho 239" d="M541.531,806.35s-.3.654-.086.726.336-.469.336-.469Z" transform="translate(-439.782 -649.966)" fill="#3f2b3b"/>
    <path id="Caminho_240" data-name="Caminho 240" d="M535.07,811.32s-.29.772,0,.772S535.07,811.32,535.07,811.32Z" transform="translate(-434.634 -653.947)" fill="#3f2b3b"/>
    <path id="Caminho_241" data-name="Caminho 241" d="M533.78,821.71a2.2,2.2,0,0,0,2.093,1.378" transform="translate(-433.703 -662.271)" fill="none" stroke="#3f2b3b" stroke-miterlimit="10" stroke-width="1"/>
    <path id="Caminho_242" data-name="Caminho 242" d="M540.61,823.91a1.047,1.047,0,0,0,1.251.167" transform="translate(-439.173 -664.033)" fill="none" stroke="#3f2b3b" stroke-miterlimit="10" stroke-width="1"/>
    <path id="Caminho_243" data-name="Caminho 243" d="M564,786.41a5.706,5.706,0,0,1,5.844,3.3,4.774,4.774,0,0,1-.352,4.811,2.2,2.2,0,0,1-2.8.995C563.865,794.358,564,786.41,564,786.41Z" transform="translate(-457.899 -633.964)" opacity="0.1"/>
    <path id="Caminho_244" data-name="Caminho 244" d="M564.587,785.15a5.706,5.706,0,0,1,5.844,3.3,4.774,4.774,0,0,1-.352,4.812,2.2,2.2,0,0,1-2.8.995C564.47,793.1,564.587,785.15,564.587,785.15Z" transform="translate(-458.372 -632.954)" opacity="0.1"/>
    <path id="Caminho_245" data-name="Caminho 245" d="M564.587,785.78a5.706,5.706,0,0,1,5.844,3.3,4.774,4.774,0,0,1-.352,4.812,2.2,2.2,0,0,1-2.8.995C564.47,793.728,564.587,785.78,564.587,785.78Z" transform="translate(-458.372 -633.459)" fill="#4dba80"/>
    <path id="Caminho_246" data-name="Caminho 246" d="M564.587,785.78a5.706,5.706,0,0,1,5.844,3.3,4.774,4.774,0,0,1-.352,4.812,2.2,2.2,0,0,1-2.8.995C564.47,793.728,564.587,785.78,564.587,785.78Z" transform="translate(-458.372 -633.459)" fill="#fff" opacity="0.5"/>
    <path id="Caminho_247" data-name="Caminho 247" d="M586.16,803.13s.543.5.334.627S586.16,803.13,586.16,803.13Z" transform="translate(-475.653 -647.386)" fill="#3f2b3b"/>
    <path id="Caminho_248" data-name="Caminho 248" d="M582.211,806.35s.3.654.086.726-.336-.469-.336-.469Z" transform="translate(-472.29 -649.966)" fill="#3f2b3b"/>
    <path id="Caminho_249" data-name="Caminho 249" d="M589.3,811.32s.288.772,0,.772S589.3,811.32,589.3,811.32Z" transform="translate(-478.068 -653.947)" fill="#3f2b3b"/>
    <path id="Caminho_250" data-name="Caminho 250" d="M583.192,821.71a2.2,2.2,0,0,1-2.092,1.378" transform="translate(-471.6 -662.271)" fill="none" stroke="#3f2b3b" stroke-miterlimit="10" stroke-width="1"/>
    <path id="Caminho_251" data-name="Caminho 251" d="M579.753,823.91a1.049,1.049,0,0,1-1.253.167" transform="translate(-469.518 -664.033)" fill="none" stroke="#3f2b3b" stroke-miterlimit="10" stroke-width="1"/>
    <path id="Caminho_252" data-name="Caminho 252" d="M553.2,841.322a5.775,5.775,0,0,1,4.133,0Z" transform="translate(-449.255 -677.666)" fill="#3f2b3b"/>
    <path id="Caminho_253" data-name="Caminho 253" d="M521.635,850c-1.854-.276-3.182-.806-3.3-1.734a5.37,5.37,0,0,1-.042-1.193,2.674,2.674,0,0,1,.708-.259,3.179,3.179,0,0,1,1.629.221c.877.251.813,1.283.995,2.63A1.112,1.112,0,0,1,521.635,850Z" transform="translate(-421.29 -682.349)" opacity="0.1"/>
    <path id="Caminho_254" data-name="Caminho 254" d="M515.276,847.471s-2.411.441-1.106,2.522a.889.889,0,0,0,.446.368c.153.054.3.054.284-.165l1.066,1.221s2.128.251,1.941-1.1-.125-2.387-.995-2.63A3.29,3.29,0,0,0,515.276,847.471Z" transform="translate(-417.687 -682.876)" fill="#4dba80"/>
    <path id="Caminho_255" data-name="Caminho 255" d="M524.18,854.67s.511,1.168,1.221.187" transform="translate(-426.015 -688.674)" fill="none" stroke="#3f2b3b" stroke-miterlimit="10" stroke-width="1"/>
    <path id="Caminho_256" data-name="Caminho 256" d="M518.28,857s.265,1.106,1.267.283" transform="translate(-421.29 -690.541)" fill="none" stroke="#3f2b3b" stroke-miterlimit="10" stroke-width="1"/>
    <path id="Caminho_257" data-name="Caminho 257" d="M595.143,846.82h0c-.08,1.1-.292,2.87-.292,2.87s-.885.107-2.254.231a1.156,1.156,0,0,1,0-.231c.187-1.347.125-2.387.995-2.63A3.825,3.825,0,0,1,595.143,846.82Z" transform="translate(-480.802 -682.37)" opacity="0.1"/>
    <path id="Caminho_258" data-name="Caminho 258" d="M595.882,847.471s2.413.441,1.108,2.522a.9.9,0,0,1-.446.368c-.153.054-.3.054-.286-.165l-1.064,1.221s-2.13.251-1.941-1.1.125-2.387.995-2.63A3.288,3.288,0,0,1,595.882,847.471Z" transform="translate(-481.322 -682.876)" fill="#4dba80"/>
    <path id="Caminho_259" data-name="Caminho 259" d="M598.721,854.67s-.513,1.168-1.221.187" transform="translate(-484.735 -688.674)" fill="none" stroke="#3f2b3b" stroke-miterlimit="10" stroke-width="1"/>
    <path id="Caminho_260" data-name="Caminho 260" d="M604.429,857s-.267,1.106-1.269.283" transform="translate(-489.267 -690.541)" fill="none" stroke="#3f2b3b" stroke-miterlimit="10" stroke-width="1"/>
    <path id="Caminho_261" data-name="Caminho 261" d="M538.995,846.065c-.807-.018-1.591-.06-2.317-.131l-.722-2.431a1.58,1.58,0,0,1-.066-.444,1.547,1.547,0,0,1,3.093-.01C538.991,844,539,845.2,538.995,846.065Z" transform="translate(-435.392 -678.174)" opacity="0.1"/>
    <path id="Caminho_262" data-name="Caminho 262" d="M534.505,843.293l.851,2.868s-1.448-.032-1.052.877c0,0,.364.344.489.219,0,0-.189.6.563.6,0,0,.812.44,1.126.125s.973-.784,1.036-.971c.04-.123.028-2.522.014-4.177a1.544,1.544,0,0,0-1.546-1.532h0a1.545,1.545,0,0,0-1.482,1.993Z" transform="translate(-434.067 -677.964)" fill="#4dba80"/>
    <path id="Caminho_263" data-name="Caminho 263" d="M539.776,869.47s-.633.6-.3.949" transform="translate(-438.189 -700.531)" fill="none" stroke="#3f2b3b" stroke-miterlimit="10" stroke-width="1"/>
    <path id="Caminho_264" data-name="Caminho 264" d="M537.645,867.56a.859.859,0,0,0-.585.734" transform="translate(-436.33 -699.001)" fill="none" stroke="#3f2b3b" stroke-miterlimit="10" stroke-width="1"/>
    <path id="Caminho_265" data-name="Caminho 265" d="M579.245,842.846a1.576,1.576,0,0,1-.064.443l-.674,2.3c-.712.058-1.512.113-2.357.161,0-.859,0-2,.014-2.916a1.546,1.546,0,0,1,3.091.01Z" transform="translate(-467.635 -677.96)" opacity="0.1"/>
    <path id="Caminho_266" data-name="Caminho 266" d="M579.762,843.293l-.851,2.868s1.45-.032,1.054.877c0,0-.364.344-.489.219,0,0,.187.6-.565.6,0,0-.812.44-1.126.125s-.971-.784-1.034-.971c-.04-.123-.028-2.522-.014-4.177a1.543,1.543,0,0,1,1.546-1.532h0a1.545,1.545,0,0,1,1.48,1.993Z" transform="translate(-468.094 -677.964)" fill="#4dba80"/>
    <path id="Caminho_267" data-name="Caminho 267" d="M586.23,869.47s.633.6.3.949" transform="translate(-475.709 -700.531)" fill="none" stroke="#3f2b3b" stroke-miterlimit="10" stroke-width="1"/>
    <path id="Caminho_268" data-name="Caminho 268" d="M587.63,867.56a.859.859,0,0,1,.585.734" transform="translate(-476.83 -699.001)" fill="none" stroke="#3f2b3b" stroke-miterlimit="10" stroke-width="1"/>
    <path id="Caminho_269" data-name="Caminho 269" d="M548.574,782.768s-2.946-.094-3.039,2.188,4.6,1.315,4.6,1.315,1.973-.265,1.629-1.651S550.7,782.893,548.574,782.768Z" transform="translate(-443.113 -631.074)" opacity="0.1"/>
    <path id="Caminho_270" data-name="Caminho 270" d="M548.574,781.508s-2.946-.093-3.039,2.188,4.6,1.315,4.6,1.315,1.973-.265,1.629-1.651S550.7,781.633,548.574,781.508Z" transform="translate(-443.113 -630.064)" opacity="0.1"/>
    <path id="Caminho_271" data-name="Caminho 271" d="M548.574,782.138s-2.946-.094-3.039,2.188,4.6,1.315,4.6,1.315,1.973-.265,1.629-1.651S550.7,782.263,548.574,782.138Z" transform="translate(-443.113 -630.569)" fill="#3f2b3b"/>
    <path id="Caminho_272" data-name="Caminho 272" d="M527.78,839.92s.995.354,1.193,1.032" transform="translate(-428.898 -676.858)" opacity="0.1"/>
    <path id="Caminho_273" data-name="Caminho 273" d="M595.626,837.4s-.706.3-.656,1.534" transform="translate(-482.707 -674.84)" opacity="0.1"/>
    <ellipse id="Elipse_4197" data-name="Elipse 4197" cx="0.461" cy="0.764" rx="0.461" ry="0.764" transform="translate(98.52 167.799) rotate(-29.887)" fill="#4dba80"/>
    <ellipse id="Elipse_4198" data-name="Elipse 4198" cx="0.762" cy="0.459" rx="0.762" ry="0.459" transform="translate(112.535 167.979) rotate(-60)" fill="#4dba80"/>
    <ellipse id="Elipse_4199" data-name="Elipse 4199" cx="0.461" cy="0.764" rx="0.461" ry="0.764" transform="translate(98.52 167.799) rotate(-29.887)" fill="#fff" opacity="0.5"/>
    <ellipse id="Elipse_4200" data-name="Elipse 4200" cx="0.762" cy="0.459" rx="0.762" ry="0.459" transform="translate(112.535 167.979) rotate(-60)" fill="#fff" opacity="0.5"/>
    <ellipse id="Elipse_4201" data-name="Elipse 4201" cx="5.357" cy="0.905" rx="5.357" ry="0.905" transform="translate(32.942 141.526)" fill="#4dba80" opacity="0.1"/>
    <ellipse id="Elipse_4202" data-name="Elipse 4202" cx="5.357" cy="0.905" rx="5.357" ry="0.905" transform="translate(11.84 154.362)" fill="#4dba80" opacity="0.1"/>
    <ellipse id="Elipse_4203" data-name="Elipse 4203" cx="7.998" cy="1.353" rx="7.998" ry="1.353" transform="translate(3.622 142.431)" fill="#4dba80"/>
    <path id="Caminho_274" data-name="Caminho 274" d="M69.825,717.036a2.313,2.313,0,0,1-.764-1.15,1.025,1.025,0,0,1,.533-1.172,1.5,1.5,0,0,1,1.408.493,1.89,1.89,0,0,0,1.37.662,2.086,2.086,0,0,1-.644-1.953.8.8,0,0,1,.179-.4c.271-.291.764-.165,1.09.064a4.059,4.059,0,0,1,1.327,3.4,6.267,6.267,0,0,0,.02-1.392,1.432,1.432,0,0,1,.525-1.237,1.59,1.59,0,0,1,.8-.2,1.664,1.664,0,0,1,1.3.37,1.279,1.279,0,0,1-.052,1.591,5.2,5.2,0,0,1-1.345,1.078,2.967,2.967,0,0,0-.963.917.941.941,0,0,0-.072.163H71.629A8.045,8.045,0,0,1,69.825,717.036Z" transform="translate(-61.513 -575.464)" fill="#4dba80"/>
    <ellipse id="Elipse_4204" data-name="Elipse 4204" cx="5.357" cy="0.905" rx="5.357" ry="0.905" transform="translate(199.727 149.096)" fill="#4dba80" opacity="0.1"/>
    <path id="Caminho_275" data-name="Caminho 275" d="M1042.91,746.462s3.055-.094,3.978-.75,4.7-1.438,4.927-.386,4.593,5.229,1.142,5.257-8.014-.537-8.933-1.1S1042.91,746.462,1042.91,746.462Z" transform="translate(-841.423 -600.667)" fill="#a8a8a8"/>
    <path id="Caminho_276" data-name="Caminho 276" d="M1053.016,756.859c-3.449.028-8.014-.537-8.933-1.1-.7-.426-.979-1.955-1.072-2.661h-.1s.2,2.464,1.112,3.023,5.484,1.126,8.933,1.1c.995,0,1.341-.362,1.321-.887C1054.138,756.661,1053.758,756.859,1053.016,756.859Z" transform="translate(-841.423 -607.307)" opacity="0.2"/>
  </g>
</svg>
